<svg width="60" height="48" viewBox="0 0 60 48" fill="none" xmlns="http://www.w3.org/2000/svg">
<path d="M2.97818 11.9111L19.2073 22.7306C23.028 25.2776 24.9384 26.5512 27.003 27.0461C28.8278 27.4833 30.7301 27.4833 32.5549 27.0461C34.6195 26.5512 36.5301 25.2776 40.3507 22.7306L56.5797 11.9111M12.5073 44.6676H47.0506C50.3861 44.6676 52.054 44.6676 53.3279 44.0184C54.4485 43.4476 55.3597 42.5364 55.9305 41.4158C56.5797 40.1419 56.5797 38.474 56.5797 35.1385V12.5067C56.5797 9.1712 56.5797 7.50341 55.9305 6.22943C55.3597 5.10877 54.4485 4.19766 53.3279 3.62668C52.054 2.97754 50.3861 2.97754 47.0506 2.97754H12.5073C9.17184 2.97754 7.50406 2.97754 6.23007 3.62668C5.10941 4.19766 4.1983 5.10877 3.62732 6.22943C2.97818 7.50341 2.97818 9.17117 2.97818 12.5067V35.1385C2.97818 38.474 2.97818 40.1419 3.62732 41.4158C4.1983 42.5364 5.10941 43.4476 6.23007 44.0184C7.50406 44.6676 9.17181 44.6676 12.5073 44.6676Z" stroke="white" stroke-width="5.95573" stroke-linecap="round" stroke-linejoin="round"/>
</svg>
