<svg width="22" height="42" viewBox="0 0 22 42" fill="none" xmlns="http://www.w3.org/2000/svg">
<path d="M21.8137 18.2329L21.2902 22.4369C21.2016 23.1391 20.607 23.6674 19.9016 23.6674H13.0927V41.244C12.3746 41.3088 11.6471 41.342 10.9116 41.342C9.26673 41.342 7.66138 41.1775 6.10981 40.8644V23.6674H0.873055C0.392242 23.6674 0 23.2736 0 22.7912V17.5307C0 17.0483 0.392242 16.6545 0.873055 16.6545H6.10981V8.76535C6.10981 3.924 10.018 0 14.8404 0H20.9502C21.431 0 21.8232 0.393823 21.8232 0.876218V6.13669C21.8232 6.61909 21.431 7.01291 20.9502 7.01291H16.5849C14.6569 7.01291 13.0943 8.58188 13.0943 10.5194V16.6561H20.4267C21.2681 16.6561 21.9181 17.3963 21.8153 18.2345L21.8137 18.2329Z" fill="white"/>
</svg>
