<svg width="136" height="142" viewBox="0 0 136 142" fill="none" xmlns="http://www.w3.org/2000/svg">
<g clip-path="url(#clip0_87_6232)">
<g style="mix-blend-mode:multiply" opacity="0.7">
<path d="M132.1 111.178L62.6251 71.1749C60.8086 70.127 58.4256 69.5948 56.0259 69.5781H47.7102C45.2105 69.5449 42.6775 70.0771 40.7611 71.1749L3.78233 92.5154C0.0827864 94.6444 0.0661218 98.1208 3.73234 100.25L73.2071 140.253C75.0902 141.351 77.5732 141.866 80.0396 141.85H88.4552C90.8549 141.85 93.238 141.301 95.0711 140.253L132.066 118.929C135.766 116.8 135.799 113.34 132.116 111.195L132.1 111.178Z" fill="#50197C"/>
</g>
<path d="M126.734 113.157L86.1725 136.527C85.5226 136.893 84.7394 136.893 84.0894 136.527L8.16549 92.765C6.78232 91.9666 5.0492 90.0371 7.16561 87.6419L44.8276 65.6861C47.3107 64.1891 50.9435 63.2576 53.8098 63.6235C55.0764 63.7899 56.6762 64.1059 57.4094 64.5217L128.567 105.44C131.567 107.169 129.717 111.427 126.718 113.157H126.734Z" fill="#2F0C3A"/>
<path d="M135.233 110.978C135.233 112.392 134.3 113.789 132.45 114.871L95.4544 136.194C91.7549 138.323 85.7723 138.34 82.0727 136.194L8.54849 93.8794C6.71538 92.8149 5.79883 91.4343 5.79883 90.0371V93.3638C5.81549 94.761 6.73205 96.1415 8.56515 97.206L82.0894 139.538C85.7723 141.667 91.7549 141.667 95.4711 139.538L132.467 118.214C134.333 117.133 135.266 115.735 135.25 114.322V110.995L135.233 110.978Z" fill="url(#paint0_linear_87_6232)"/>
<path d="M132.483 107.153L58.9592 64.8209C55.2764 62.6919 49.2938 62.6919 45.5776 64.8209L8.58213 86.1447C4.88259 88.2738 4.86593 91.7501 8.53214 93.8792L82.0564 136.211C85.7393 138.34 91.7219 138.34 95.4381 136.211L132.434 114.887C136.133 112.758 136.166 109.298 132.483 107.153ZM80.9232 134.198L7.96554 92.166C6.21576 91.168 6.21576 88.6397 7.96554 87.6417L16.4145 82.7682L23.1803 81.9864L38.5784 73.1043L41.1781 68.4969L46.3941 65.4862C50.1103 63.3406 54.6931 63.3406 58.4093 65.4862L128.817 106.055C129.417 106.404 129.417 107.269 128.817 107.602L82.7063 134.182C82.1564 134.498 81.4731 134.498 80.9232 134.182V134.198Z" fill="#412B42"/>
<path d="M115.452 120.692L113.752 119.71C112.902 119.228 111.486 119.278 110.503 119.827L104.42 123.336C104.103 123.519 103.853 123.752 103.703 124.002C103.37 124.567 103.57 125.199 104.203 125.565L105.903 126.547C106.753 127.029 108.169 126.979 109.153 126.43L115.235 122.921C115.552 122.738 115.802 122.505 115.952 122.255C116.285 121.69 116.085 121.058 115.435 120.692H115.452Z" fill="#342135"/>
<path d="M115.452 121.324L113.752 120.343C112.902 119.86 111.486 119.91 110.503 120.459L104.42 123.969C104.103 124.152 103.853 124.385 103.703 124.634C103.653 124.717 103.637 124.8 103.62 124.9C103.72 125.166 103.92 125.399 104.22 125.582L105.92 126.564C106.77 127.046 108.186 126.996 109.169 126.447L115.252 122.938C115.569 122.755 115.819 122.522 115.969 122.272C116.019 122.189 116.035 122.106 116.052 122.006C115.952 121.74 115.752 121.507 115.452 121.324Z" fill="#412B42"/>
<path d="M32.7129 73.7196L25.1972 78.0443C24.8306 78.2605 24.7973 78.5765 25.1139 78.7595C25.4305 78.9425 25.9804 78.9258 26.3471 78.7096L33.8628 74.385C34.2294 74.1687 34.2628 73.8527 33.9461 73.6697C33.6295 73.4868 33.0796 73.5034 32.7129 73.7196Z" fill="#191414"/>
<path d="M21.7306 102.928C21.664 102.745 21.564 102.562 21.4473 102.395C21.314 102.212 21.1474 102.063 20.9807 101.963L14.8648 98.4367C14.6315 98.3036 14.4315 98.287 14.2816 98.3702L13.6816 98.7195C13.8316 98.6363 14.0316 98.6529 14.2649 98.7694L20.3808 102.296C20.5475 102.395 20.7141 102.545 20.8474 102.728C20.9641 102.894 21.0641 103.077 21.1307 103.26C21.1807 103.41 21.214 103.576 21.214 103.726V103.992C21.214 104.258 21.1141 104.441 20.9641 104.541L21.564 104.192C21.714 104.109 21.814 103.909 21.814 103.66V103.393C21.814 103.244 21.7806 103.077 21.7306 102.928Z" fill="url(#paint1_linear_87_6232)"/>
<path d="M20.3808 102.312L14.2649 98.7858C13.7983 98.5196 13.4316 98.7359 13.4316 99.2681V99.5343C13.4316 100.067 13.7983 100.715 14.2649 100.965L20.3808 104.491C20.8307 104.757 21.214 104.541 21.214 104.009V103.742C21.214 103.21 20.8474 102.562 20.3808 102.312Z" fill="#8B3DCE"/>
<path d="M31.0461 108.3C30.9794 108.117 30.8794 107.934 30.7628 107.768C30.6295 107.585 30.4628 107.435 30.2962 107.336L24.1803 103.809C23.947 103.676 23.747 103.66 23.597 103.743L22.9971 104.092C23.1471 104.009 23.347 104.025 23.5803 104.142L29.6962 107.668C29.8629 107.768 30.0295 107.918 30.1629 108.101C30.2795 108.267 30.3795 108.45 30.4462 108.633C30.4961 108.783 30.5295 108.949 30.5295 109.099V109.365C30.5295 109.631 30.4295 109.814 30.2795 109.897L30.8794 109.548C31.0294 109.465 31.1294 109.265 31.1294 109.015V108.749C31.1294 108.6 31.0961 108.433 31.0461 108.284V108.3Z" fill="url(#paint2_linear_87_6232)"/>
<path d="M29.6962 107.685L23.5803 104.158C23.1137 103.892 22.7471 104.108 22.7471 104.641V104.907C22.7471 105.439 23.1137 106.088 23.5803 106.337L29.6962 109.864C30.1462 110.13 30.5294 109.913 30.5294 109.381V109.115C30.5294 108.583 30.1628 107.934 29.6962 107.685Z" fill="#8B3DCE"/>
<path d="M22.3142 81.1216C21.8976 81.3545 21.231 81.3545 20.8144 81.1216C20.3978 80.8887 20.3978 80.4895 20.8144 80.2567C21.231 80.0238 21.8976 80.0238 22.3142 80.2567C22.7308 80.4895 22.7308 80.8887 22.3142 81.1216Z" fill="#191414"/>
<path opacity="0.1" d="M21.0306 81.0216C21.3472 81.1879 21.8472 81.1713 22.1471 80.9883C22.4471 80.8054 22.4471 80.5226 22.1305 80.3396C21.8138 80.1733 21.3139 80.1899 21.0139 80.3729C20.714 80.5559 20.714 80.8386 21.0306 81.0216Z" fill="#CFD5D5"/>
<path opacity="0.1" d="M21.2637 80.8385C21.4303 80.9383 21.6969 80.9216 21.8636 80.8385C22.0302 80.7387 22.0302 80.589 21.8636 80.4892C21.6969 80.3894 21.4303 80.406 21.2637 80.4892C21.097 80.589 21.097 80.7387 21.2637 80.8385Z" fill="#CFD5D5"/>
<g style="mix-blend-mode:screen" opacity="0.2">
<path d="M21.4473 80.722C21.4473 80.722 21.6139 80.7552 21.6639 80.722C21.7306 80.6887 21.7306 80.6222 21.6639 80.5889C21.5973 80.5556 21.4973 80.5556 21.4473 80.5889C21.3973 80.6222 21.3806 80.6887 21.4473 80.722Z" fill="#CFD5D5"/>
</g>
<path d="M115.236 127.462L110.903 129.957C110.403 130.239 109.986 130.073 109.986 129.574C109.986 129.075 110.403 128.426 110.903 128.127L115.236 125.632C115.736 125.349 116.152 125.516 116.152 126.015C116.152 126.514 115.736 127.162 115.236 127.462Z" fill="#342135"/>
<mask id="mask0_87_6232" style="mask-type:luminance" maskUnits="userSpaceOnUse" x="109" y="125" width="8" height="6">
<path d="M115.236 127.462L110.903 129.957C110.403 130.239 109.986 130.073 109.986 129.574C109.986 129.075 110.403 128.426 110.903 128.127L115.236 125.632C115.736 125.349 116.152 125.516 116.152 126.015C116.152 126.514 115.736 127.162 115.236 127.462Z" fill="white"/>
</mask>
<g mask="url(#mask0_87_6232)">
<path d="M109.253 128.144L108.653 128.493L110.786 129.724L111.386 129.374L109.253 128.144ZM110.57 127.378L109.97 127.728L112.103 128.959L112.703 128.609L110.57 127.378ZM111.903 126.613L111.303 126.963L113.436 128.193L114.036 127.844L111.903 126.613ZM113.236 125.848L112.636 126.197L114.769 127.428L115.369 127.079L113.236 125.848Z" fill="#98782E"/>
</g>
<g opacity="0.4">
<g style="mix-blend-mode:screen">
<path d="M125.917 98.1539L56.8425 58.3506L11.748 84.3317L80.8228 124.135C81.4061 124.468 82.3393 124.468 82.9059 124.135L125.917 99.3515C126.501 99.0189 126.501 98.4866 125.917 98.1539Z" fill="#7B38D4"/>
</g>
<path d="M58.1418 59.0824L13.0474 85.0635L8.24799 82.3024C7.66473 81.9697 7.66473 81.4375 8.24799 81.1048L51.2593 56.3213C51.8426 55.9886 52.7758 55.9886 53.3424 56.3213L58.1418 59.0824Z" fill="#8821D8"/>
</g>
<g opacity="0.7">
<g style="mix-blend-mode:screen">
<path d="M125.917 89.2218L56.8425 49.4185L11.748 75.3996L80.8228 115.203C81.4061 115.536 82.3393 115.536 82.9059 115.203L125.917 90.4194C126.501 90.0867 126.501 89.5545 125.917 89.2218Z" fill="#7B38D4"/>
</g>
<path d="M58.1418 50.1503L13.0474 76.1314L8.24799 73.3703C7.66473 73.0376 7.66473 72.5053 8.24799 72.1727L51.2593 47.3891C51.8426 47.0565 52.7758 47.0565 53.3424 47.3891L58.1418 50.1503Z" fill="#8821D8"/>
</g>
<g style="mix-blend-mode:screen">
<path d="M125.917 80.2897L56.8425 40.4863L11.748 66.4675L80.8228 106.271C81.4061 106.603 82.3393 106.603 82.9059 106.271L125.917 81.4873C126.501 81.1546 126.501 80.6223 125.917 80.2897Z" fill="#7B38D4"/>
</g>
<path d="M58.1418 41.2181L13.0474 67.1993L8.24799 64.4381C7.66473 64.1055 7.66473 63.5732 8.24799 63.2405L51.2593 38.457C51.8426 38.1244 52.7758 38.1244 53.3424 38.457L58.1418 41.2181Z" fill="#8821D8"/>
<path d="M46.8105 46.4078L43.1943 48.4869L39.5947 46.4078L43.1943 44.3286L46.8105 46.4078Z" fill="#6811BC"/>
<path d="M51.293 43.8296L47.6768 45.9088L44.0605 43.8296L47.6768 41.7505L51.293 43.8296Z" fill="#6811BC"/>
<path d="M45.2109 43.8298L47.6773 45.2603L50.1437 43.8298L47.6773 42.416L45.2109 43.8298ZM49.2938 43.8298L47.6773 44.7613L46.0608 43.8298L47.6773 42.8984L49.2938 43.8298Z" fill="#F6C2FF"/>
<path d="M55.7597 41.2515L52.1602 43.3307L48.5439 41.2515L52.1602 39.1724L55.7597 41.2515Z" fill="#6811BC"/>
<path d="M50.0264 41.4178H51.9595V42.5323H52.5761V41.4178H54.5091V41.0685H52.5761V39.9541H51.9595V41.0685H50.0264V41.4178Z" fill="#F6C2FF"/>
<path d="M45.611 46.4409L43.3113 47.7716L42.8613 47.5221L45.1777 46.1914L45.611 46.4409Z" fill="#F6C2FF"/>
<path opacity="0.3" d="M123.168 80.7719L81.7895 104.607L16.8809 67.1992L58.2424 43.3638L123.168 80.7719Z" fill="#FFBBFA"/>
<g style="mix-blend-mode:overlay" opacity="0.5">
<path d="M123.168 80.7719L81.7895 104.607L16.8809 67.1992L58.2424 43.3638L123.168 80.7719Z" fill="#FFBBFA"/>
</g>
<path d="M61.1921 45.0604L19.8138 68.8958L16.8809 67.1992L58.2424 43.3638L61.1921 45.0604Z" fill="#DE78FF"/>
<path d="M77.623 102.212L81.7892 104.608L123.167 80.7722L119.001 78.3604L77.623 102.212Z" fill="#DE78FF"/>
<path d="M59.425 52.4786L63.6745 50.0169L63.6245 42.4155L59.375 44.8772L59.425 52.4786Z" fill="#FFBBFA"/>
<g style="mix-blend-mode:screen">
<path d="M59.3752 44.8773L63.6246 42.4156L58.6753 39.5547L54.4258 42.0164L59.3752 44.8773Z" fill="#FFBBFA"/>
</g>
<path d="M54.4258 42.0161L54.4758 49.6341L59.4252 52.4784L59.3752 44.877L54.4258 42.0161Z" fill="#DE78FF"/>
<path d="M65.1749 55.7889L69.4244 53.3272L69.3911 41.7837L65.1416 44.2454L65.1749 55.7889Z" fill="#FFBBFA"/>
<g style="mix-blend-mode:screen">
<path d="M65.1408 44.245L69.3903 41.7833L64.4409 38.939L60.1914 41.4007L65.1408 44.245Z" fill="#FFBBFA"/>
</g>
<path d="M60.1914 41.4009L60.2247 52.9444L65.1741 55.7886L65.1408 44.2452L60.1914 41.4009Z" fill="#DE78FF"/>
<path d="M70.9239 59.1154L75.1734 56.6371L75.1567 37.9912L70.9072 40.4529L70.9239 59.1154Z" fill="#FFBBFA"/>
<g style="mix-blend-mode:screen">
<path d="M70.9074 40.453L75.1569 37.9913L70.2075 35.1304L65.958 37.5921L70.9074 40.453Z" fill="#FFE1FE"/>
</g>
<path d="M65.958 37.5918L65.9747 56.2543L70.9241 59.1152L70.9074 40.4527L65.958 37.5918Z" fill="#DE78FF"/>
<path d="M76.6729 62.4253L80.9057 59.9635L80.939 25.7822L76.7062 28.2439L76.6729 62.4253Z" fill="#FFBBFA"/>
<g style="mix-blend-mode:screen">
<path d="M76.7062 28.244L80.939 25.7823L75.9896 22.9214L71.7568 25.3997L76.7062 28.244Z" fill="#FFE1FE"/>
</g>
<path d="M71.757 25.3999L71.7236 59.5646L76.673 62.4255L76.7064 28.2442L71.757 25.3999Z" fill="#DE78FF"/>
<path d="M82.4053 65.7354L86.6547 63.2736L86.6714 35.4795L82.4219 37.9412L82.4053 65.7354Z" fill="#FFBBFA"/>
<g style="mix-blend-mode:screen">
<path d="M82.422 37.9413L86.6715 35.4795L81.7221 32.6353L77.4727 35.097L82.422 37.9413Z" fill="#FFBBFA"/>
</g>
<path d="M77.4727 35.0967L77.4561 62.8742L82.4054 65.7351L82.4221 37.941L77.4727 35.0967Z" fill="#DE78FF"/>
<path d="M88.1719 69.0453L92.3381 66.5836L92.4047 46.2744L88.1553 48.7361L88.1719 69.0453Z" fill="#FFBBFA"/>
<g style="mix-blend-mode:screen">
<path d="M87.4546 43.4302L83.2051 45.8919L88.1545 48.7362L92.4039 46.2745L87.4546 43.4302Z" fill="#FFBBFA"/>
</g>
<path d="M83.2051 45.8921V66.1846L88.1711 69.0456L88.1545 48.7364L83.2051 45.8921Z" fill="#DE78FF"/>
<path d="M93.9044 72.3555L98.1538 69.8938L98.1372 54.4082L93.8877 56.8699L93.9044 72.3555Z" fill="#FFBBFA"/>
<g style="mix-blend-mode:screen">
<path d="M93.8879 56.87L98.1373 54.4083L93.188 51.5474L88.9385 54.0091L93.8879 56.87Z" fill="#FFBBFA"/>
</g>
<path d="M88.9385 54.0088L88.9551 69.511L93.9045 72.3553L93.8879 56.8697L88.9385 54.0088Z" fill="#DE78FF"/>
<path d="M99.6534 75.6652L103.903 73.2034L103.853 65.6021L99.6201 68.0638L99.6534 75.6652Z" fill="#FFBBFA"/>
<g style="mix-blend-mode:screen">
<path d="M99.6203 68.0638L103.853 65.6021L98.9037 62.7412L94.6709 65.2029L99.6203 68.0638Z" fill="#FFBBFA"/>
</g>
<path d="M94.6709 65.2031L94.7042 72.8211L99.6536 75.6654L99.6203 68.064L94.6709 65.2031Z" fill="#DE78FF"/>
<path d="M105.402 78.9754L109.652 76.5137L109.619 64.9702L105.369 67.4486L105.402 78.9754Z" fill="#FFBBFA"/>
<g style="mix-blend-mode:screen">
<path d="M105.369 67.4486L109.619 64.9703L104.669 62.126L100.42 64.5877L105.369 67.4486Z" fill="#FFBBFA"/>
</g>
<path d="M100.42 64.5879L100.453 76.1314L105.403 78.9756L105.369 67.4488L100.42 64.5879Z" fill="#DE78FF"/>
<path d="M111.152 82.2856L115.402 79.8239L115.385 64.1055L111.136 66.5672L111.152 82.2856Z" fill="#FFBBFA"/>
<g style="mix-blend-mode:screen">
<path d="M111.136 66.5672L115.385 64.1055L110.419 61.2612L106.187 63.7229L111.136 66.5672Z" fill="#FFBBFA"/>
</g>
<path d="M106.187 63.7227L106.203 79.4411L111.153 82.2854L111.136 66.5669L106.187 63.7227Z" fill="#DE78FF"/>
<path d="M39.5443 75.2499L38.6444 75.7656L27.5791 69.395L28.479 68.8794L39.5443 75.2499Z" fill="#FFBBFA"/>
<path d="M40.5108 74.7008L39.5443 75.2497L29.6455 69.5445L30.6121 68.979L40.5108 74.7008Z" fill="#C858F0"/>
<path d="M43.1436 73.1702L42.2438 73.7025L31.7617 67.648L32.6616 67.1323L43.1436 73.1702Z" fill="#FFBBFA"/>
<path d="M44.1102 72.6214L43.1436 73.1703L31.7617 66.6168L32.7283 66.0513L44.1102 72.6214Z" fill="#C858F0"/>
<path d="M46.7602 71.0915L45.8603 71.6072L31.4121 63.2905L32.312 62.7749L46.7602 71.0915Z" fill="#FFBBFA"/>
<path d="M47.7265 70.526L46.76 71.0915L39.9941 67.1827L40.9607 66.6338L47.7265 70.526Z" fill="#C858F0"/>
<path d="M50.3767 69.0124L49.4602 69.528L37.2783 62.5088L38.1782 61.9932L50.3767 69.0124Z" fill="#FFBBFA"/>
<path d="M51.3428 68.4634L50.3762 69.0123L39.2109 62.5753L40.1775 62.0264L51.3428 68.4634Z" fill="#C858F0"/>
<path d="M61.2086 62.7749L60.2921 63.2905L47.877 56.1382L48.7768 55.606L61.2086 62.7749Z" fill="#FFBBFA"/>
<path d="M62.1748 62.2092L61.2083 62.7748L53.3926 58.2672L54.3591 57.7183L62.1748 62.2092Z" fill="#C858F0"/>
<path d="M64.808 60.6956L63.9081 61.2112L53.876 55.4229L54.7759 54.9072L64.808 60.6956Z" fill="#FFBBFA"/>
<path d="M65.7745 60.1303L64.808 60.6958L56.459 55.8721L57.4255 55.3232L65.7745 60.1303Z" fill="#C858F0"/>
<path d="M53.976 66.9335L53.0761 67.4491L48.71 64.9375L49.6099 64.4219L53.976 66.9335Z" fill="#FFBBFA"/>
<path d="M54.9428 66.3844L53.9762 66.9333L46.3271 62.5255L47.2937 61.96L54.9428 66.3844Z" fill="#C858F0"/>
<path d="M57.5922 64.8539L56.6923 65.3695L52.3262 62.8579L53.2261 62.3423L57.5922 64.8539Z" fill="#FFBBFA"/>
<path d="M58.5586 64.3052L57.5921 64.8541L54.4258 63.0411L55.3923 62.4756L58.5586 64.3052Z" fill="#C858F0"/>
<path d="M67.7575 59.8642L37.9279 77.0463L37.1113 76.5806L66.941 59.3984L67.7575 59.8642Z" fill="#8821D8"/>
<path d="M52.5264 81.3044C50.46 82.502 47.0938 82.502 45.0273 81.3044C42.9609 80.1068 42.9609 78.1773 45.0273 76.9797C47.0938 75.7821 50.46 75.7821 52.5264 76.9797C54.5928 78.1773 54.5928 80.1068 52.5264 81.3044Z" fill="#C858F0"/>
<path d="M52.0269 77.2793C53.81 78.3106 53.81 79.9905 52.0269 81.0218C50.2438 82.053 47.3275 82.053 45.5444 81.0218C43.7613 79.9905 43.7613 78.3106 45.5444 77.2793C47.3275 76.248 50.2438 76.248 52.0269 77.2793Z" fill="#8821D8"/>
<path d="M45.5439 77.2793L48.8102 79.1589V76.4976C47.627 76.4976 46.4438 76.7471 45.5439 77.2627V77.2793Z" fill="#FFBBFA"/>
<path d="M63.6085 74.9172C61.542 76.1148 58.1758 76.1148 56.1094 74.9172C54.043 73.7196 54.043 71.7901 56.1094 70.5925C58.1758 69.3949 61.542 69.3949 63.6085 70.5925C65.6749 71.7901 65.6749 73.7196 63.6085 74.9172Z" fill="#C858F0"/>
<path d="M63.1089 70.8921C64.892 71.9234 64.892 73.6033 63.1089 74.6346C61.3258 75.6658 58.4095 75.6658 56.6264 74.6346C54.8433 73.6033 54.8433 71.9234 56.6264 70.8921C58.4095 69.8608 61.3258 69.8608 63.1089 70.8921Z" fill="#8821D8"/>
<path d="M63.1085 70.8921C62.2253 70.3765 61.0588 70.127 59.8922 70.127C58.7091 70.127 57.5259 70.3765 56.626 70.8921L59.8922 72.7716H64.4583C64.4583 72.0897 64.0251 71.4243 63.1418 70.9087C63.1418 70.9087 63.1418 70.9087 63.1252 70.9087L63.1085 70.8921Z" fill="#FFBBFA"/>
<path d="M74.5069 68.6462C72.4405 69.8438 69.0742 69.8438 67.0078 68.6462C64.9414 67.4486 64.9414 65.5191 67.0078 64.3215C69.0742 63.1239 72.4405 63.1239 74.5069 64.3215C76.5733 65.5191 76.5733 67.4486 74.5069 68.6462Z" fill="#C858F0"/>
<path d="M73.9908 64.6211C75.7739 65.6524 75.7739 67.3323 73.9908 68.3636C72.2077 69.3948 69.2913 69.3948 67.5082 68.3636C65.7251 67.3323 65.7251 65.6524 67.5082 64.6211C69.2913 63.5898 72.2077 63.5898 73.9908 64.6211Z" fill="#8821D8"/>
<path d="M67.5078 64.6211L73.9903 68.3636C75.7735 67.3323 75.7735 65.6524 73.9903 64.6211C72.2072 63.5898 69.2909 63.5898 67.5078 64.6211Z" fill="#FFBBFA"/>
<path d="M57.592 83.1172C58.2086 83.4832 58.2086 84.0653 57.592 84.4146C56.9755 84.7805 55.9589 84.7805 55.3423 84.4146C54.7257 84.0487 54.7257 83.4665 55.3423 83.1172C55.9589 82.7513 56.9755 82.7513 57.592 83.1172Z" fill="#C858F0"/>
<path d="M63.0745 86.2774C63.6911 86.6433 63.6911 87.2255 63.0745 87.5748C62.4579 87.9407 61.4413 87.9407 60.8247 87.5748C60.2082 87.2088 60.2082 86.6267 60.8247 86.2774C61.4413 85.9114 62.4579 85.9114 63.0745 86.2774Z" fill="#C858F0"/>
<path d="M68.4905 89.3877C69.1071 89.7537 69.1071 90.3358 68.4905 90.6851C67.8739 91.0511 66.8574 91.0511 66.2408 90.6851C65.6242 90.3192 65.6242 89.737 66.2408 89.3877C66.8574 89.0218 67.8739 89.0218 68.4905 89.3877Z" fill="#C858F0"/>
<path d="M73.9397 92.5318C74.5563 92.8977 74.5563 93.4799 73.9397 93.8292C73.3231 94.1951 72.3066 94.1951 71.69 93.8292C71.0734 93.4632 71.0734 92.8811 71.69 92.5318C72.3066 92.1658 73.3231 92.1658 73.9397 92.5318Z" fill="#C858F0"/>
<path d="M79.3557 95.6587C79.9723 96.0247 79.9723 96.6068 79.3557 96.9561C78.7391 97.3221 77.7226 97.3221 77.106 96.9561C76.4894 96.5902 76.4894 96.008 77.106 95.6587C77.7226 95.2928 78.7391 95.2928 79.3557 95.6587Z" fill="#C858F0"/>
<path d="M72.3235 75.9982L76.473 73.603L76.0564 73.3535L71.9069 75.7487L72.3235 75.9982ZM71.7403 76.3309L71.3237 76.0814L60.9583 82.0527L61.3749 82.3022L71.7403 76.3309ZM59.7584 81.3042L63.1747 79.3249L62.758 79.0754L59.3418 81.0547L59.7584 81.3042ZM78.3228 70.609L81.5891 68.7295L81.1724 68.48L77.9062 70.3595L78.3228 70.609ZM73.6734 73.2704L77.7395 70.9251L77.3229 70.6756L73.2567 73.0209L73.6734 73.2704ZM63.7413 79.0088L73.1068 73.6197L72.6902 73.3702L63.3246 78.7593L63.7413 79.0088Z" fill="#DE78FF"/>
<path d="M82.8059 73.4864L83.2225 73.7359L86.4055 71.9062L85.9889 71.6567L82.8059 73.4864ZM82.656 74.0686L82.2393 73.8191L75.4402 77.7445L75.8568 77.994L82.656 74.0686ZM82.7393 75.4491L83.1559 75.6986L86.3555 73.8523L85.9389 73.6028L82.7393 75.4491ZM74.3903 80.7551L73.9737 80.5056L66.1247 85.0299L66.5413 85.2794L74.3903 80.7551ZM75.2735 78.31L74.8569 78.0605L64.4082 84.0818L64.8248 84.3313L75.2735 78.31ZM82.5893 76.0313L82.1727 75.7818L74.5403 80.1896L74.9569 80.4391L82.5893 76.0313Z" fill="#DE78FF"/>
<path d="M85.9221 78.1441L86.3387 78.3936L90.4049 76.0483L89.9882 75.7988L85.9221 78.1441ZM84.6389 81.3044L84.2223 81.0549L79.2896 83.8992L79.7062 84.1487L84.6389 81.3044ZM75.84 84.4481L75.4234 84.1986L70.124 87.2425L70.5406 87.492L75.84 84.4481ZM85.3388 78.4768L75.9733 83.8659L76.3899 84.1154L85.7554 78.7263L85.3388 78.4768ZM79.1229 84.4814L78.7063 84.2319L71.7738 88.2239L72.1904 88.4734L79.1229 84.4814Z" fill="#DE78FF"/>
<path d="M88.5384 85.346L92.6046 83.0007L92.188 82.7512L88.1218 85.0965L88.5384 85.346ZM87.9552 85.6787L87.5386 85.4292L77.1732 91.4005L77.5898 91.65L87.9552 85.6787ZM75.9567 90.652L79.3729 88.6727L78.9563 88.4232L75.54 90.4025L75.9567 90.652ZM89.8883 82.6182L95.6876 79.2749L95.2709 79.0254L89.4717 82.3687L89.8883 82.6182ZM79.9562 88.34L89.3217 82.9508L88.9051 82.7013L79.5395 88.0905L79.9562 88.34Z" fill="#DE78FF"/>
<path d="M97.1868 84.165L92.7207 86.7266L93.154 86.9761L97.6034 84.4145L97.1868 84.165Z" fill="#DE78FF"/>
<path d="M92.5706 87.3086L92.154 87.0591L80.8721 93.5627L81.3053 93.8122L92.5706 87.3086Z" fill="#DE78FF"/>
<path d="M88.3712 91.6669L87.938 91.4341L82.6553 94.478L83.0719 94.7275L88.3712 91.6669Z" fill="#DE78FF"/>
<path d="M92.1877 88.9888L88.5215 91.1012L88.9381 91.3341L92.6043 89.2216L92.1877 88.9888Z" fill="#DE78FF"/>
</g>
<defs>
<linearGradient id="paint0_linear_87_6232" x1="82.656" y1="115.586" x2="94.7878" y2="115.586" gradientUnits="userSpaceOnUse">
<stop stop-color="#8B3DCE"/>
<stop offset="1" stop-color="#CB89F0"/>
</linearGradient>
<linearGradient id="paint1_linear_87_6232" x1="15.798" y1="97.5052" x2="20.1352" y2="105.031" gradientUnits="userSpaceOnUse">
<stop offset="0.62" stop-color="#FFBFFF"/>
<stop offset="0.86" stop-color="#E09CFF"/>
<stop offset="1" stop-color="#CB89F0"/>
</linearGradient>
<linearGradient id="paint2_linear_87_6232" x1="25.1301" y1="102.878" x2="29.4507" y2="110.403" gradientUnits="userSpaceOnUse">
<stop offset="0.62" stop-color="#FFBFFF"/>
<stop offset="0.86" stop-color="#E09CFF"/>
<stop offset="1" stop-color="#CB89F0"/>
</linearGradient>
<clipPath id="clip0_87_6232">
<rect width="135" height="141" fill="white" transform="translate(0.25 0.83252)"/>
</clipPath>
</defs>
</svg>
