<svg width="135" height="142" viewBox="0 0 135 142" fill="none" xmlns="http://www.w3.org/2000/svg">
<g clip-path="url(#clip0_0_10000)">
<g style="mix-blend-mode:multiply" opacity="0.7">
<path d="M131.85 111.165L62.3756 71.1622C60.5591 70.1143 58.1761 69.5821 55.7764 69.5654H47.4607C44.961 69.5322 42.428 70.0644 40.5116 71.1622L3.53282 92.5027C-0.166725 94.6317 -0.18339 98.1081 3.48282 100.237L72.9576 140.24C74.8407 141.338 77.3237 141.854 79.7901 141.837H88.2057C90.6054 141.837 92.9884 141.288 94.8215 140.24L131.817 118.916C135.517 116.787 135.55 113.327 131.867 111.182L131.85 111.165Z" fill="#50197C"/>
</g>
<path d="M126.484 113.145L85.9225 136.514C85.2726 136.88 84.4894 136.88 83.8394 136.514L7.91549 92.7523C6.53232 91.9539 4.7992 90.0244 6.91561 87.6292L44.5776 65.6734C47.0606 64.1764 50.6935 63.2449 53.5598 63.6108C54.8264 63.7772 56.4262 64.0932 57.1594 64.509L128.317 105.427C131.317 107.157 129.467 111.415 126.468 113.145H126.484Z" fill="#2F0C3A"/>
<path d="M134.983 110.966C134.983 112.379 134.05 113.777 132.2 114.858L95.2049 136.182C91.5054 138.311 85.5228 138.327 81.8232 136.182L8.29898 93.8667C6.46587 92.8022 5.54932 91.4216 5.54932 90.0244V93.3511C5.56598 94.7483 6.48253 96.1288 8.31564 97.1933L81.8399 139.525C85.5228 141.654 91.5054 141.654 95.2216 139.525L132.217 118.201C134.083 117.12 135.017 115.723 135 114.309V110.982L134.983 110.966Z" fill="url(#paint0_linear_0_10000)"/>
<path d="M132.233 107.14L58.7092 64.8082C55.0264 62.6792 49.0438 62.6792 45.3276 64.8082L8.33213 86.132C4.63259 88.2611 4.61593 91.7374 8.28214 93.8665L81.8064 136.198C85.4893 138.327 91.4719 138.327 95.1881 136.198L132.184 114.874C135.883 112.745 135.916 109.286 132.233 107.14ZM80.6732 134.185L7.71554 92.1533C5.96576 91.1553 5.96576 88.627 7.71554 87.629L16.1645 82.7555L22.9303 81.9737L38.3284 73.0916L40.9281 68.4842L46.1441 65.4735C49.8603 63.3279 54.4431 63.3279 58.1593 65.4735L128.567 106.042C129.167 106.391 129.167 107.256 128.567 107.589L82.4563 134.169C81.9064 134.485 81.2231 134.485 80.6732 134.169V134.185Z" fill="#412B42"/>
<path d="M115.202 120.679L113.503 119.698C112.653 119.215 111.236 119.265 110.253 119.814L104.17 123.324C103.854 123.507 103.604 123.74 103.454 123.989C103.121 124.555 103.321 125.187 103.954 125.553L105.654 126.534C106.503 127.016 107.92 126.966 108.903 126.418L114.986 122.908C115.302 122.725 115.552 122.492 115.702 122.243C116.036 121.677 115.836 121.045 115.186 120.679H115.202Z" fill="#342135"/>
<path d="M115.202 121.311L113.503 120.33C112.653 119.848 111.236 119.898 110.253 120.446L104.171 123.956C103.854 124.139 103.604 124.372 103.454 124.621C103.404 124.705 103.387 124.788 103.371 124.888C103.471 125.154 103.671 125.387 103.971 125.57L105.67 126.551C106.52 127.033 107.937 126.983 108.92 126.434L115.003 122.925C115.319 122.742 115.569 122.509 115.719 122.26C115.769 122.176 115.786 122.093 115.802 121.993C115.702 121.727 115.502 121.494 115.202 121.311Z" fill="#412B42"/>
<path d="M32.4625 73.7069L24.9467 78.0316C24.5801 78.2478 24.5468 78.5638 24.8634 78.7468C25.18 78.9298 25.73 78.9131 26.0966 78.6969L33.6123 74.3723C33.9789 74.156 34.0123 73.84 33.6956 73.657C33.379 73.4741 32.8291 73.4907 32.4625 73.7069Z" fill="#191414"/>
<path d="M21.4806 102.915C21.414 102.732 21.314 102.549 21.1973 102.383C21.064 102.2 20.8974 102.05 20.7307 101.95L14.6148 98.424C14.3815 98.2909 14.1815 98.2743 14.0316 98.3575L13.4316 98.7068C13.5816 98.6236 13.7816 98.6402 14.0149 98.7567L20.1308 102.283C20.2975 102.383 20.4641 102.532 20.5974 102.715C20.7141 102.882 20.8141 103.065 20.8807 103.248C20.9307 103.397 20.964 103.564 20.964 103.713V103.98C20.964 104.246 20.8641 104.429 20.7141 104.528L21.314 104.179C21.464 104.096 21.564 103.896 21.564 103.647V103.381C21.564 103.231 21.5306 103.065 21.4806 102.915Z" fill="url(#paint1_linear_0_10000)"/>
<path d="M20.1308 102.299L14.0149 98.7731C13.5483 98.5069 13.1816 98.7232 13.1816 99.2554V99.5216C13.1816 100.054 13.5483 100.703 14.0149 100.952L20.1308 104.478C20.5807 104.744 20.964 104.528 20.964 103.996V103.73C20.964 103.198 20.5974 102.549 20.1308 102.299Z" fill="#8B3DCE"/>
<path d="M30.7961 108.288C30.7294 108.105 30.6294 107.922 30.5128 107.755C30.3795 107.572 30.2128 107.423 30.0462 107.323L23.9303 103.797C23.697 103.664 23.497 103.647 23.347 103.73L22.7471 104.079C22.8971 103.996 23.097 104.013 23.3303 104.129L29.4462 107.655C29.6129 107.755 29.7795 107.905 29.9129 108.088C30.0295 108.254 30.1295 108.437 30.1962 108.62C30.2461 108.77 30.2795 108.936 30.2795 109.086V109.352C30.2795 109.618 30.1795 109.801 30.0295 109.884L30.6294 109.535C30.7794 109.452 30.8794 109.252 30.8794 109.003V108.737C30.8794 108.587 30.8461 108.421 30.7961 108.271V108.288Z" fill="url(#paint2_linear_0_10000)"/>
<path d="M29.4462 107.672L23.3303 104.146C22.8637 103.879 22.4971 104.096 22.4971 104.628V104.894C22.4971 105.426 22.8637 106.075 23.3303 106.325L29.4462 109.851C29.8962 110.117 30.2794 109.901 30.2794 109.368V109.102C30.2794 108.57 29.9128 107.921 29.4462 107.672Z" fill="#8B3DCE"/>
<path d="M22.0637 81.1089C21.6471 81.3418 20.9805 81.3418 20.5639 81.1089C20.1473 80.876 20.1473 80.4769 20.5639 80.244C20.9805 80.0111 21.6471 80.0111 22.0637 80.244C22.4804 80.4769 22.4804 80.876 22.0637 81.1089Z" fill="#191414"/>
<path opacity="0.1" d="M20.7806 81.0089C21.0972 81.1752 21.5972 81.1586 21.8971 80.9756C22.1971 80.7927 22.1971 80.5099 21.8805 80.3269C21.5638 80.1606 21.0639 80.1772 20.7639 80.3602C20.464 80.5432 20.464 80.8259 20.7806 81.0089Z" fill="#CFD5D5"/>
<path opacity="0.1" d="M21.0141 80.8258C21.1808 80.9256 21.4474 80.9089 21.6141 80.8258C21.7807 80.726 21.7807 80.5763 21.6141 80.4765C21.4474 80.3767 21.1808 80.3933 21.0141 80.4765C20.8475 80.5763 20.8475 80.726 21.0141 80.8258Z" fill="#CFD5D5"/>
<g style="mix-blend-mode:screen" opacity="0.2">
<path d="M21.1973 80.7093C21.1973 80.7093 21.3639 80.7425 21.4139 80.7093C21.4806 80.676 21.4806 80.6095 21.4139 80.5762C21.3473 80.543 21.2473 80.543 21.1973 80.5762C21.1473 80.6095 21.1306 80.676 21.1973 80.7093Z" fill="#CFD5D5"/>
</g>
<path d="M114.986 127.449L110.653 129.944C110.153 130.227 109.736 130.06 109.736 129.561C109.736 129.062 110.153 128.414 110.653 128.114L114.986 125.619C115.486 125.337 115.902 125.503 115.902 126.002C115.902 126.501 115.486 127.15 114.986 127.449Z" fill="#342135"/>
<mask id="mask0_0_10000" style="mask-type:luminance" maskUnits="userSpaceOnUse" x="109" y="125" width="7" height="6">
<path d="M114.986 127.449L110.653 129.944C110.153 130.227 109.736 130.06 109.736 129.561C109.736 129.062 110.153 128.414 110.653 128.114L114.986 125.619C115.486 125.337 115.902 125.503 115.902 126.002C115.902 126.501 115.486 127.15 114.986 127.449Z" fill="white"/>
</mask>
<g mask="url(#mask0_0_10000)">
<path d="M109.003 128.131L108.403 128.48L110.536 129.711L111.136 129.362L109.003 128.131ZM110.32 127.366L109.72 127.715L111.853 128.946L112.453 128.597L110.32 127.366ZM111.653 126.601L111.053 126.95L113.186 128.181L113.786 127.831L111.653 126.601ZM112.986 125.835L112.386 126.185L114.519 127.416L115.119 127.066L112.986 125.835Z" fill="#98782E"/>
</g>
<g opacity="0.4">
<g style="mix-blend-mode:screen">
<path d="M125.668 98.1412L56.593 58.3379L11.4985 84.319L80.5733 124.122C81.1566 124.455 82.0898 124.455 82.6564 124.122L125.668 99.3388C126.251 99.0062 126.251 98.4739 125.668 98.1412Z" fill="#7B38D4"/>
</g>
<path d="M57.8928 59.0697L12.7984 85.0508L7.99897 82.2897C7.41571 81.957 7.41571 81.4248 7.99897 81.0921L51.0103 56.3086C51.5936 55.9759 52.5268 55.9759 53.0934 56.3086L57.8928 59.0697Z" fill="#8821D8"/>
</g>
<g opacity="0.7">
<g style="mix-blend-mode:screen">
<path d="M125.668 89.2091L56.593 49.4058L11.4985 75.3869L80.5733 115.19C81.1566 115.523 82.0898 115.523 82.6564 115.19L125.668 90.4067C126.251 90.074 126.251 89.5418 125.668 89.2091Z" fill="#7B38D4"/>
</g>
<path d="M57.8928 50.1376L12.7984 76.1187L7.99897 73.3576C7.41571 73.0249 7.41571 72.4926 7.99897 72.16L51.0103 47.3765C51.5936 47.0438 52.5268 47.0438 53.0934 47.3765L57.8928 50.1376Z" fill="#8821D8"/>
</g>
<g style="mix-blend-mode:screen">
<path d="M125.668 80.277L56.593 40.4736L11.4985 66.4548L80.5733 106.258C81.1566 106.591 82.0898 106.591 82.6564 106.258L125.668 81.4746C126.251 81.1419 126.251 80.6097 125.668 80.277Z" fill="#7B38D4"/>
</g>
<path d="M57.8928 41.2054L12.7984 67.1866L7.99897 64.4254C7.41571 64.0928 7.41571 63.5605 7.99897 63.2279L51.0103 38.4443C51.5936 38.1117 52.5268 38.1117 53.0934 38.4443L57.8928 41.2054Z" fill="#8821D8"/>
<path d="M46.561 46.3951L42.9448 48.4742L39.3452 46.3951L42.9448 44.3159L46.561 46.3951Z" fill="#6811BC"/>
<path d="M51.044 43.8169L47.4277 45.8961L43.8115 43.8169L47.4277 41.7378L51.044 43.8169Z" fill="#6811BC"/>
<path d="M44.9614 43.8171L47.4278 45.2476L49.8942 43.8171L47.4278 42.4033L44.9614 43.8171ZM49.0443 43.8171L47.4278 44.7486L45.8113 43.8171L47.4278 42.8857L49.0443 43.8171Z" fill="#F6C2FF"/>
<path d="M55.5097 41.2388L51.9102 43.318L48.2939 41.2388L51.9102 39.1597L55.5097 41.2388Z" fill="#6811BC"/>
<path d="M49.7773 41.4051H51.7104V42.5196H52.327V41.4051H54.2601V41.0558H52.327V39.9414H51.7104V41.0558H49.7773V41.4051Z" fill="#F6C2FF"/>
<path d="M45.361 46.4282L43.0613 47.7589L42.6113 47.5094L44.9277 46.1787L45.361 46.4282Z" fill="#F6C2FF"/>
<path opacity="0.3" d="M122.918 80.7592L81.54 104.595L16.6313 67.1865L57.9929 43.3511L122.918 80.7592Z" fill="#FFBBFA"/>
<g style="mix-blend-mode:overlay" opacity="0.5">
<path d="M122.918 80.7592L81.54 104.595L16.6313 67.1865L57.9929 43.3511L122.918 80.7592Z" fill="#FFBBFA"/>
</g>
<path d="M60.9425 45.0477L19.5643 68.8831L16.6313 67.1865L57.9929 43.3511L60.9425 45.0477Z" fill="#DE78FF"/>
<path d="M77.374 102.2L81.5402 104.595L122.918 80.7595L118.752 78.3477L77.374 102.2Z" fill="#DE78FF"/>
<path d="M59.176 52.4659L63.4254 50.0042L63.3755 42.4028L59.126 44.8646L59.176 52.4659Z" fill="#FFBBFA"/>
<g style="mix-blend-mode:screen">
<path d="M59.1261 44.8646L63.3756 42.4029L58.4262 39.542L54.1768 42.0037L59.1261 44.8646Z" fill="#FFBBFA"/>
</g>
<path d="M54.1768 42.0034L54.2268 49.6214L59.1761 52.4657L59.1261 44.8643L54.1768 42.0034Z" fill="#DE78FF"/>
<path d="M64.9254 55.7762L69.1749 53.3145L69.1416 41.771L64.8921 44.2327L64.9254 55.7762Z" fill="#FFBBFA"/>
<g style="mix-blend-mode:screen">
<path d="M64.8923 44.2323L69.1417 41.7706L64.1923 38.9263L59.9429 41.388L64.8923 44.2323Z" fill="#FFBBFA"/>
</g>
<path d="M59.9429 41.3882L59.9762 52.9317L64.9256 55.7759L64.8923 44.2325L59.9429 41.3882Z" fill="#DE78FF"/>
<path d="M70.6749 59.1027L74.9243 56.6244L74.9077 37.9785L70.6582 40.4402L70.6749 59.1027Z" fill="#FFBBFA"/>
<g style="mix-blend-mode:screen">
<path d="M70.6579 40.4403L74.9074 37.9786L69.958 35.1177L65.7085 37.5794L70.6579 40.4403Z" fill="#FFE1FE"/>
</g>
<path d="M65.7085 37.5791L65.7252 56.2416L70.6745 59.1025L70.6579 40.44L65.7085 37.5791Z" fill="#DE78FF"/>
<path d="M76.4238 62.4126L80.6566 59.9508L80.69 25.7695L76.4572 28.2313L76.4238 62.4126Z" fill="#FFBBFA"/>
<g style="mix-blend-mode:screen">
<path d="M76.4572 28.2313L80.69 25.7696L75.7406 22.9087L71.5078 25.387L76.4572 28.2313Z" fill="#FFE1FE"/>
</g>
<path d="M71.5079 25.3872L71.4746 59.5519L76.424 62.4128L76.4573 28.2315L71.5079 25.3872Z" fill="#DE78FF"/>
<path d="M82.1567 65.7227L86.4062 63.2609L86.4229 35.4668L82.1734 37.9285L82.1567 65.7227Z" fill="#FFBBFA"/>
<g style="mix-blend-mode:screen">
<path d="M82.1735 37.9286L86.423 35.4668L81.4736 32.6226L77.2241 35.0843L82.1735 37.9286Z" fill="#FFBBFA"/>
</g>
<path d="M77.2237 35.084L77.207 62.8615L82.1564 65.7224L82.1731 37.9283L77.2237 35.084Z" fill="#DE78FF"/>
<path d="M87.9224 69.0326L92.0886 66.5709L92.1552 46.2617L87.9058 48.7234L87.9224 69.0326Z" fill="#FFBBFA"/>
<g style="mix-blend-mode:screen">
<path d="M87.206 43.4175L82.9565 45.8792L87.9059 48.7235L92.1554 46.2618L87.206 43.4175Z" fill="#FFBBFA"/>
</g>
<path d="M82.9565 45.8794V66.172L87.9226 69.0329L87.9059 48.7237L82.9565 45.8794Z" fill="#DE78FF"/>
<path d="M93.6553 72.3428L97.9048 69.8811L97.8882 54.3955L93.6387 56.8572L93.6553 72.3428Z" fill="#FFBBFA"/>
<g style="mix-blend-mode:screen">
<path d="M93.6383 56.8573L97.8878 54.3956L92.9384 51.5347L88.689 53.9964L93.6383 56.8573Z" fill="#FFBBFA"/>
</g>
<path d="M88.689 53.9961L88.7056 69.4983L93.655 72.3426L93.6383 56.857L88.689 53.9961Z" fill="#DE78FF"/>
<path d="M99.4044 75.6525L103.654 73.1907L103.604 65.5894L99.3711 68.0511L99.4044 75.6525Z" fill="#FFBBFA"/>
<g style="mix-blend-mode:screen">
<path d="M99.3713 68.0511L103.604 65.5894L98.6547 62.7285L94.4219 65.1902L99.3713 68.0511Z" fill="#FFBBFA"/>
</g>
<path d="M94.4219 65.1904L94.4552 72.8085L99.4046 75.6527L99.3713 68.0513L94.4219 65.1904Z" fill="#DE78FF"/>
<path d="M105.154 78.9627L109.403 76.501L109.37 64.9575L105.121 67.4359L105.154 78.9627Z" fill="#FFBBFA"/>
<g style="mix-blend-mode:screen">
<path d="M105.12 67.4359L109.37 64.9576L104.42 62.1133L100.171 64.575L105.12 67.4359Z" fill="#FFBBFA"/>
</g>
<path d="M100.171 64.5752L100.204 76.1187L105.154 78.9629L105.12 67.4361L100.171 64.5752Z" fill="#DE78FF"/>
<path d="M110.903 82.2729L115.152 79.8112L115.136 64.0928L110.886 66.5545L110.903 82.2729Z" fill="#FFBBFA"/>
<g style="mix-blend-mode:screen">
<path d="M110.886 66.5545L115.136 64.0928L110.17 61.2485L105.937 63.7103L110.886 66.5545Z" fill="#FFBBFA"/>
</g>
<path d="M105.937 63.71L105.954 79.4284L110.903 82.2727L110.886 66.5542L105.937 63.71Z" fill="#DE78FF"/>
<path d="M39.2953 75.2372L38.3954 75.7529L27.3301 69.3823L28.23 68.8667L39.2953 75.2372Z" fill="#FFBBFA"/>
<path d="M40.2618 74.6881L39.2953 75.237L29.3965 69.5318L30.363 68.9663L40.2618 74.6881Z" fill="#C858F0"/>
<path d="M42.8946 73.1575L41.9947 73.6898L31.5127 67.6353L32.4126 67.1196L42.8946 73.1575Z" fill="#FFBBFA"/>
<path d="M43.8612 72.6087L42.8946 73.1576L31.5127 66.6041L32.4792 66.0386L43.8612 72.6087Z" fill="#C858F0"/>
<path d="M46.5112 71.0788L45.6113 71.5945L31.1631 63.2778L32.063 62.7622L46.5112 71.0788Z" fill="#FFBBFA"/>
<path d="M47.4775 70.5133L46.5109 71.0788L39.7451 67.17L40.7117 66.6211L47.4775 70.5133Z" fill="#C858F0"/>
<path d="M50.1272 68.9997L49.2106 69.5153L37.0288 62.4961L37.9287 61.9805L50.1272 68.9997Z" fill="#FFBBFA"/>
<path d="M51.0938 68.4507L50.1272 68.9996L38.9619 62.5626L39.9285 62.0137L51.0938 68.4507Z" fill="#C858F0"/>
<path d="M60.9591 62.7622L60.0426 63.2778L47.6274 56.1255L48.5273 55.5933L60.9591 62.7622Z" fill="#FFBBFA"/>
<path d="M61.9258 62.1965L60.9593 62.7621L53.1436 58.2545L54.1101 57.7056L61.9258 62.1965Z" fill="#C858F0"/>
<path d="M64.5589 60.6829L63.659 61.1985L53.627 55.4102L54.5268 54.8945L64.5589 60.6829Z" fill="#FFBBFA"/>
<path d="M65.5255 60.1176L64.5589 60.6831L56.21 55.8594L57.1765 55.3105L65.5255 60.1176Z" fill="#C858F0"/>
<path d="M53.7265 66.9208L52.8266 67.4364L48.4604 64.9248L49.3603 64.4092L53.7265 66.9208Z" fill="#FFBBFA"/>
<path d="M54.6932 66.3717L53.7267 66.9206L46.0776 62.5128L47.0442 61.9473L54.6932 66.3717Z" fill="#C858F0"/>
<path d="M57.3432 64.8412L56.4433 65.3568L52.0771 62.8452L52.977 62.3296L57.3432 64.8412Z" fill="#FFBBFA"/>
<path d="M58.3096 64.2925L57.343 64.8414L54.1768 63.0284L55.1433 62.4629L58.3096 64.2925Z" fill="#C858F0"/>
<path d="M67.5085 59.8515L37.6789 77.0336L36.8623 76.5679L66.692 59.3857L67.5085 59.8515Z" fill="#8821D8"/>
<path d="M52.2769 81.2917C50.2105 82.4893 46.8442 82.4893 44.7778 81.2917C42.7114 80.0941 42.7114 78.1646 44.7778 76.967C46.8442 75.7694 50.2105 75.7694 52.2769 76.967C54.3433 78.1646 54.3433 80.0941 52.2769 81.2917Z" fill="#C858F0"/>
<path d="M51.7769 77.2666C53.56 78.2979 53.56 79.9778 51.7769 81.0091C49.9938 82.0404 47.0775 82.0404 45.2944 81.0091C43.5113 79.9778 43.5113 78.2979 45.2944 77.2666C47.0775 76.2353 49.9938 76.2353 51.7769 77.2666Z" fill="#8821D8"/>
<path d="M45.2944 77.2666L48.5607 79.1462V76.4849C47.3775 76.4849 46.1943 76.7344 45.2944 77.25V77.2666Z" fill="#FFBBFA"/>
<path d="M63.3589 74.9045C61.2925 76.1021 57.9263 76.1021 55.8599 74.9045C53.7935 73.7069 53.7935 71.7774 55.8599 70.5798C57.9263 69.3822 61.2925 69.3822 63.3589 70.5798C65.4254 71.7774 65.4254 73.7069 63.3589 74.9045Z" fill="#C858F0"/>
<path d="M62.8589 70.8794C64.642 71.9107 64.642 73.5906 62.8589 74.6219C61.0758 75.6531 58.1595 75.6531 56.3764 74.6219C54.5933 73.5906 54.5933 71.9107 56.3764 70.8794C58.1595 69.8481 61.0758 69.8481 62.8589 70.8794Z" fill="#8821D8"/>
<path d="M62.859 70.8794C61.9758 70.3638 60.8092 70.1143 59.6427 70.1143C58.4595 70.1143 57.2764 70.3638 56.3765 70.8794L59.6427 72.7589H64.2088C64.2088 72.077 63.7756 71.4117 62.8923 70.896C62.8923 70.896 62.8923 70.896 62.8757 70.896L62.859 70.8794Z" fill="#FFBBFA"/>
<path d="M74.2574 68.6335C72.191 69.8311 68.8247 69.8311 66.7583 68.6335C64.6919 67.4359 64.6919 65.5064 66.7583 64.3088C68.8247 63.1112 72.191 63.1112 74.2574 64.3088C76.3238 65.5064 76.3238 67.4359 74.2574 68.6335Z" fill="#C858F0"/>
<path d="M73.7408 64.6084C75.5239 65.6397 75.5239 67.3196 73.7408 68.3509C71.9577 69.3821 69.0413 69.3821 67.2582 68.3509C65.4751 67.3196 65.4751 65.6397 67.2582 64.6084C69.0413 63.5771 71.9577 63.5771 73.7408 64.6084Z" fill="#8821D8"/>
<path d="M67.2583 64.6084L73.7408 68.3509C75.5239 67.3196 75.5239 65.6397 73.7408 64.6084C71.9577 63.5771 69.0414 63.5771 67.2583 64.6084Z" fill="#FFBBFA"/>
<path d="M57.343 83.1045C57.9596 83.4705 57.9596 84.0526 57.343 84.4019C56.7264 84.7678 55.7099 84.7678 55.0933 84.4019C54.4767 84.036 54.4767 83.4538 55.0933 83.1045C55.7099 82.7386 56.7264 82.7386 57.343 83.1045Z" fill="#C858F0"/>
<path d="M62.8255 86.2647C63.442 86.6306 63.442 87.2128 62.8255 87.5621C62.2089 87.928 61.1923 87.928 60.5757 87.5621C59.9591 87.1961 59.9591 86.614 60.5757 86.2647C61.1923 85.8988 62.2089 85.8988 62.8255 86.2647Z" fill="#C858F0"/>
<path d="M68.2415 89.375C68.8581 89.741 68.8581 90.3231 68.2415 90.6724C67.6249 91.0384 66.6083 91.0384 65.9917 90.6724C65.3751 90.3065 65.3751 89.7243 65.9917 89.375C66.6083 89.0091 67.6249 89.0091 68.2415 89.375Z" fill="#C858F0"/>
<path d="M73.6912 92.5191C74.3078 92.885 74.3078 93.4672 73.6912 93.8165C73.0746 94.1824 72.058 94.1824 71.4414 93.8165C70.8249 93.4505 70.8249 92.8684 71.4414 92.5191C72.058 92.1531 73.0746 92.1531 73.6912 92.5191Z" fill="#C858F0"/>
<path d="M79.1072 95.646C79.7238 96.012 79.7238 96.5941 79.1072 96.9434C78.4906 97.3094 77.4741 97.3094 76.8575 96.9434C76.2409 96.5775 76.2409 95.9953 76.8575 95.646C77.4741 95.2801 78.4906 95.2801 79.1072 95.646Z" fill="#C858F0"/>
<path d="M72.0745 75.9855L76.224 73.5903L75.8074 73.3408L71.6579 75.736L72.0745 75.9855ZM71.4912 76.3182L71.0746 76.0687L60.7092 82.04L61.1259 82.2895L71.4912 76.3182ZM59.5094 81.2915L62.9256 79.3122L62.509 79.0627L59.0928 81.042L59.5094 81.2915ZM78.0738 70.5963L81.34 68.7168L80.9234 68.4673L77.6571 70.3468L78.0738 70.5963ZM73.4243 73.2577L77.4905 70.9124L77.0739 70.6629L73.0077 73.0082L73.4243 73.2577ZM63.4922 78.9961L72.8577 73.607L72.4411 73.3575L63.0756 78.7466L63.4922 78.9961Z" fill="#DE78FF"/>
<path d="M82.5564 73.4737L82.973 73.7232L86.156 71.8935L85.7394 71.644L82.5564 73.4737ZM82.4064 74.0559L81.9898 73.8064L75.1907 77.7318L75.6073 77.9813L82.4064 74.0559ZM82.4898 75.4364L82.9064 75.6859L86.106 73.8396L85.6894 73.5901L82.4898 75.4364ZM74.1408 80.7424L73.7242 80.4929L65.8751 85.0172L66.2918 85.2667L74.1408 80.7424ZM75.024 78.2973L74.6074 78.0478L64.1587 84.0691L64.5753 84.3186L75.024 78.2973ZM82.3398 76.0186L81.9232 75.7691L74.2908 80.1769L74.7074 80.4264L82.3398 76.0186Z" fill="#DE78FF"/>
<path d="M85.673 78.1314L86.0897 78.3809L90.1558 76.0356L89.7392 75.7861L85.673 78.1314ZM84.3899 81.2917L83.9733 81.0422L79.0405 83.8865L79.4572 84.136L84.3899 81.2917ZM75.591 84.4354L75.1743 84.1859L69.875 87.2298L70.2916 87.4793L75.591 84.4354ZM85.0898 78.4641L75.7243 83.8533L76.1409 84.1028L85.5064 78.7136L85.0898 78.4641ZM78.8739 84.4687L78.4573 84.2192L71.5248 88.2112L71.9414 88.4607L78.8739 84.4687Z" fill="#DE78FF"/>
<path d="M88.2894 85.3333L92.3556 82.988L91.939 82.7385L87.8728 85.0838L88.2894 85.3333ZM87.7062 85.666L87.2895 85.4165L76.9241 91.3878L77.3408 91.6373L87.7062 85.666ZM75.7076 90.6393L79.1239 88.66L78.7073 88.4105L75.291 90.3898L75.7076 90.6393ZM89.6392 82.6055L95.4385 79.2622L95.0219 79.0127L89.2226 82.356L89.6392 82.6055ZM79.7071 88.3273L89.0726 82.9381L88.656 82.6886L79.2905 88.0778L79.7071 88.3273Z" fill="#DE78FF"/>
<path d="M96.9383 84.1523L92.4722 86.7139L92.9054 86.9634L97.3549 84.4018L96.9383 84.1523Z" fill="#DE78FF"/>
<path d="M92.3221 87.2959L91.9055 87.0464L80.6235 93.55L81.0568 93.7995L92.3221 87.2959Z" fill="#DE78FF"/>
<path d="M88.1227 91.6543L87.6894 91.4214L82.4067 94.4653L82.8234 94.7148L88.1227 91.6543Z" fill="#DE78FF"/>
<path d="M91.9387 88.9761L88.2725 91.0885L88.6891 91.3214L92.3553 89.2089L91.9387 88.9761Z" fill="#DE78FF"/>
<path style="mix-blend-mode:screen" d="M100.725 31.4775C103.878 18.0622 95.5375 4.63607 82.0968 1.48953C68.6562 -1.65702 55.2048 6.66751 52.0523 20.0829C48.8998 33.4982 57.24 46.9243 70.6807 50.0709C84.1214 53.2174 97.5728 44.8929 100.725 31.4775Z" fill="url(#paint3_radial_0_10000)"/>
<path style="mix-blend-mode:screen" d="M111.899 52.1006C115.051 38.6852 106.711 25.2591 93.2702 22.1126C79.8295 18.966 66.3781 27.2906 63.2256 40.7059C60.0732 54.1213 68.4134 67.5474 81.854 70.6939C95.2947 73.8405 108.746 65.5159 111.899 52.1006Z" fill="url(#paint4_radial_0_10000)"/>
<path style="mix-blend-mode:screen" d="M98.6879 96.3447C115.779 96.3447 129.634 82.5157 129.634 65.4568C129.634 48.3978 115.779 34.5688 98.6879 34.5688C81.5968 34.5688 67.7417 48.3978 67.7417 65.4568C67.7417 82.5157 81.5968 96.3447 98.6879 96.3447Z" fill="url(#paint5_radial_0_10000)"/>
<path style="mix-blend-mode:screen" d="M70.9746 42.8021C83.4064 49.971 83.4064 61.581 70.9746 68.7333C58.5428 75.9023 38.3953 75.9023 25.9635 68.7333C13.5317 61.5644 13.5317 49.9544 25.9635 42.8021C38.3953 35.6498 58.5428 35.6332 70.9746 42.8021Z" fill="url(#paint6_radial_0_10000)"/>
<path style="mix-blend-mode:screen" d="M54.3267 50.0212C66.7585 57.1902 66.7585 68.8002 54.3267 75.9525C41.8949 83.1047 21.7473 83.1214 9.31555 75.9525C-3.11625 68.7835 -3.11625 57.1735 9.31555 50.0212C21.7473 42.8523 41.8949 42.8523 54.3267 50.0212Z" fill="url(#paint7_radial_0_10000)"/>
</g>
<defs>
<linearGradient id="paint0_linear_0_10000" x1="82.4065" y1="115.573" x2="94.5383" y2="115.573" gradientUnits="userSpaceOnUse">
<stop stop-color="#8B3DCE"/>
<stop offset="1" stop-color="#CB89F0"/>
</linearGradient>
<linearGradient id="paint1_linear_0_10000" x1="15.548" y1="97.4925" x2="19.8852" y2="105.018" gradientUnits="userSpaceOnUse">
<stop offset="0.62" stop-color="#FFBFFF"/>
<stop offset="0.86" stop-color="#E09CFF"/>
<stop offset="1" stop-color="#CB89F0"/>
</linearGradient>
<linearGradient id="paint2_linear_0_10000" x1="24.8801" y1="102.865" x2="29.2007" y2="110.39" gradientUnits="userSpaceOnUse">
<stop offset="0.62" stop-color="#FFBFFF"/>
<stop offset="0.86" stop-color="#E09CFF"/>
<stop offset="1" stop-color="#CB89F0"/>
</linearGradient>
<radialGradient id="paint3_radial_0_10000" cx="0" cy="0" r="1" gradientUnits="userSpaceOnUse" gradientTransform="translate(76.3803 25.7754) scale(24.9969 24.9499)">
<stop stop-color="#FF3DD5"/>
<stop offset="0.04" stop-color="#DB34B7"/>
<stop offset="0.1" stop-color="#AD2991"/>
<stop offset="0.16" stop-color="#841F6E"/>
<stop offset="0.23" stop-color="#601750"/>
<stop offset="0.31" stop-color="#420F37"/>
<stop offset="0.39" stop-color="#290A23"/>
<stop offset="0.48" stop-color="#170513"/>
<stop offset="0.59" stop-color="#090208"/>
<stop offset="0.73" stop-color="#020001"/>
<stop offset="1"/>
</radialGradient>
<radialGradient id="paint4_radial_0_10000" cx="0" cy="0" r="1" gradientUnits="userSpaceOnUse" gradientTransform="translate(87.5605 46.4003) scale(0.83323 0.831662)">
<stop stop-color="#FF3DD5"/>
<stop offset="0.04" stop-color="#DB34B7"/>
<stop offset="0.1" stop-color="#AD2991"/>
<stop offset="0.16" stop-color="#841F6E"/>
<stop offset="0.23" stop-color="#601750"/>
<stop offset="0.31" stop-color="#420F37"/>
<stop offset="0.39" stop-color="#290A23"/>
<stop offset="0.48" stop-color="#170513"/>
<stop offset="0.59" stop-color="#090208"/>
<stop offset="0.73" stop-color="#020001"/>
<stop offset="1"/>
</radialGradient>
<radialGradient id="paint5_radial_0_10000" cx="0" cy="0" r="1" gradientUnits="userSpaceOnUse" gradientTransform="translate(98.6879 65.4568) scale(30.9462 30.8879)">
<stop stop-color="#FF3DD5"/>
<stop offset="0.04" stop-color="#DB34B7"/>
<stop offset="0.1" stop-color="#AD2991"/>
<stop offset="0.16" stop-color="#841F6E"/>
<stop offset="0.23" stop-color="#601750"/>
<stop offset="0.31" stop-color="#420F37"/>
<stop offset="0.39" stop-color="#290A23"/>
<stop offset="0.48" stop-color="#170513"/>
<stop offset="0.59" stop-color="#090208"/>
<stop offset="0.73" stop-color="#020001"/>
<stop offset="1"/>
</radialGradient>
<radialGradient id="paint6_radial_0_10000" cx="0" cy="0" r="1" gradientTransform="matrix(22.4056 -12.9116 11.2486 19.4465 -22.0707 96.4307)" gradientUnits="userSpaceOnUse">
<stop stop-color="#FFEC3D"/>
<stop offset="0.03" stop-color="#F8C26B"/>
<stop offset="0.07" stop-color="#F1939F"/>
<stop offset="0.1" stop-color="#EC6DC8"/>
<stop offset="0.14" stop-color="#E853E6"/>
<stop offset="0.16" stop-color="#E542F8"/>
<stop offset="0.18" stop-color="#E53DFF"/>
<stop offset="0.22" stop-color="#C033D6"/>
<stop offset="0.26" stop-color="#9828A9"/>
<stop offset="0.31" stop-color="#731E80"/>
<stop offset="0.37" stop-color="#54165D"/>
<stop offset="0.42" stop-color="#3A0F40"/>
<stop offset="0.49" stop-color="#240928"/>
<stop offset="0.56" stop-color="#140516"/>
<stop offset="0.65" stop-color="#080209"/>
<stop offset="0.76" stop-color="#010002"/>
<stop offset="1"/>
</radialGradient>
<radialGradient id="paint7_radial_0_10000" cx="0" cy="0" r="1" gradientTransform="matrix(22.4056 -12.9116 11.2486 19.4465 -37.6095 103.004)" gradientUnits="userSpaceOnUse">
<stop stop-color="#FFEC3D"/>
<stop offset="0.03" stop-color="#F8C26B"/>
<stop offset="0.07" stop-color="#F1939F"/>
<stop offset="0.1" stop-color="#EC6DC8"/>
<stop offset="0.14" stop-color="#E853E6"/>
<stop offset="0.16" stop-color="#E542F8"/>
<stop offset="0.18" stop-color="#E53DFF"/>
<stop offset="0.22" stop-color="#C033D6"/>
<stop offset="0.26" stop-color="#9828A9"/>
<stop offset="0.31" stop-color="#731E80"/>
<stop offset="0.37" stop-color="#54165D"/>
<stop offset="0.42" stop-color="#3A0F40"/>
<stop offset="0.49" stop-color="#240928"/>
<stop offset="0.56" stop-color="#140516"/>
<stop offset="0.65" stop-color="#080209"/>
<stop offset="0.76" stop-color="#010002"/>
<stop offset="1"/>
</radialGradient>
<clipPath id="clip0_0_10000">
<rect width="135" height="141" fill="white" transform="translate(0 0.819824)"/>
</clipPath>
</defs>
</svg>
