<svg width="178" height="171" viewBox="0 0 178 171" fill="none" xmlns="http://www.w3.org/2000/svg">
<g clip-path="url(#clip0_87_6029)">
<g style="mix-blend-mode:multiply" opacity="0.7">
<path d="M163.253 129.495L76.7951 79.4049C75.6185 78.7153 74.0891 78.3789 72.5596 78.3789H67.0299C65.5004 78.3789 63.9877 78.7321 62.8112 79.4049L2.2201 114.306C-0.149764 115.669 -0.149764 117.872 2.18648 119.252L88.6444 169.342C89.7537 169.981 91.1655 170.317 92.6278 170.368C92.7118 170.368 98.2919 170.368 98.3759 170.368C99.9222 170.368 101.469 170.031 102.645 169.342L163.219 134.423C165.589 133.061 165.589 130.857 163.253 129.478V129.495Z" fill="#50197C"/>
</g>
<path d="M5.90066 115.517L96.2243 167.929L160.496 130.79C162.143 129.831 165.135 128.62 163.488 127.678L73.7358 75.7886C73.0803 75.4017 68.4583 75.5363 67.8028 75.9232L5.21155 112.12C3.91737 113.398 5.06028 115.047 5.90066 115.534V115.517Z" fill="#2F0C3A"/>
<path d="M165.304 129.831C165.304 130.74 164.715 131.631 163.522 132.321L102.948 167.239C100.578 168.601 96.7626 168.601 94.4263 167.239L5.9179 115.955C4.75819 115.282 4.16992 114.39 4.16992 113.499V115.585C4.16992 116.476 4.75819 117.368 5.9179 118.04L94.4263 169.308C96.7626 170.67 100.595 170.67 102.948 169.308L163.522 134.389C164.715 133.7 165.304 132.808 165.304 131.9V129.814V129.831Z" fill="url(#paint0_linear_87_6029)"/>
<path d="M18.6912 124.398L11.9513 120.496C11.632 120.311 11.3799 120.462 11.3799 120.832V121.017C11.3799 121.387 11.632 121.825 11.9513 122.01L18.6912 125.912C19.0105 126.097 19.2626 125.946 19.2626 125.576V125.391C19.2626 125.021 19.0105 124.566 18.6912 124.398Z" fill="#8B3DCE"/>
<path d="M19.6321 124.836C19.5816 124.701 19.5144 124.583 19.4472 124.466C19.3463 124.331 19.2455 124.23 19.1278 124.163L12.388 120.261C12.2368 120.177 12.0855 120.16 11.9846 120.227L11.5645 120.463C11.6653 120.395 11.8166 120.412 11.9678 120.496L18.7076 124.398C18.8253 124.466 18.943 124.583 19.027 124.701C19.111 124.819 19.1783 124.937 19.2119 125.071C19.2455 125.172 19.2623 125.29 19.2623 125.391V125.576C19.2623 125.761 19.1951 125.895 19.0942 125.946L19.5144 125.71C19.6153 125.643 19.6825 125.525 19.6825 125.34V125.155C19.6825 125.054 19.6657 124.937 19.6321 124.836Z" fill="url(#paint1_linear_87_6029)"/>
<path d="M26.406 128.721C26.3556 128.587 26.2883 128.469 26.2211 128.351C26.1203 128.217 26.0194 128.116 25.9018 128.048L22.7083 126.198C22.5571 126.114 22.4058 126.097 22.305 126.165L21.8848 126.4C21.9856 126.333 22.1369 126.35 22.2881 126.434L25.4816 128.284C25.5992 128.351 25.7169 128.469 25.8009 128.587C25.885 128.704 25.9522 128.822 25.9858 128.957C26.0194 129.074 26.0362 129.175 26.0362 129.276V129.461C26.0362 129.646 25.969 129.781 25.8681 129.831L26.2883 129.596C26.3892 129.529 26.4564 129.411 26.4564 129.226V129.041C26.4564 128.94 26.4396 128.822 26.406 128.721Z" fill="url(#paint2_linear_87_6029)"/>
<path d="M25.4641 128.284L22.2707 126.433C21.9513 126.248 21.6992 126.4 21.6992 126.77V126.955C21.6992 127.325 21.9513 127.779 22.2707 127.947L25.4641 129.797C25.7834 129.982 26.0356 129.831 26.0356 129.461V129.276C26.0356 128.906 25.7834 128.452 25.4641 128.284Z" fill="#8B3DCE"/>
<path d="M163.556 127.376L75.0473 76.1082C72.711 74.7458 68.8789 74.7458 66.5258 76.1082L5.95154 111.027C3.58168 112.389 3.58168 114.592 5.91793 115.972L94.4263 167.239C96.7626 168.602 100.595 168.602 102.948 167.239L163.522 132.321C165.892 130.958 165.892 128.755 163.556 127.376ZM160.967 127.695L95.0986 165.658C94.6112 165.944 93.9893 165.944 93.5019 165.658L5.88431 114.929C4.79182 114.29 4.79182 112.725 5.88431 112.086L26.087 100.43L29.1291 100.716L51.0797 88.0336L50.5923 86.3012L66.7611 76.9829C69.2823 75.5195 72.3917 75.5364 74.9296 76.9829L160.967 126.804C161.303 127.006 161.303 127.477 160.967 127.678V127.695Z" fill="#412B42"/>
<path d="M134.529 146.718L133.386 146.063C132.815 145.726 131.857 145.76 131.218 146.147L127.151 148.501C126.932 148.619 126.764 148.787 126.663 148.956C126.445 149.342 126.579 149.763 126.999 149.998L128.142 150.654C128.714 150.991 129.672 150.957 130.31 150.57L134.378 148.215C134.596 148.098 134.764 147.93 134.865 147.761C135.084 147.374 134.949 146.954 134.529 146.718Z" fill="#342135"/>
<path d="M134.529 147.106L133.386 146.45C132.814 146.113 131.856 146.147 131.218 146.534L127.15 148.889C126.932 149.006 126.764 149.175 126.663 149.343C126.629 149.41 126.613 149.477 126.596 149.545C126.663 149.73 126.797 149.898 126.999 150.016L128.142 150.672C128.713 151.008 129.671 150.974 130.31 150.587L134.378 148.233C134.596 148.115 134.764 147.947 134.865 147.778C134.899 147.711 134.915 147.644 134.932 147.577C134.865 147.392 134.731 147.223 134.529 147.106Z" fill="#412B42"/>
<path d="M39.836 93.6348C39.4662 93.8534 38.8779 93.8534 38.525 93.6348C38.1552 93.4161 38.172 93.0797 38.525 92.8779C38.8947 92.6592 39.483 92.6592 39.836 92.8779C40.2057 93.0965 40.1889 93.4329 39.836 93.6348Z" fill="#191414"/>
<path opacity="0.1" d="M38.7103 93.5508C38.9792 93.7022 39.4162 93.6854 39.6851 93.5172C39.954 93.349 39.9372 93.0967 39.6683 92.9453C39.3994 92.7939 38.9624 92.8108 38.6935 92.9621C38.4246 93.1135 38.4414 93.3826 38.7103 93.534V93.5508Z" fill="#D0D6D6"/>
<path opacity="0.1" d="M38.9119 93.3993C39.0632 93.4834 39.2985 93.4665 39.433 93.3993C39.5842 93.3152 39.5674 93.1806 39.433 93.0965C39.2817 93.0124 39.0464 93.0292 38.9119 93.0965C38.7607 93.1806 38.7775 93.3152 38.9119 93.3993Z" fill="#D0D6D6"/>
<g style="mix-blend-mode:screen" opacity="0.2">
<path d="M39.0798 93.2987C39.0798 93.2987 39.2143 93.3324 39.2815 93.2987C39.3319 93.2651 39.3319 93.2146 39.2815 93.181C39.2311 93.1474 39.147 93.1474 39.0798 93.181C39.0294 93.2146 39.0294 93.2651 39.0798 93.2987Z" fill="#D0D6D6"/>
</g>
<path d="M48.3905 87.6469L44.1719 90.0858C43.9029 90.2372 43.8861 90.4727 44.1046 90.5904C44.3231 90.725 44.7265 90.7082 44.9786 90.5568L49.1973 88.1179C49.4662 87.9665 49.483 87.731 49.2645 87.6133C49.046 87.4956 48.6427 87.4956 48.3905 87.6469Z" fill="#191414"/>
<path d="M33.1456 96.4437L28.927 98.8826C28.6748 99.034 28.6412 99.2695 28.8597 99.3872C29.0782 99.5218 29.4816 99.505 29.7337 99.3536L33.9524 96.9147C34.2213 96.7633 34.2381 96.5278 34.0196 96.4101C33.8011 96.2755 33.3978 96.2923 33.1456 96.4437Z" fill="#191414"/>
<path d="M134.445 150.772L131.386 152.539C131.033 152.74 130.747 152.623 130.747 152.269C130.747 151.916 131.033 151.462 131.386 151.243L134.445 149.477C134.798 149.276 135.083 149.393 135.083 149.746C135.083 150.1 134.798 150.554 134.445 150.772Z" fill="#342135"/>
<mask id="mask0_87_6029" style="mask-type:luminance" maskUnits="userSpaceOnUse" x="130" y="149" width="6" height="4">
<path d="M134.445 150.772L131.386 152.539C131.033 152.74 130.747 152.623 130.747 152.269C130.747 151.916 131.033 151.462 131.386 151.243L134.445 149.477C134.798 149.276 135.083 149.393 135.083 149.746C135.083 150.1 134.798 150.554 134.445 150.772Z" fill="white"/>
</mask>
<g mask="url(#mask0_87_6029)">
<path d="M130.209 151.244L129.789 151.496L131.302 152.371L131.722 152.118L130.209 151.244ZM131.15 150.705L130.73 150.958L132.243 151.832L132.663 151.58L131.15 150.705ZM132.092 150.167L131.672 150.419L133.184 151.294L133.604 151.042L132.092 150.167ZM133.016 149.629L132.596 149.881L134.109 150.756L134.529 150.504L133.016 149.629Z" fill="#7C633C"/>
</g>
<g opacity="0.4">
<g style="mix-blend-mode:screen">
<path d="M158.462 117.234L74.1896 68.5396L8.58984 106.435L92.8628 155.129C93.7031 155.617 95.0645 155.617 95.8881 155.129L158.446 118.983C159.286 118.495 159.286 117.721 158.446 117.234H158.462Z" fill="#7B38D4"/>
</g>
<path d="M76.0721 69.6159L10.4724 107.511L6.62345 105.291C5.78307 104.803 5.78307 104.03 6.62345 103.542L69.181 67.3956C70.0214 66.9078 71.3828 66.9078 72.2064 67.3956L76.0553 69.6159H76.0721Z" fill="#8821D8"/>
</g>
<g opacity="0.7">
<g style="mix-blend-mode:screen">
<path d="M158.462 109.866L74.1896 61.1724L8.58984 99.0847L92.8628 147.779C93.7031 148.266 95.0645 148.266 95.8881 147.779L158.446 111.632C159.286 111.145 159.286 110.371 158.446 109.883L158.462 109.866Z" fill="#7B38D4"/>
</g>
<path d="M76.0721 62.2658L10.4724 100.161L6.62345 97.941C5.78307 97.4533 5.78307 96.6795 6.62345 96.1918L69.181 60.0455C70.0214 59.5577 71.3828 59.5577 72.2064 60.0455L76.0553 62.2658H76.0721Z" fill="#8821D8"/>
</g>
<g style="mix-blend-mode:screen">
<path d="M158.462 102.516L74.1896 53.8218L8.58984 91.7173L92.8628 140.411C93.7031 140.899 95.0645 140.899 95.8881 140.411L158.446 104.265C159.286 103.777 159.286 103.004 158.446 102.516H158.462Z" fill="#7B38D4"/>
</g>
<path d="M76.0721 54.9152L10.4724 92.8107L6.62345 90.5905C5.78307 90.1027 5.78307 89.329 6.62345 88.8412L69.181 52.6949C70.0214 52.2072 71.3828 52.2072 72.2064 52.6949L76.0553 54.9152H76.0721Z" fill="#8821D8"/>
<path d="M65.1977 60.0622L61.7857 62.0301L58.3906 60.0622L61.7857 58.0942L65.1977 60.0622Z" fill="#6811BC"/>
<path d="M69.4164 57.6232L66.0045 59.5912L62.6094 57.6232L66.0045 55.6553L69.4164 57.6232Z" fill="#6811BC"/>
<path d="M63.6846 57.6229L66.004 58.9685L68.3234 57.6229L66.004 56.2773L63.6846 57.6229ZM67.5335 57.6229L66.004 58.4976L64.4745 57.6229L66.004 56.7483L67.5335 57.6229Z" fill="#F6C2FF"/>
<path d="M73.6352 55.1843L70.2232 57.1522L66.8281 55.1843L70.2232 53.2163L73.6352 55.1843Z" fill="#6811BC"/>
<path d="M68.2227 55.3526H70.0379V56.3954H70.6261V55.3526H72.4413V55.0162H70.6261V53.9565H70.0379V55.0162H68.2227V55.3526Z" fill="#F6C2FF"/>
<path d="M64.072 60.0958L61.887 61.3573L61.4668 61.1219L63.6518 59.8604L64.072 60.0958Z" fill="#F6C2FF"/>
<path opacity="0.3" d="M156.11 103.273L94.1573 139.066L14.4561 93.0127L76.4086 57.2197L156.11 103.273Z" fill="#FFBBFA"/>
<g style="mix-blend-mode:overlay" opacity="0.5">
<path d="M156.11 103.273L94.1573 139.066L14.4561 93.0127L76.4086 57.2197L156.11 103.273Z" fill="#FFBBFA"/>
</g>
<path d="M82.0559 60.4828L20.0866 96.2758L14.4561 93.0127L76.4086 57.2197L82.0559 60.4828Z" fill="#DE78FF"/>
<path d="M87.6699 135.332L94.1576 139.066L156.11 103.273L149.639 99.522L87.6699 135.332Z" fill="#DE78FF"/>
<path opacity="0.9" d="M97.4689 87.7308C88.9811 92.6254 75.2326 92.6254 66.7448 87.7308C58.257 82.8361 58.257 74.8803 66.7448 69.9688C75.2326 65.0742 88.9811 65.0742 97.4689 69.9688C105.957 74.8634 105.957 82.8193 97.4689 87.7308Z" fill="#F6C2FF"/>
<path d="M97.4693 87.7306C88.9815 92.6253 75.2329 92.6253 66.7451 87.7306V89.4799C75.2329 94.3746 88.9815 94.3746 97.4693 89.4799C101.755 87.0074 103.89 83.7443 103.839 80.4812V78.7319C103.89 81.9782 101.772 85.2413 97.4693 87.7306Z" fill="#DE78FF"/>
<path d="M82.4258 73.0468L82.3081 78.6143L81.9215 78.732L66.7275 69.9688L66.7444 64.0649L82.4258 73.0468Z" fill="#DE78FF"/>
<path d="M82.3086 73.0467V78.9L97.6707 70.0191L97.6875 64.1152L82.3086 73.0467Z" fill="#DE78FF"/>
<g style="mix-blend-mode:screen" opacity="0.5">
<path d="M97.6868 64.1156L82.3079 73.0639L66.7441 64.0651C75.316 59.1705 89.0981 59.1873 97.6868 64.1156Z" fill="#FFBBFA"/>
</g>
<path d="M60.3076 75.1831V78.2275L82.3087 78.6649V75.1831H60.3076Z" fill="#DE78FF"/>
<g style="mix-blend-mode:overlay" opacity="0.5">
<path d="M66.7281 66.1675C62.459 68.6737 60.3076 71.9199 60.3076 75.183H82.3087L66.7281 66.1675Z" fill="#FFBBFA"/>
</g>
<path d="M66.7109 85.9142C63.6351 84.1313 61.4334 81.8101 60.593 79.1526C60.3913 78.4461 60.3073 77.7733 60.3073 77.0669V77.5883C60.2904 78.6816 60.3073 81.2887 60.593 82.3652L60.6266 82.4829C61.2989 85.1069 63.3662 87.5121 66.8622 89.5305C66.9967 89.6146 67.1479 89.6819 67.2824 89.766V86.217C67.0975 86.1161 66.8958 85.9983 66.7109 85.8974V85.9142Z" fill="#DE78FF"/>
<path d="M82.3081 77.1006V78.9003L67.2822 88.0336V86.2339L82.3081 77.1006Z" fill="#DE78FF"/>
<g style="mix-blend-mode:overlay" opacity="0.5">
<path d="M82.3087 77.1005L67.2827 86.2338C67.0811 86.1329 66.8962 86.0152 66.7113 85.9142C63.6355 84.1313 61.4337 81.8101 60.5933 79.1526C60.4085 78.5302 60.3076 77.8238 60.3076 77.0669L82.3087 77.1005Z" fill="#FFBBFA"/>
</g>
<path d="M40.5413 91.0443L30.7089 96.7294L29.6836 96.1407L39.5328 90.4556L40.5413 91.0443Z" fill="#C858F0"/>
<path d="M37.365 95.0475L32.5917 97.806L31.5664 97.2341L36.3397 94.4756L37.365 95.0475Z" fill="#C858F0"/>
<path d="M49.9532 89.951L34.4735 98.8993L33.4482 98.3106L48.9448 89.3623L49.9532 89.951Z" fill="#FFBBFA"/>
<path d="M59.0969 86.8392L36.3395 99.9924L35.3311 99.4037L58.0884 86.2505L59.0969 86.8392Z" fill="#DE78FF"/>
<path d="M59.2476 88.9417L38.2213 101.069L37.2129 100.497L58.2391 88.353L59.2476 88.9417Z" fill="#DE78FF"/>
<path d="M58.1386 91.7508L40.1042 102.162L39.0957 101.574L57.1134 91.1621L58.1386 91.7508Z" fill="#C858F0"/>
<path d="M56.475 94.879L41.987 103.255L40.9785 102.667L55.4498 94.3071L56.475 94.879Z" fill="#C858F0"/>
<path d="M55.3147 97.7386L43.8688 104.332L42.8604 103.76L54.2895 97.1499L55.3147 97.7386Z" fill="#C858F0"/>
<path d="M63.7693 95.0135L45.7516 105.425L44.7432 104.836L62.7608 94.4248L63.7693 95.0135Z" fill="#DE78FF"/>
<path d="M66.4589 95.6361L47.6344 106.519L46.626 105.93L65.4504 95.0474L66.4589 95.6361Z" fill="#DE78FF"/>
<path d="M65.08 98.6131L49.5163 107.595L48.5078 107.006L64.0716 98.0244L65.08 98.6131Z" fill="#FFBBFA"/>
<path d="M64.2064 101.287L51.3991 108.688L50.3906 108.1L63.198 100.699L64.2064 101.287Z" fill="#C858F0"/>
<path d="M71.3826 99.3197L53.2809 109.782L52.2725 109.193L70.3574 98.731L71.3826 99.3197Z" fill="#FFBBFA"/>
<path d="M74.3747 99.7569L55.1637 110.858L54.1553 110.269L73.3495 99.1851L74.3747 99.7569Z" fill="#FFBBFA"/>
<path d="M55.7856 110.959L55.1637 111.312L28.8936 96.1408L29.4986 95.7876L55.7856 110.959Z" fill="#C858F0"/>
<path d="M64.0045 115.097C64.6264 115.451 64.6264 116.023 64.0045 116.393C63.3827 116.746 62.391 116.746 61.7691 116.393C61.1473 116.039 61.1473 115.467 61.7691 115.097C62.391 114.744 63.3827 114.744 64.0045 115.097Z" fill="#C858F0"/>
<path d="M69.4333 118.242C70.0551 118.596 70.0551 119.168 69.4333 119.538C68.8114 119.891 67.8197 119.891 67.1979 119.538C66.576 119.184 66.576 118.612 67.1979 118.242C67.8197 117.889 68.8114 117.889 69.4333 118.242Z" fill="#C858F0"/>
<path d="M74.7946 121.321C75.4165 121.674 75.4165 122.246 74.7946 122.616C74.1727 122.969 73.1811 122.969 72.5592 122.616C71.9373 122.262 71.9373 121.691 72.5592 121.321C73.1811 120.967 74.1727 120.967 74.7946 121.321Z" fill="#C858F0"/>
<path d="M80.1901 124.449C80.812 124.802 80.812 125.374 80.1901 125.744C79.5682 126.097 78.5766 126.097 77.9547 125.744C77.3328 125.391 77.3328 124.819 77.9547 124.449C78.5766 124.096 79.5682 124.096 80.1901 124.449Z" fill="#C858F0"/>
<path d="M85.5348 127.544C86.1567 127.897 86.1567 128.469 85.5348 128.839C84.9129 129.193 83.9213 129.193 83.2994 128.839C82.6775 128.486 82.6775 127.914 83.2994 127.544C83.9213 127.191 84.9129 127.191 85.5348 127.544Z" fill="#C858F0"/>
<path d="M92.9972 99.7069L96.2242 97.8399L95.804 97.6044L92.577 99.4714L92.9972 99.7069ZM78.5763 108.033L85.8203 103.845L85.4002 103.609L78.1561 107.797L78.5763 108.033ZM86.3918 103.525L92.4257 100.043L92.0055 99.8078L85.9716 103.29L86.3918 103.525ZM78.0048 108.369L77.5847 108.134L67.3321 114.054L67.7523 114.29L78.0048 108.369ZM96.7957 97.5203L101.384 94.8628L100.964 94.6273L96.3755 97.2848L96.7957 97.5203ZM66.1555 113.298L69.5339 111.346L69.1137 111.111L65.7354 113.062L66.1555 113.298ZM95.7536 95.7206L96.1738 95.9561L100.191 93.6349L99.7706 93.3994L95.7536 95.7206ZM88.3247 100.497L95.6023 96.2925L95.1821 96.057L87.9045 100.262L88.3247 100.497ZM84.5262 102.684L87.7532 100.817L87.333 100.582L84.106 102.449L84.5262 102.684ZM79.9377 105.342L83.9547 103.02L83.5345 102.785L79.5175 105.106L79.9377 105.342ZM70.1053 111.027L79.3663 105.678L78.9461 105.443L69.6851 110.791L70.1053 111.027Z" fill="#DE78FF"/>
<path d="M89.4675 105.257L89.8877 105.493L95.9216 102.011L95.5014 101.776L89.4675 105.257ZM89.3162 105.829L88.8961 105.594L81.652 109.782L82.0722 110.017L89.3162 105.829ZM90.6104 106.519L91.0306 106.754L95.0476 104.433L94.6274 104.198L90.6104 106.519ZM95.1989 103.861L95.6191 104.097L98.8461 102.23L98.4259 101.994L95.1989 103.861ZM106.275 97.4697L98.9974 101.675L99.4176 101.91L106.695 97.7051L106.275 97.4697ZM80.6268 112.759L80.2066 112.524L72.4415 117.015L72.8617 117.25L80.6268 112.759ZM102.712 97.6042L96.0729 101.439L96.4931 101.675L103.132 97.8397L102.712 97.6042ZM81.5176 110.337L81.0974 110.102L70.7607 116.073L71.1809 116.308L81.5176 110.337ZM103.283 97.2678L103.703 97.5033L107.586 95.2662L107.166 95.0308L103.283 97.2678ZM90.4592 107.091L90.039 106.855L80.778 112.204L81.1982 112.439L90.4592 107.091Z" fill="#DE78FF"/>
<path d="M92.0394 110.169L92.4596 110.404L96.4766 108.083L96.0564 107.848L92.0394 110.169ZM93.031 112.002L92.6109 111.767L85.4677 115.888L85.8879 116.123L93.031 112.002ZM99.8549 105.661L96.6279 107.528L97.048 107.764L100.275 105.897L99.8549 105.661ZM100.426 105.325L100.847 105.56L108.124 101.355L107.704 101.12L100.426 105.325ZM108.007 103.34L112.242 100.901L111.822 100.666L107.586 103.104L108.007 103.34ZM82.0557 116.426L81.6356 116.19L76.3916 119.218L76.8118 119.453L82.0557 116.426ZM91.4679 110.505L82.207 115.854L82.6272 116.089L91.8881 110.741L91.4679 110.505ZM93.1823 111.43L93.6025 111.666L100.847 107.478L100.426 107.242L93.1823 111.43ZM107.032 103.424L100.998 106.906L101.418 107.141L107.452 103.659L107.032 103.424ZM110.444 99.5386L108.275 100.8L108.696 101.036L110.864 99.7741L110.444 99.5386ZM85.3164 116.46L84.8962 116.224L78.0387 120.194L78.4589 120.429L85.3164 116.46Z" fill="#DE78FF"/>
<path d="M94.6283 117.301L101.872 113.113L101.452 112.877L94.2081 117.065L94.6283 117.301ZM102.427 112.793L108.461 109.311L108.041 109.076L102.007 112.558L102.427 112.793ZM94.0568 117.637L93.6366 117.402L83.384 123.322L83.8042 123.558L94.0568 117.637ZM82.1907 122.566L85.569 120.614L85.1488 120.379L81.7705 122.33L82.1907 122.566ZM111.789 104.989L112.209 105.224L116.226 102.903L115.806 102.667L111.789 104.989ZM104.36 109.766L111.637 105.561L111.217 105.325L103.94 109.53L104.36 109.766ZM100.561 111.952L103.788 110.085L103.368 109.85L100.141 111.717L100.561 111.952ZM95.9729 114.61L99.9899 112.289L99.5697 112.053L95.5527 114.374L95.9729 114.61ZM86.1405 120.278L95.4014 114.929L94.9812 114.694L85.7203 120.043L86.1405 120.278Z" fill="#DE78FF"/>
<path d="M110.023 112.187L110.444 112.44L116.478 108.941L116.057 108.706L110.023 112.187Z" fill="#DE78FF"/>
<path d="M104.443 117.334L104.847 117.57L108.881 115.249L108.46 115.013L104.443 117.334Z" fill="#DE78FF"/>
<path d="M109.452 112.524L102.208 116.695L102.628 116.948L109.872 112.759L109.452 112.524Z" fill="#DE78FF"/>
<path d="M115.267 111.077L109.015 114.693L109.435 114.929L115.687 111.313L115.267 111.077Z" fill="#DE78FF"/>
<path d="M102.057 117.267L101.637 117.032L87.0479 125.459L87.468 125.711L102.057 117.267Z" fill="#DE78FF"/>
<path d="M116.629 108.369L117.049 108.622L120.276 106.755L119.856 106.502L116.629 108.369Z" fill="#DE78FF"/>
<path d="M94.4598 123.591L94.0396 123.339L88.8125 126.366L89.2159 126.602L94.4598 123.591Z" fill="#DE78FF"/>
<path d="M103.872 117.671L94.6113 123.02L95.0315 123.255L104.292 117.906L103.872 117.671Z" fill="#DE78FF"/>
<path d="M120.428 106.183L120.848 106.418L123.588 104.837L123.167 104.602L120.428 106.183Z" fill="#DE78FF"/>
<path d="M148.092 88.1683C147.992 88.1179 147.924 88.1515 147.924 88.2356V89.1607L136.361 82.4832V81.5581C136.361 81.4571 136.277 81.3394 136.193 81.2889C136.092 81.2385 136.025 81.2721 136.025 81.3562V82.2813L124.461 75.6038V74.6787C124.461 74.5777 124.377 74.46 124.293 74.4095C124.192 74.3591 124.125 74.3927 124.125 74.4768V75.4019L112.561 68.7244V67.7993C112.561 67.6984 112.477 67.5806 112.393 67.5302C112.292 67.4797 112.225 67.5133 112.225 67.5974V68.5225L100.662 61.845V60.9199C100.662 60.819 100.577 60.7012 100.493 60.6508C100.393 60.6003 100.325 60.6339 100.325 60.718V61.6431L88.7618 54.9656V54.0405C88.7618 53.9396 88.6778 53.8218 88.5937 53.7714C88.4929 53.7209 88.4256 53.7546 88.4256 53.8387V54.7638L78.4756 49.0113L76.8621 48.0862V39.6594L77.9041 40.2649C78.005 40.3153 78.0722 40.2817 78.0722 40.1976C78.0722 40.1135 77.9882 39.9789 77.9041 39.9285L76.8621 39.323V30.8961L77.9041 31.5017C78.005 31.5521 78.0722 31.5185 78.0722 31.4344C78.0722 31.3503 77.9882 31.2157 77.9041 31.1653L76.8621 30.5597V22.1329L77.9041 22.7384C78.005 22.7889 78.0722 22.7552 78.0722 22.6711C78.0722 22.587 77.9882 22.4525 77.9041 22.402L76.8621 21.7965V13.3697L77.9041 13.9752C78.005 14.0256 78.0722 13.992 78.0722 13.9079C78.0722 13.8238 77.9882 13.6892 77.9041 13.6388L76.8621 13.0333V4.55597L77.9041 5.1615C78.005 5.21196 78.0722 5.17832 78.0722 5.09422C78.0722 5.01012 77.9882 4.87556 77.9041 4.8251L75.5343 3.46267C75.4334 3.41221 75.3662 3.44585 75.3662 3.52995C75.3662 3.61405 75.4502 3.74861 75.5343 3.79907L76.5259 4.37095V12.7978L75.5343 12.2259C75.4334 12.1754 75.3662 12.2091 75.3662 12.2932C75.3662 12.3773 75.4502 12.5118 75.5343 12.5623L76.5259 13.1342V21.561L75.5343 20.9891C75.4334 20.9387 75.3662 20.9723 75.3662 21.0564C75.3662 21.1405 75.4502 21.2751 75.5343 21.3255L76.5259 21.8974V30.3243L75.5343 29.7524C75.4334 29.7019 75.3662 29.7356 75.3662 29.8197C75.3662 29.9038 75.4502 30.0383 75.5343 30.0888L76.5259 30.6607V39.0875L75.5343 38.5156C75.4334 38.4651 75.3662 38.4988 75.3662 38.5829C75.3662 38.667 75.4502 38.8015 75.5343 38.852L76.5259 39.4239V48.0189C76.5259 48.1198 76.61 48.2376 76.694 48.288L78.4756 49.3141L88.4256 55.0665V56.0421C88.4256 56.143 88.5097 56.2607 88.5937 56.3112C88.6946 56.3617 88.7618 56.328 88.7618 56.2439V55.2684L100.325 61.9459V62.9215C100.325 63.0224 100.409 63.1401 100.493 63.1906C100.594 63.241 100.662 63.2074 100.662 63.1233V62.1477L112.225 68.8253V69.8009C112.225 69.9018 112.309 70.0195 112.393 70.07C112.494 70.1204 112.561 70.0868 112.561 70.0027V69.0271L124.125 75.7047V76.6802C124.125 76.7812 124.209 76.8989 124.293 76.9494C124.394 76.9998 124.461 76.9662 124.461 76.8821V75.9065L136.025 82.5841V83.5596C136.025 83.6606 136.109 83.7783 136.193 83.8288C136.293 83.8792 136.361 83.8456 136.361 83.7615V82.7859L147.924 89.4635V90.439C147.924 90.5399 148.008 90.6577 148.092 90.7081C148.193 90.7586 148.26 90.725 148.26 90.6409V88.387C148.26 88.2861 148.176 88.1683 148.092 88.1179V88.1683Z" fill="#8821D8"/>
<path d="M73.803 47.2449C73.803 47.3459 73.7862 47.43 73.7357 47.4804C73.7021 47.5309 73.6517 47.5645 73.5845 47.5813C73.5172 47.5813 73.4332 47.5813 73.3155 47.4972C73.1979 47.43 73.097 47.3459 73.0298 47.2449C72.9626 47.1608 72.9122 47.0599 72.8954 46.9758C72.8617 46.8749 72.8449 46.774 72.8281 46.6731V45.2265C72.8281 45.1256 72.8449 45.0583 72.8954 44.9911C72.929 44.9406 72.9626 44.907 73.0298 44.8901C73.097 44.8901 73.1979 44.8901 73.3155 44.9742C73.4332 45.0415 73.534 45.1256 73.5845 45.2097C73.6517 45.2938 73.7021 45.3947 73.7357 45.4788C73.7693 45.5798 73.7862 45.6807 73.803 45.7816V47.2281V47.2449ZM73.45 45.5966C73.45 45.5966 73.45 45.4788 73.3996 45.4116C73.3996 45.3779 73.3492 45.3611 73.3323 45.3443C73.2651 45.3106 73.2315 45.3443 73.2315 45.3779C73.2315 45.3947 73.2315 45.4284 73.2315 45.462V46.9085C73.2315 46.9085 73.2315 47.0431 73.2819 47.0936C73.2819 47.1272 73.3155 47.144 73.3492 47.1608C73.4164 47.1945 73.45 47.1608 73.45 47.1272C73.45 47.1104 73.45 47.0767 73.45 47.0431V45.5966Z" fill="#8821D8"/>
<path d="M73.4668 37.6237C73.4668 37.5228 73.4331 37.4219 73.3491 37.3714C73.3155 37.3546 73.2819 37.3714 73.2483 37.3714C73.2146 37.3882 73.2146 37.4387 73.2146 37.4555L72.9121 37.2873V35.9922L73.7861 36.4968V36.85L73.2315 36.5304V37.035C73.2315 37.035 73.3155 37.035 73.3659 37.035C73.6348 37.1696 73.7189 37.3378 73.7861 37.4892C73.8365 37.6405 73.8533 37.7751 73.8533 37.8088V38.3638C73.8533 38.4816 73.8533 38.6329 73.7861 38.7339C73.7189 38.8348 73.6012 38.8684 73.3827 38.7339C73.1642 38.5993 73.0466 38.4311 72.9793 38.2461C72.9121 38.0611 72.9121 37.876 72.9121 37.7078L73.2651 37.9097V38.0106C73.2651 38.1283 73.2651 38.2293 73.2819 38.2797C73.2819 38.347 73.3323 38.3806 73.3659 38.3975C73.3995 38.4143 73.4331 38.3975 73.4499 38.3806C73.4499 38.347 73.4836 38.2629 73.4836 38.1451V37.5901L73.4668 37.6237Z" fill="#8821D8"/>
<path d="M72.0049 27.2458V27.0104C72.1562 27.0608 72.2402 27.044 72.3074 27.0104C72.341 26.9935 72.3746 26.9599 72.3915 26.9263L72.6099 27.044V29.4997L72.257 29.2979V27.3636L72.0217 27.229L72.0049 27.2458Z" fill="#8821D8"/>
<path d="M73.803 29.7015C73.803 29.8024 73.7862 29.8865 73.7357 29.937C73.7021 29.9874 73.6517 30.0211 73.5845 30.0379C73.5172 30.0379 73.4332 30.0379 73.3155 29.9538C73.1979 29.8865 73.097 29.8024 73.0298 29.7015C72.9626 29.6174 72.9122 29.5165 72.8954 29.4324C72.8617 29.3314 72.8449 29.2305 72.8281 29.1296V27.6831C72.8281 27.5822 72.8449 27.5149 72.8954 27.4476C72.929 27.3971 72.9626 27.3635 73.0298 27.3467C73.097 27.3467 73.1979 27.3467 73.3155 27.4308C73.4332 27.4981 73.534 27.5822 73.5845 27.6663C73.6517 27.7504 73.7021 27.8513 73.7357 27.9354C73.7693 28.0363 73.7862 28.1372 73.803 28.2381V29.6847V29.7015ZM73.45 28.0531C73.45 28.0531 73.45 27.9354 73.3996 27.8681C73.3996 27.8345 73.3492 27.8176 73.3323 27.8008C73.2651 27.7672 73.2315 27.8008 73.2315 27.8345C73.2315 27.8513 73.2315 27.8849 73.2315 27.9186V29.3651C73.2315 29.3651 73.2315 29.4996 73.2819 29.5501C73.2819 29.5837 73.3155 29.6006 73.3492 29.6174C73.4164 29.651 73.45 29.6174 73.45 29.5837C73.45 29.5669 73.45 29.5333 73.45 29.4996V28.0531Z" fill="#8821D8"/>
<path d="M72.0381 18.4827V18.2472C72.1894 18.2976 72.2734 18.2808 72.3406 18.2472C72.3742 18.2304 72.4079 18.1967 72.4247 18.1631L72.6432 18.2808V20.7365L72.2902 20.5347V18.6004L72.0549 18.4658L72.0381 18.4827Z" fill="#8821D8"/>
<path d="M73.4668 20.0808C73.4668 19.9798 73.4331 19.8789 73.3491 19.8285C73.3155 19.8116 73.2819 19.8285 73.2483 19.8285C73.2146 19.8453 73.2146 19.8957 73.2146 19.9126L72.9121 19.7444V18.4492L73.7861 18.9538V19.307L73.2315 18.9875V19.4921C73.2315 19.4921 73.3155 19.4921 73.3659 19.4921C73.6348 19.6266 73.7189 19.7948 73.7861 19.9462C73.8365 20.0976 73.8533 20.2321 73.8533 20.2658V20.8208C73.8533 20.9386 73.8533 21.09 73.7861 21.1909C73.7189 21.2918 73.6012 21.3254 73.3827 21.1909C73.1642 21.0563 73.0466 20.8881 72.9793 20.7031C72.9121 20.5181 72.9121 20.3331 72.9121 20.1649L73.2651 20.3667V20.4676C73.2651 20.5854 73.2651 20.6863 73.2819 20.7367C73.2819 20.804 73.3323 20.8377 73.3659 20.8545C73.3995 20.8713 73.4331 20.8545 73.4499 20.8377C73.4499 20.804 73.4836 20.7199 73.4836 20.6022V20.0471L73.4668 20.0808Z" fill="#8821D8"/>
<path d="M71.6348 9.73653V9.56833C71.6348 9.40013 71.6516 9.24875 71.7356 9.18147C71.8028 9.09737 71.9205 9.09737 72.1222 9.21511C72.3071 9.31603 72.4247 9.46741 72.5088 9.61879C72.576 9.77017 72.6096 9.93837 72.6096 10.1066C72.6096 10.3589 72.5088 10.5944 72.3911 10.813C72.2735 11.0317 72.1222 11.1999 72.0381 11.3008L72.6096 11.6372V11.9904L71.6348 11.4185V11.0653C71.7524 10.9644 71.8533 10.8467 71.9373 10.7289C72.0213 10.628 72.0886 10.4934 72.139 10.3589C72.1894 10.2243 72.2398 10.0729 72.2398 9.93837C72.2398 9.87109 72.2398 9.78699 72.223 9.71971C72.223 9.65243 72.1726 9.58515 72.1222 9.56833C72.0718 9.53469 72.0381 9.56833 72.0213 9.60197C72.0213 9.65243 72.0045 9.71971 72.0045 9.80381V9.97201L71.6516 9.77017L71.6348 9.73653Z" fill="#8821D8"/>
<path d="M73.803 12.1585C73.803 12.2594 73.7862 12.3435 73.7357 12.394C73.7021 12.4445 73.6517 12.4781 73.5845 12.4949C73.5172 12.4949 73.4332 12.4949 73.3155 12.4108C73.1979 12.3435 73.097 12.2594 73.0298 12.1585C72.9626 12.0744 72.9122 11.9735 72.8954 11.8894C72.8617 11.7885 72.8449 11.6876 72.8281 11.5866V10.1401C72.8281 10.0392 72.8449 9.97191 72.8954 9.90463C72.929 9.85417 72.9626 9.82053 73.0298 9.80371C73.097 9.80371 73.1979 9.80371 73.3155 9.88781C73.4332 9.95509 73.534 10.0392 73.5845 10.1233C73.6517 10.2074 73.7021 10.3083 73.7357 10.3924C73.7693 10.4933 73.7862 10.5943 73.803 10.6952V12.1417V12.1585ZM73.45 10.5102C73.45 10.5102 73.45 10.3924 73.3996 10.3251C73.3996 10.2915 73.3492 10.2747 73.3323 10.2579C73.2651 10.2242 73.2315 10.2579 73.2315 10.2915C73.2315 10.3083 73.2315 10.342 73.2315 10.3756V11.8221C73.2315 11.8221 73.2315 11.9567 73.2819 12.0071C73.2819 12.0408 73.3155 12.0576 73.3492 12.0744C73.4164 12.1081 73.45 12.0744 73.45 12.0408C73.45 12.024 73.45 11.9903 73.45 11.9567V10.5102Z" fill="#8821D8"/>
<path d="M71.668 0.989947V0.821747C71.668 0.653547 71.6848 0.502167 71.7688 0.434886C71.836 0.350786 71.9537 0.350786 72.1554 0.468527C72.3403 0.569447 72.4579 0.720827 72.542 0.872207C72.6092 1.02359 72.6428 1.19179 72.6428 1.35999C72.6428 1.61229 72.542 1.84777 72.4243 2.06643C72.3067 2.28509 72.1554 2.45329 72.0713 2.55421L72.6428 2.89061V3.24383L71.668 2.67195V2.31873C71.7856 2.21781 71.8865 2.10007 71.9705 1.98233C72.0545 1.88141 72.1218 1.74685 72.1722 1.61229C72.2226 1.47773 72.273 1.32635 72.273 1.19179C72.273 1.12451 72.273 1.04041 72.2562 0.973127C72.2562 0.905847 72.2058 0.838567 72.1554 0.821747C72.105 0.788107 72.0713 0.821747 72.0545 0.855387C72.0545 0.905847 72.0377 0.973127 72.0377 1.05723V1.22543L71.6848 1.02359L71.668 0.989947Z" fill="#8821D8"/>
<path d="M73.4668 2.53757C73.4668 2.43665 73.4331 2.33573 73.3491 2.28527C73.3155 2.26845 73.2819 2.28527 73.2483 2.28527C73.2146 2.30209 73.2146 2.35255 73.2146 2.36937L72.9121 2.20117V0.922852L73.7861 1.42745V1.78067L73.2315 1.46109V1.96569C73.2315 1.96569 73.3155 1.96569 73.3659 1.96569C73.6348 2.10025 73.7189 2.26845 73.7861 2.41983C73.8365 2.57121 73.8533 2.70577 73.8533 2.73941V3.29448C73.8533 3.41222 73.8533 3.5636 73.7861 3.66452C73.7189 3.76544 73.6012 3.79908 73.3827 3.66452C73.1642 3.52996 73.0466 3.36176 72.9793 3.17673C72.9121 2.99171 72.9121 2.80669 72.9121 2.63849L73.2651 2.84033V2.94125C73.2651 3.05899 73.2651 3.15991 73.2819 3.21038C73.2819 3.27766 73.3323 3.3113 73.3659 3.32812C73.3995 3.34494 73.4331 3.32812 73.4499 3.3113C73.4499 3.27766 73.4836 3.19355 73.4836 3.07581V2.52075L73.4668 2.53757Z" fill="#8821D8"/>
<g opacity="0.5">
<path d="M82.5929 50.0033C82.5929 50.0033 82.5424 49.9697 82.5256 49.936C82.4416 49.8519 82.408 49.7174 82.4416 49.6669L94.3581 31.9891C94.3581 31.9891 94.5094 31.9554 94.5934 32.0395C94.6775 32.1236 94.7111 32.2582 94.6775 32.3086L82.7609 49.9865C82.7609 49.9865 82.6769 50.037 82.6097 49.9865L82.5929 50.0033Z" fill="#DE78FF"/>
<path d="M106.409 60.2466C106.409 60.2466 106.291 60.1457 106.258 60.0784L94.3411 32.1403C94.2907 32.0394 94.3243 31.9385 94.4083 31.9385C94.4923 31.9385 94.5932 32.0226 94.6436 32.1403L106.56 60.0784C106.611 60.1793 106.577 60.2802 106.493 60.2802C106.459 60.2802 106.442 60.2802 106.409 60.2466Z" fill="#DE78FF"/>
<path d="M106.409 60.2468C106.409 60.2468 106.292 60.1459 106.258 60.0786C106.208 59.9777 106.241 59.8768 106.325 59.8768L118.242 59.7422C118.242 59.7422 118.427 59.8263 118.477 59.944C118.528 60.0449 118.494 60.1459 118.41 60.1459L106.493 60.2804C106.493 60.2804 106.443 60.2804 106.409 60.2468Z" fill="#DE78FF"/>
<path d="M118.325 60.1118C118.325 60.1118 118.275 60.0781 118.241 60.0445C118.157 59.9436 118.124 59.8258 118.174 59.7754L130.091 45.5961C130.091 45.5961 130.242 45.5793 130.326 45.6634C130.41 45.7643 130.444 45.882 130.393 45.9325L118.477 60.1118C118.477 60.1118 118.393 60.1454 118.325 60.1118Z" fill="#DE78FF"/>
<path d="M130.242 45.9497C130.242 45.9497 130.141 45.8824 130.108 45.8151C130.041 45.7142 130.057 45.5965 130.108 45.5796L142.024 41.9297C142.024 41.9297 142.209 41.9801 142.26 42.0811C142.327 42.182 142.31 42.2997 142.26 42.3166L130.343 45.9665C130.343 45.9665 130.276 45.9665 130.225 45.9497H130.242Z" fill="#DE78FF"/>
<path d="M82.5929 44.7387C82.5929 44.7387 82.492 44.6715 82.4584 44.6042C82.3912 44.5033 82.408 44.3855 82.4584 44.3687L94.3749 40.7188C94.3749 40.7188 94.5598 40.7692 94.6102 40.8701C94.6775 40.9711 94.6607 41.0888 94.6102 41.1056L82.6937 44.7556C82.6937 44.7556 82.6265 44.7556 82.5761 44.7387H82.5929Z" fill="#DE78FF"/>
<path d="M94.5097 41.0889C94.5097 41.0889 94.4425 41.0384 94.4089 41.0048C94.3248 40.9039 94.308 40.7861 94.3584 40.7357L106.275 30.0718C106.275 30.0718 106.426 30.0718 106.51 30.1559C106.594 30.2568 106.611 30.3745 106.561 30.425L94.6442 41.0889C94.6442 41.0889 94.5601 41.1057 94.5097 41.0889Z" fill="#DE78FF"/>
<path d="M118.326 49.5829C118.326 49.5829 118.242 49.5156 118.208 49.4651L106.292 30.3071C106.224 30.2062 106.224 30.0885 106.292 30.0716C106.359 30.038 106.46 30.1053 106.527 30.223L118.443 49.381C118.511 49.482 118.511 49.5997 118.443 49.6165C118.41 49.6165 118.359 49.6165 118.326 49.5997V49.5829Z" fill="#DE78FF"/>
<path d="M130.242 59.9777L118.292 49.5493C118.208 49.4652 118.157 49.3475 118.174 49.2634C118.208 49.1961 118.292 49.1961 118.393 49.2634L130.309 59.6581C130.393 59.7422 130.444 59.86 130.427 59.9441C130.41 60.0113 130.343 60.0113 130.259 59.9777H130.242Z" fill="#DE78FF"/>
<path d="M142.142 80.9017C142.142 80.9017 142.041 80.8176 142.007 80.7671L130.091 59.843C130.023 59.7421 130.04 59.6412 130.107 59.6076C130.175 59.5907 130.292 59.658 130.343 59.7589L142.259 80.683C142.327 80.784 142.31 80.8849 142.242 80.9185C142.209 80.9185 142.175 80.9185 142.125 80.9017H142.142Z" fill="#DE78FF"/>
<path d="M82.5925 41.543C82.5925 41.543 82.458 41.4085 82.4244 41.3244C82.3908 41.2234 82.4412 41.1562 82.5421 41.173L94.4586 44.2342C94.5427 44.2679 94.6435 44.3688 94.6771 44.4697C94.7107 44.5706 94.6603 44.6379 94.5595 44.6211L82.6429 41.5598C82.6429 41.5598 82.6093 41.5598 82.5925 41.543Z" fill="#C858F0"/>
<path d="M94.5093 44.6043C94.5093 44.6043 94.4253 44.5538 94.3916 44.5033C94.3244 44.4024 94.3076 44.2847 94.3748 44.251L106.291 37.1025C106.291 37.1025 106.459 37.1194 106.527 37.2203C106.594 37.3212 106.611 37.4389 106.543 37.4726L94.6269 44.6211C94.6269 44.6211 94.5429 44.6211 94.4925 44.6211L94.5093 44.6043Z" fill="#C858F0"/>
<path d="M106.409 37.4387C106.409 37.4387 106.325 37.3883 106.291 37.3378C106.224 37.2369 106.207 37.1192 106.274 37.0855L118.191 29.937C118.191 29.937 118.359 29.9538 118.426 30.0548C118.493 30.1557 118.51 30.2734 118.443 30.3071L106.526 37.4556C106.526 37.4556 106.442 37.4556 106.392 37.4556L106.409 37.4387Z" fill="#C858F0"/>
<path d="M130.242 72.2563C130.242 72.2563 130.107 72.1386 130.074 72.0545L118.157 30.0885C118.123 29.9876 118.174 29.9203 118.258 29.9371C118.342 29.954 118.443 30.0549 118.476 30.1726L130.393 72.1386C130.427 72.2395 130.376 72.3068 130.292 72.29C130.275 72.29 130.258 72.29 130.242 72.2732V72.2563Z" fill="#C858F0"/>
<path d="M142.141 84.4005C142.141 84.4005 142.091 84.3669 142.074 84.35L130.157 72.206C130.073 72.1219 130.04 71.9873 130.073 71.9369C130.107 71.8696 130.208 71.8864 130.292 71.9873L142.208 84.1314C142.292 84.2155 142.326 84.35 142.293 84.4005C142.259 84.451 142.208 84.451 142.141 84.4005Z" fill="#C858F0"/>
<path d="M82.5929 37.7249C82.5929 37.7249 82.5425 37.6913 82.5089 37.6577C82.4249 37.5736 82.3912 37.439 82.4417 37.3885L94.3582 21.46C94.3582 21.46 94.5095 21.4263 94.5935 21.5273C94.6775 21.6114 94.7112 21.7459 94.6607 21.7964L82.7442 37.7249C82.7442 37.7249 82.6602 37.7586 82.5929 37.7249Z" fill="#FFBBFA"/>
<path d="M106.409 39.2049C106.409 39.2049 106.325 39.1377 106.292 39.104L94.3753 21.6953C94.308 21.5944 94.2912 21.4766 94.3753 21.443C94.4425 21.4094 94.5433 21.4598 94.6106 21.5607L106.527 38.9695C106.594 39.0704 106.611 39.1881 106.527 39.2218C106.493 39.2386 106.443 39.2218 106.393 39.2218L106.409 39.2049Z" fill="#FFBBFA"/>
<path d="M118.326 55.1168C118.326 55.1168 118.259 55.0663 118.225 55.0159L105.72 38.2127C105.653 38.1117 105.636 37.994 105.687 37.9604C105.737 37.9267 105.855 37.9604 105.922 38.0613L118.427 54.8645C118.494 54.9654 118.511 55.0832 118.46 55.1168C118.427 55.1336 118.376 55.1336 118.326 55.1168Z" fill="#FFBBFA"/>
<path d="M118.325 55.1165C118.325 55.1165 118.224 55.0492 118.191 54.982C118.124 54.881 118.14 54.7633 118.191 54.7465L130.107 50.8442C130.107 50.8442 130.292 50.8947 130.343 50.9956C130.41 51.0965 130.393 51.2143 130.343 51.2311L118.426 55.1333C118.426 55.1333 118.359 55.1333 118.308 55.1165H118.325Z" fill="#FFBBFA"/>
<path d="M130.242 51.2143C130.242 51.2143 130.125 51.1134 130.091 51.0293C130.057 50.9283 130.091 50.8442 130.175 50.8442L142.092 51.9039C142.176 51.9039 142.276 52.0048 142.327 52.1226C142.36 52.2235 142.327 52.3076 142.243 52.3076L130.326 51.2479C130.326 51.2479 130.276 51.2479 130.259 51.2143H130.242Z" fill="#FFBBFA"/>
<path d="M94.5098 55.1336C94.5098 55.1336 94.409 55.0495 94.3753 54.9991L82.4588 34.075C82.3916 33.9741 82.4084 33.8731 82.4756 33.8395C82.5429 33.8227 82.6605 33.89 82.7109 33.9909L94.6275 54.915C94.6947 55.0159 94.6779 55.1168 94.6106 55.1505C94.577 55.1505 94.5434 55.1505 94.493 55.1336H94.5098Z" fill="#FFBBFA"/>
<path d="M94.5099 55.1338C94.5099 55.1338 94.409 55.0665 94.3754 54.9992C94.3082 54.8983 94.325 54.7805 94.3754 54.7637L106.292 51.1138C106.292 51.1138 106.477 51.1642 106.527 51.2652C106.594 51.3661 106.578 51.4838 106.527 51.5006L94.6107 55.1506C94.6107 55.1506 94.5435 55.1506 94.493 55.1338H94.5099Z" fill="#FFBBFA"/>
<path d="M118.326 65.377C118.326 65.377 118.259 65.3433 118.242 65.3097L106.326 51.4164C106.242 51.3154 106.225 51.1977 106.258 51.1472C106.309 51.0968 106.41 51.1304 106.494 51.2145L118.41 65.1079C118.494 65.2088 118.511 65.3265 118.477 65.377C118.444 65.4106 118.393 65.4106 118.326 65.377Z" fill="#FFBBFA"/>
<path d="M118.326 65.3772C118.326 65.3772 118.242 65.3099 118.209 65.2595C118.141 65.1585 118.141 65.0408 118.209 65.0072L134.798 57.3877C134.798 57.3877 134.966 57.4213 135.033 57.5223C135.1 57.6232 135.1 57.7409 135.033 57.7746L118.444 65.394C118.444 65.394 118.36 65.394 118.326 65.3772Z" fill="#FFBBFA"/>
<path d="M134.948 57.6061C134.797 57.4716 134.763 57.3538 134.78 57.2866L141.974 41.9803C141.974 41.9803 142.108 41.9299 142.192 42.014C142.276 42.0981 142.327 42.2158 142.293 42.2831L135.1 57.6061C135.1 57.6061 135.016 57.6734 134.932 57.623L134.948 57.6061Z" fill="#FFBBFA"/>
</g>
<path d="M82.5936 48.8091C83.1651 49.1287 83.6189 49.8519 83.6189 50.4238C83.6189 50.9957 83.1651 51.1807 82.5936 50.8611C82.0222 50.5415 81.5684 49.8183 81.5684 49.2464C81.5684 48.6745 82.0222 48.4895 82.5936 48.8091Z" fill="#DE78FF"/>
<path d="M94.5106 31.1314C95.0821 31.4509 95.5359 32.1742 95.5359 32.7461C95.5359 33.318 95.0821 33.503 94.5106 33.1834C93.9392 32.8638 93.4854 32.1405 93.4854 31.5687C93.4854 30.9968 93.9392 30.8118 94.5106 31.1314Z" fill="#DE78FF"/>
<path d="M106.41 59.0527C106.981 59.3723 107.435 60.0956 107.435 60.6675C107.435 61.2393 106.981 61.4244 106.41 61.1048C105.839 60.7852 105.385 60.0619 105.385 59.4901C105.385 58.9182 105.839 58.7332 106.41 59.0527Z" fill="#DE78FF"/>
<path d="M118.326 58.918C118.897 59.2376 119.351 59.9608 119.351 60.5327C119.351 61.1046 118.897 61.2896 118.326 60.97C117.755 60.6504 117.301 59.9272 117.301 59.3553C117.301 58.7834 117.755 58.5984 118.326 58.918Z" fill="#DE78FF"/>
<path d="M130.243 44.7554C130.814 45.075 131.268 45.7982 131.268 46.3701C131.268 46.942 130.814 47.127 130.243 46.8074C129.672 46.4878 129.218 45.7646 129.218 45.1927C129.218 44.6208 129.672 44.4358 130.243 44.7554Z" fill="#DE78FF"/>
<path d="M142.142 41.1055C142.714 41.4251 143.168 42.1483 143.168 42.7202C143.168 43.2921 142.714 43.4771 142.142 43.1575C141.571 42.8379 141.117 42.1147 141.117 41.5428C141.117 40.9709 141.571 40.7859 142.142 41.1055Z" fill="#DE78FF"/>
<path d="M82.5936 43.5449C83.1651 43.8645 83.6189 44.5878 83.6189 45.1596C83.6189 45.7315 83.1651 45.9165 82.5936 45.597C82.0222 45.2774 81.5684 44.5541 81.5684 43.9822C81.5684 43.4104 82.0222 43.2253 82.5936 43.5449Z" fill="#DE78FF"/>
<path d="M94.5106 39.895C95.0821 40.2146 95.5359 40.9379 95.5359 41.5097C95.5359 42.0816 95.0821 42.2666 94.5106 41.9471C93.9392 41.6275 93.4854 40.9042 93.4854 40.3323C93.4854 39.7605 93.9392 39.5754 94.5106 39.895Z" fill="#DE78FF"/>
<path d="M106.41 29.231C106.981 29.5505 107.435 30.2738 107.435 30.8457C107.435 31.4176 106.981 31.6026 106.41 31.283C105.839 30.9634 105.385 30.2402 105.385 29.6683C105.385 29.0964 105.839 28.9114 106.41 29.231Z" fill="#DE78FF"/>
<path d="M118.326 48.3892C118.897 48.7087 119.351 49.432 119.351 50.0039C119.351 50.5758 118.897 50.7608 118.326 50.4412C117.755 50.1216 117.301 49.3984 117.301 48.8265C117.301 48.2546 117.755 48.0696 118.326 48.3892Z" fill="#DE78FF"/>
<path d="M130.243 58.7837C130.814 59.1033 131.268 59.8265 131.268 60.3984C131.268 60.9703 130.814 61.1553 130.243 60.8357C129.672 60.5162 129.218 59.7929 129.218 59.221C129.218 58.6491 129.672 58.4641 130.243 58.7837Z" fill="#DE78FF"/>
<path d="M142.142 79.708C142.714 80.0276 143.168 80.7509 143.168 81.3227C143.168 81.8946 142.714 82.0796 142.142 81.7601C141.571 81.4405 141.117 80.7172 141.117 80.1453C141.117 79.5735 141.571 79.3884 142.142 79.708Z" fill="#DE78FF"/>
<path d="M82.5936 40.1133C83.1651 40.4329 83.6189 41.1561 83.6189 41.728C83.6189 42.2999 83.1651 42.4849 82.5936 42.1653C82.0222 41.8457 81.5684 41.1225 81.5684 40.5506C81.5684 39.9787 82.0222 39.7937 82.5936 40.1133Z" fill="#C858F0"/>
<path d="M94.5106 43.4102C95.0821 43.7297 95.5359 44.453 95.5359 45.0249C95.5359 45.5968 95.0821 45.7818 94.5106 45.4622C93.9392 45.1426 93.4854 44.4194 93.4854 43.8475C93.4854 43.2756 93.9392 43.0906 94.5106 43.4102Z" fill="#C858F0"/>
<path d="M118.326 29.0962C118.897 29.4158 119.351 30.139 119.351 30.7109C119.351 31.2828 118.897 31.4678 118.326 31.1482C117.755 30.8287 117.301 30.1054 117.301 29.5335C117.301 28.9616 117.755 28.7766 118.326 29.0962Z" fill="#C858F0"/>
<path d="M130.243 71.062C130.814 71.3816 131.268 72.1049 131.268 72.6767C131.268 73.2486 130.814 73.4336 130.243 73.1141C129.672 72.7945 129.218 72.0712 129.218 71.4993C129.218 70.9275 129.672 70.7424 130.243 71.062Z" fill="#C858F0"/>
<path d="M142.142 83.2061C142.714 83.5256 143.168 84.2489 143.168 84.8208C143.168 85.3927 142.714 85.5777 142.142 85.2581C141.571 84.9385 141.117 84.2153 141.117 83.6434C141.117 83.0715 141.571 82.8865 142.142 83.2061Z" fill="#C858F0"/>
<path d="M82.5936 36.5308C83.1651 36.8503 83.6189 37.5736 83.6189 38.1455C83.6189 38.7174 83.1651 38.9024 82.5936 38.5828C82.0222 38.2632 81.5684 37.54 81.5684 36.9681C81.5684 36.3962 82.0222 36.2112 82.5936 36.5308Z" fill="#FFBBFA"/>
<path d="M94.5106 20.6021C95.0821 20.9216 95.5359 21.6449 95.5359 22.2168C95.5359 22.7887 95.0821 22.9737 94.5106 22.6541C93.9392 22.3345 93.4854 21.6113 93.4854 21.0394C93.4854 20.4675 93.9392 20.2825 94.5106 20.6021Z" fill="#FFBBFA"/>
<path d="M105.671 37.0186C106.242 37.3381 106.696 38.0614 106.696 38.6333C106.696 39.2052 106.242 39.3902 105.671 39.0706C105.099 38.751 104.646 38.0278 104.646 37.4559C104.646 36.884 105.099 36.699 105.671 37.0186Z" fill="#FFBBFA"/>
<path d="M118.326 53.6704C118.897 53.99 119.351 54.7133 119.351 55.2851C119.351 55.857 118.897 56.042 118.326 55.7225C117.755 55.4029 117.301 54.6796 117.301 54.1077C117.301 53.5359 117.755 53.3508 118.326 53.6704Z" fill="#FFBBFA"/>
<path d="M130.243 50.0205C130.814 50.3401 131.268 51.0633 131.268 51.6352C131.268 52.2071 130.814 52.3921 130.243 52.0726C129.672 51.753 129.218 51.0297 129.218 50.4578C129.218 49.8859 129.672 49.7009 130.243 50.0205Z" fill="#FFBBFA"/>
<path d="M142.142 51.063C142.714 51.3826 143.168 52.1058 143.168 52.6777C143.168 53.2496 142.714 53.4346 142.142 53.115C141.571 52.7955 141.117 52.0722 141.117 51.5003C141.117 50.9284 141.571 50.7434 142.142 51.063Z" fill="#FFBBFA"/>
<path d="M82.5936 33.0151C83.1651 33.3347 83.6189 34.058 83.6189 34.6299C83.6189 35.2017 83.1651 35.3868 82.5936 35.0672C82.0222 34.7476 81.5684 34.0243 81.5684 33.4525C81.5684 32.8806 82.0222 32.6956 82.5936 33.0151Z" fill="#FFBBFA"/>
<path d="M94.5106 53.9395C95.0821 54.259 95.5359 54.9823 95.5359 55.5542C95.5359 56.1261 95.0821 56.3111 94.5106 55.9915C93.9392 55.6719 93.4854 54.9487 93.4854 54.3768C93.4854 53.8049 93.9392 53.6199 94.5106 53.9395Z" fill="#FFBBFA"/>
<path d="M106.41 50.2891C106.981 50.6086 107.435 51.3319 107.435 51.9038C107.435 52.4757 106.981 52.6607 106.41 52.3411C105.839 52.0215 105.385 51.2983 105.385 50.7264C105.385 50.1545 105.839 49.9695 106.41 50.2891Z" fill="#FFBBFA"/>
<path d="M118.326 64.1826C118.897 64.5022 119.351 65.2255 119.351 65.7973C119.351 66.3692 118.897 66.5542 118.326 66.2347C117.755 65.9151 117.301 65.1918 117.301 64.6199C117.301 64.0481 117.755 63.863 118.326 64.1826Z" fill="#FFBBFA"/>
<path d="M134.849 56.2437C135.42 56.5632 135.874 57.2865 135.874 57.8584C135.874 58.4303 135.42 58.6153 134.849 58.2957C134.277 57.9761 133.823 57.2529 133.823 56.681C133.823 56.1091 134.277 55.9241 134.849 56.2437Z" fill="#FFBBFA"/>
<path d="M142.142 41.1055C142.714 41.4251 143.168 42.1483 143.168 42.7202C143.168 43.2921 142.714 43.4771 142.142 43.1575C141.571 42.8379 141.117 42.1147 141.117 41.5428C141.117 40.9709 141.571 40.7859 142.142 41.1055Z" fill="#FFBBFA"/>
<path d="M158.63 72.9627C158.63 73.6018 158.109 73.8205 157.47 73.4504C156.832 73.0804 156.311 72.2562 156.311 71.6171C156.311 70.9779 156.832 70.7592 157.47 71.1293C158.109 71.4993 158.63 72.3235 158.63 72.9627Z" fill="#DE78FF"/>
<path d="M158.613 83.4246C158.613 84.0637 158.092 84.2824 157.454 83.9123C156.815 83.5423 156.294 82.7181 156.294 82.079C156.294 81.4398 156.815 81.2211 157.454 81.5912C158.092 81.9612 158.613 82.7854 158.613 83.4246Z" fill="#FFBBFA"/>
<path d="M158.613 93.887C158.613 94.5261 158.092 94.7448 157.454 94.3748C156.815 94.0047 156.294 93.1805 156.294 92.5414C156.294 91.9022 156.815 91.6836 157.454 92.0536C158.092 92.4236 158.613 93.2478 158.613 93.887Z" fill="#C858F0"/>
<path d="M158.63 52.0051C158.63 52.6443 158.109 52.863 157.47 52.4929C156.832 52.1229 156.311 51.2987 156.311 50.6595C156.311 50.0204 156.832 49.8017 157.47 50.1718C158.109 50.5418 158.63 51.366 158.63 52.0051Z" fill="#DE78FF"/>
<path d="M158.63 62.467C158.63 63.1062 158.109 63.3249 157.47 62.9548C156.832 62.5848 156.311 61.7606 156.311 61.1214C156.311 60.4823 156.832 60.2636 157.47 60.6337C158.109 61.0037 158.63 61.8279 158.63 62.467Z" fill="#FFBBFA"/>
</g>
<defs>
<linearGradient id="paint0_linear_87_6029" x1="104.864" y1="141.925" x2="92.2581" y2="141.925" gradientUnits="userSpaceOnUse">
<stop stop-color="#CB89F0"/>
<stop offset="1" stop-color="#8B3DCE"/>
</linearGradient>
<linearGradient id="paint1_linear_87_6029" x1="13.6486" y1="119.251" x2="17.9225" y2="126.633" gradientUnits="userSpaceOnUse">
<stop offset="0.62" stop-color="#FFBFFF"/>
<stop offset="0.86" stop-color="#E09CFF"/>
<stop offset="1" stop-color="#CB89F0"/>
</linearGradient>
<linearGradient id="paint2_linear_87_6029" x1="23.0781" y1="125.694" x2="25.5684" y2="130.032" gradientUnits="userSpaceOnUse">
<stop offset="0.62" stop-color="#FFBFFF"/>
<stop offset="0.86" stop-color="#E09CFF"/>
<stop offset="1" stop-color="#CB89F0"/>
</linearGradient>
<clipPath id="clip0_87_6029">
<rect width="177" height="170" fill="white" transform="translate(0.438477 0.367676)"/>
</clipPath>
</defs>
</svg>
