<svg width="178" height="171" viewBox="0 0 178 171" fill="none" xmlns="http://www.w3.org/2000/svg">
<g clip-path="url(#clip0_0_10356)">
<g style="mix-blend-mode:multiply" opacity="0.7">
<path d="M163.253 129.206L76.7951 79.1159C75.6185 78.4262 74.0891 78.0898 72.5596 78.0898H67.0299C65.5004 78.0898 63.9877 78.4431 62.8112 79.1159L2.2201 114.017C-0.149764 115.38 -0.149764 117.583 2.18648 118.963L88.6444 169.053C89.7537 169.692 91.1655 170.028 92.6278 170.079C92.7118 170.079 98.2919 170.079 98.3759 170.079C99.9222 170.079 101.469 169.742 102.645 169.053L163.219 134.134C165.589 132.772 165.589 130.568 163.253 129.189V129.206Z" fill="#50197C"/>
</g>
<path d="M5.90114 115.228L96.2248 167.64L160.497 130.501C162.144 129.542 165.136 128.331 163.488 127.389L73.7363 75.4995C73.0808 75.1127 68.4587 75.2472 67.8032 75.6341L5.21204 111.831C3.91786 113.109 5.06077 114.757 5.90114 115.245V115.228Z" fill="#2F0C3A"/>
<path d="M165.304 129.542C165.304 130.45 164.715 131.342 163.522 132.032L102.948 166.95C100.578 168.312 96.7626 168.312 94.4263 166.95L5.9179 115.666C4.75819 114.993 4.16992 114.101 4.16992 113.21V115.296C4.16992 116.187 4.75819 117.079 5.9179 117.751L94.4263 169.019C96.7626 170.381 100.595 170.381 102.948 169.019L163.522 134.1C164.715 133.411 165.304 132.519 165.304 131.611V129.525V129.542Z" fill="url(#paint0_linear_0_10356)"/>
<path d="M18.6916 124.109L11.9518 120.207C11.6325 120.022 11.3804 120.173 11.3804 120.543V120.728C11.3804 121.098 11.6325 121.536 11.9518 121.721L18.6916 125.623C19.011 125.808 19.2631 125.657 19.2631 125.287V125.102C19.2631 124.731 19.011 124.277 18.6916 124.109Z" fill="#8B3DCE"/>
<path d="M19.633 124.547C19.5826 124.412 19.5154 124.294 19.4482 124.177C19.3473 124.042 19.2465 123.941 19.1288 123.874L12.389 119.972C12.2377 119.888 12.0865 119.871 11.9856 119.938L11.5654 120.173C11.6663 120.106 11.8175 120.123 11.9688 120.207L18.7086 124.109C18.8263 124.177 18.9439 124.294 19.028 124.412C19.112 124.53 19.1792 124.648 19.2129 124.782C19.2465 124.883 19.2633 125.001 19.2633 125.102V125.287C19.2633 125.472 19.196 125.606 19.0952 125.657L19.5154 125.421C19.6162 125.354 19.6835 125.236 19.6835 125.051V124.866C19.6835 124.765 19.6667 124.648 19.633 124.547Z" fill="url(#paint1_linear_0_10356)"/>
<path d="M26.4065 128.432C26.3561 128.298 26.2888 128.18 26.2216 128.062C26.1207 127.928 26.0199 127.827 25.9023 127.759L22.7088 125.909C22.5576 125.825 22.4063 125.808 22.3054 125.876L21.8853 126.111C21.9861 126.044 22.1374 126.061 22.2886 126.145L25.4821 127.995C25.5997 128.062 25.7174 128.18 25.8014 128.298C25.8854 128.415 25.9527 128.533 25.9863 128.668C26.0199 128.785 26.0367 128.886 26.0367 128.987V129.172C26.0367 129.357 25.9695 129.492 25.8686 129.542L26.2888 129.307C26.3897 129.24 26.4569 129.122 26.4569 128.937V128.752C26.4569 128.651 26.4401 128.533 26.4065 128.432Z" fill="url(#paint2_linear_0_10356)"/>
<path d="M25.4651 127.995L22.2717 126.144C21.9523 125.959 21.7002 126.111 21.7002 126.481V126.666C21.7002 127.036 21.9523 127.49 22.2717 127.658L25.4651 129.508C25.7844 129.693 26.0365 129.542 26.0365 129.172V128.987C26.0365 128.617 25.7844 128.163 25.4651 127.995Z" fill="#8B3DCE"/>
<path d="M163.556 127.087L75.0473 75.8192C72.711 74.4568 68.8789 74.4568 66.5258 75.8192L5.95154 110.738C3.58168 112.1 3.58168 114.303 5.91793 115.683L94.4263 166.95C96.7626 168.312 100.595 168.312 102.948 166.95L163.522 132.032C165.892 130.669 165.892 128.466 163.556 127.087ZM160.967 127.406L95.0986 165.369C94.6112 165.655 93.9893 165.655 93.5019 165.369L5.88431 114.64C4.79182 114.001 4.79182 112.436 5.88431 111.797L26.087 100.141L29.1291 100.427L51.0797 87.7446L50.5923 86.0121L66.7612 76.6938C69.2823 75.2305 72.3917 75.2473 74.9296 76.6938L160.967 126.515C161.303 126.717 161.303 127.188 160.967 127.389V127.406Z" fill="#412B42"/>
<path d="M134.529 146.429L133.386 145.773C132.815 145.437 131.857 145.471 131.218 145.858L127.151 148.212C126.932 148.33 126.764 148.498 126.663 148.666C126.445 149.053 126.579 149.474 126.999 149.709L128.142 150.365C128.714 150.702 129.672 150.668 130.31 150.281L134.378 147.926C134.596 147.809 134.764 147.64 134.865 147.472C135.084 147.085 134.949 146.665 134.529 146.429Z" fill="#342135"/>
<path d="M134.529 146.817L133.386 146.161C132.814 145.824 131.856 145.858 131.218 146.245L127.15 148.6C126.932 148.717 126.764 148.886 126.663 149.054C126.629 149.121 126.613 149.188 126.596 149.256C126.663 149.441 126.797 149.609 126.999 149.727L128.142 150.382C128.713 150.719 129.671 150.685 130.31 150.298L134.378 147.944C134.596 147.826 134.764 147.658 134.865 147.489C134.899 147.422 134.915 147.355 134.932 147.288C134.865 147.103 134.731 146.934 134.529 146.817Z" fill="#412B42"/>
<path d="M39.8355 93.3457C39.4657 93.5644 38.8774 93.5644 38.5245 93.3457C38.1547 93.127 38.1715 92.7906 38.5245 92.5888C38.8942 92.3701 39.4825 92.3701 39.8355 92.5888C40.2052 92.8075 40.1884 93.1439 39.8355 93.3457Z" fill="#191414"/>
<path opacity="0.1" d="M38.7093 93.2618C38.9782 93.4132 39.4152 93.3963 39.6842 93.2281C39.9531 93.0599 39.9363 92.8076 39.6673 92.6563C39.3984 92.5049 38.9614 92.5217 38.6925 92.6731C38.4236 92.8245 38.4404 93.0936 38.7093 93.245V93.2618Z" fill="#D0D6D6"/>
<path opacity="0.1" d="M38.911 93.1102C39.0622 93.1943 39.2975 93.1775 39.432 93.1102C39.5833 93.0261 39.5664 92.8915 39.432 92.8074C39.2807 92.7233 39.0454 92.7401 38.911 92.8074C38.7597 92.8915 38.7765 93.0261 38.911 93.1102Z" fill="#D0D6D6"/>
<g style="mix-blend-mode:screen" opacity="0.2">
<path d="M39.0793 93.0097C39.0793 93.0097 39.2138 93.0433 39.281 93.0097C39.3314 92.976 39.3314 92.9256 39.281 92.8919C39.2306 92.8583 39.1466 92.8583 39.0793 92.8919C39.0289 92.9256 39.0289 92.976 39.0793 93.0097Z" fill="#D0D6D6"/>
</g>
<path d="M48.3905 87.3579L44.1719 89.7968C43.9029 89.9482 43.8861 90.1836 44.1046 90.3014C44.3231 90.4359 44.7265 90.4191 44.9786 90.2677L49.1973 87.8288C49.4662 87.6775 49.483 87.442 49.2645 87.3242C49.046 87.2065 48.6427 87.2065 48.3905 87.3579Z" fill="#191414"/>
<path d="M33.1461 96.1547L28.9274 98.5936C28.6753 98.745 28.6417 98.9804 28.8602 99.0982C29.0787 99.2327 29.4821 99.2159 29.7342 99.0645L33.9529 96.6256C34.2218 96.4743 34.2386 96.2388 34.0201 96.121C33.8016 95.9865 33.3982 96.0033 33.1461 96.1547Z" fill="#191414"/>
<path d="M134.445 150.483L131.386 152.25C131.033 152.451 130.748 152.334 130.748 151.98C130.748 151.627 131.033 151.173 131.386 150.954L134.445 149.188C134.798 148.986 135.084 149.104 135.084 149.457C135.084 149.811 134.798 150.265 134.445 150.483Z" fill="#342135"/>
<mask id="mask0_0_10356" style="mask-type:luminance" maskUnits="userSpaceOnUse" x="130" y="149" width="6" height="4">
<path d="M134.445 150.483L131.386 152.25C131.033 152.451 130.748 152.334 130.748 151.98C130.748 151.627 131.033 151.173 131.386 150.954L134.445 149.188C134.798 148.986 135.084 149.104 135.084 149.457C135.084 149.811 134.798 150.265 134.445 150.483Z" fill="white"/>
</mask>
<g mask="url(#mask0_0_10356)">
<path d="M130.21 150.955L129.79 151.207L131.302 152.082L131.722 151.829L130.21 150.955ZM131.151 150.416L130.731 150.669L132.243 151.543L132.664 151.291L131.151 150.416ZM132.092 149.878L131.672 150.13L133.185 151.005L133.605 150.753L132.092 149.878ZM133.017 149.34L132.596 149.592L134.109 150.467L134.529 150.214L133.017 149.34Z" fill="#7C633C"/>
</g>
<g opacity="0.4">
<g style="mix-blend-mode:screen">
<path d="M158.462 116.944L74.1896 68.2505L8.58984 106.146L92.8628 154.84C93.7031 155.328 95.0645 155.328 95.8881 154.84L158.446 118.694C159.286 118.206 159.286 117.432 158.446 116.944H158.462Z" fill="#7B38D4"/>
</g>
<path d="M76.0721 69.3268L10.4724 107.222L6.62345 105.002C5.78307 104.514 5.78307 103.741 6.62345 103.253L69.181 67.1066C70.0214 66.6188 71.3828 66.6188 72.2064 67.1066L76.0553 69.3268H76.0721Z" fill="#8821D8"/>
</g>
<g opacity="0.7">
<g style="mix-blend-mode:screen">
<path d="M158.462 109.577L74.1896 60.8833L8.58984 98.7956L92.8628 147.49C93.7031 147.977 95.0645 147.977 95.8881 147.49L158.446 111.343C159.286 110.856 159.286 110.082 158.446 109.594L158.462 109.577Z" fill="#7B38D4"/>
</g>
<path d="M76.0721 61.9767L10.4724 99.8722L6.62345 97.652C5.78307 97.1642 5.78307 96.3905 6.62345 95.9027L69.181 59.7565C70.0214 59.2687 71.3828 59.2687 72.2064 59.7565L76.0553 61.9767H76.0721Z" fill="#8821D8"/>
</g>
<g style="mix-blend-mode:screen">
<path d="M158.462 102.227L74.1896 53.5327L8.58984 91.4282L92.8628 140.122C93.7031 140.61 95.0645 140.61 95.8881 140.122L158.446 103.976C159.286 103.488 159.286 102.714 158.446 102.227H158.462Z" fill="#7B38D4"/>
</g>
<path d="M76.0721 54.6261L10.4724 92.5216L6.62345 90.3014C5.78307 89.8136 5.78307 89.0399 6.62345 88.5521L69.181 52.4059C70.0214 51.9181 71.3828 51.9181 72.2064 52.4059L76.0553 54.6261H76.0721Z" fill="#8821D8"/>
<path d="M65.1977 59.7731L61.7857 61.7411L58.3906 59.7731L61.7857 57.8052L65.1977 59.7731Z" fill="#6811BC"/>
<path d="M69.4164 57.3342L66.0045 59.3021L62.6094 57.3342L66.0045 55.3662L69.4164 57.3342Z" fill="#6811BC"/>
<path d="M63.6851 57.3339L66.0045 58.6795L68.3239 57.3339L66.0045 55.9883L63.6851 57.3339ZM67.534 57.3339L66.0045 58.2085L64.475 57.3339L66.0045 56.4592L67.534 57.3339Z" fill="#F6C2FF"/>
<path d="M73.6352 54.8952L70.2232 56.8631L66.8281 54.8952L70.2232 52.9272L73.6352 54.8952Z" fill="#6811BC"/>
<path d="M68.2231 55.0635H70.0384V56.1064H70.6266V55.0635H72.4418V54.7271H70.6266V53.6675H70.0384V54.7271H68.2231V55.0635Z" fill="#F6C2FF"/>
<path d="M64.0715 59.8068L61.8865 61.0683L61.4663 60.8328L63.6513 59.5713L64.0715 59.8068Z" fill="#F6C2FF"/>
<path opacity="0.3" d="M156.11 102.984L94.1573 138.777L14.4561 92.7237L76.4086 56.9307L156.11 102.984Z" fill="#FFBBFA"/>
<g style="mix-blend-mode:overlay" opacity="0.5">
<path d="M156.11 102.984L94.1573 138.777L14.4561 92.7237L76.4086 56.9307L156.11 102.984Z" fill="#FFBBFA"/>
</g>
<path d="M82.0559 60.1938L20.0866 95.9868L14.4561 92.7237L76.4086 56.9307L82.0559 60.1938Z" fill="#DE78FF"/>
<path d="M87.6694 135.043L94.1571 138.777L156.11 102.984L149.639 99.2329L87.6694 135.043Z" fill="#DE78FF"/>
<path opacity="0.9" d="M97.4684 87.4417C88.9806 92.3363 75.2321 92.3363 66.7443 87.4417C58.2565 82.5471 58.2565 74.5912 66.7443 69.6798C75.2321 64.7851 88.9806 64.7851 97.4684 69.6798C105.956 74.5744 105.956 82.5303 97.4684 87.4417Z" fill="#F6C2FF"/>
<path d="M97.4683 87.4416C88.9805 92.3362 75.2319 92.3362 66.7441 87.4416V89.1909C75.2319 94.0855 88.9805 94.0855 97.4683 89.1909C101.754 86.7183 103.889 83.4552 103.838 80.1922V78.4429C103.889 81.6891 101.771 84.9522 97.4683 87.4416Z" fill="#DE78FF"/>
<path d="M82.4253 72.7578L82.3076 78.3252L81.9211 78.4429L66.7271 69.6797L66.7439 63.7759L82.4253 72.7578Z" fill="#DE78FF"/>
<path d="M82.3076 72.7576V78.611L97.6697 69.73L97.6865 63.8262L82.3076 72.7576Z" fill="#DE78FF"/>
<g style="mix-blend-mode:screen" opacity="0.5">
<path d="M97.6868 63.8265L82.3079 72.7748L66.7441 63.7761C75.316 58.8814 89.0981 58.8983 97.6868 63.8265Z" fill="#FFBBFA"/>
</g>
<path d="M60.3066 74.894V77.9385L82.3077 78.3758V74.894H60.3066Z" fill="#DE78FF"/>
<g style="mix-blend-mode:overlay" opacity="0.5">
<path d="M66.7271 65.8784C62.458 68.3846 60.3066 71.6309 60.3066 74.894H82.3077L66.7271 65.8784Z" fill="#FFBBFA"/>
</g>
<path d="M66.7104 85.6252C63.6347 83.8422 61.4329 81.5211 60.5925 78.8635C60.3908 78.1571 60.3068 77.4843 60.3068 76.7778V77.2993C60.29 78.3926 60.3068 80.9997 60.5925 82.0761L60.6261 82.1939C61.2984 84.8178 63.3657 87.2231 66.8617 89.2415C66.9962 89.3256 67.1474 89.3929 67.2819 89.477V85.9279C67.097 85.827 66.8953 85.7093 66.7104 85.6083V85.6252Z" fill="#DE78FF"/>
<path d="M82.3077 76.8115V78.6113L67.2817 87.7445V85.9448L82.3077 76.8115Z" fill="#DE78FF"/>
<g style="mix-blend-mode:overlay" opacity="0.5">
<path d="M82.3077 76.8115L67.2818 85.9447C67.0801 85.8438 66.8952 85.7261 66.7103 85.6252C63.6345 83.8422 61.4327 81.5211 60.5924 78.8635C60.4075 78.2412 60.3066 77.5347 60.3066 76.7778L82.3077 76.8115Z" fill="#FFBBFA"/>
</g>
<path d="M40.5413 90.7552L30.7089 96.4404L29.6836 95.8517L39.5328 90.1665L40.5413 90.7552Z" fill="#C858F0"/>
<path d="M37.3645 94.7584L32.5912 97.5169L31.5659 96.945L36.3393 94.1865L37.3645 94.7584Z" fill="#C858F0"/>
<path d="M49.9532 89.6619L34.4735 98.6102L33.4482 98.0215L48.9448 89.0732L49.9532 89.6619Z" fill="#FFBBFA"/>
<path d="M59.0969 86.5501L36.3395 99.7034L35.3311 99.1147L58.0884 85.9614L59.0969 86.5501Z" fill="#DE78FF"/>
<path d="M59.248 88.6527L38.2218 100.78L37.2134 100.208L58.2396 88.064L59.248 88.6527Z" fill="#DE78FF"/>
<path d="M58.1386 91.4618L40.1042 101.873L39.0957 101.285L57.1134 90.873L58.1386 91.4618Z" fill="#C858F0"/>
<path d="M56.4746 94.5899L41.9865 102.966L40.978 102.378L55.4493 94.0181L56.4746 94.5899Z" fill="#C858F0"/>
<path d="M55.3152 97.4495L43.8693 104.043L42.8608 103.471L54.29 96.8608L55.3152 97.4495Z" fill="#C858F0"/>
<path d="M63.7693 94.7244L45.7516 105.136L44.7432 104.547L62.7608 94.1357L63.7693 94.7244Z" fill="#DE78FF"/>
<path d="M66.4584 95.347L47.6339 106.23L46.6255 105.641L65.4499 94.7583L66.4584 95.347Z" fill="#DE78FF"/>
<path d="M65.08 98.324L49.5163 107.306L48.5078 106.717L64.0716 97.7354L65.08 98.324Z" fill="#FFBBFA"/>
<path d="M64.2064 100.998L51.3991 108.399L50.3906 107.81L63.198 100.41L64.2064 100.998Z" fill="#C858F0"/>
<path d="M71.3831 99.0306L53.2814 109.493L52.2729 108.904L70.3578 98.4419L71.3831 99.0306Z" fill="#FFBBFA"/>
<path d="M74.3747 99.4679L55.1637 110.569L54.1553 109.98L73.3495 98.896L74.3747 99.4679Z" fill="#FFBBFA"/>
<path d="M55.7856 110.67L55.1637 111.023L28.8936 95.8518L29.4986 95.4985L55.7856 110.67Z" fill="#C858F0"/>
<path d="M64.0045 114.808C64.6264 115.162 64.6264 115.733 64.0045 116.104C63.3827 116.457 62.391 116.457 61.7691 116.104C61.1473 115.75 61.1473 115.178 61.7691 114.808C62.391 114.455 63.3827 114.455 64.0045 114.808Z" fill="#C858F0"/>
<path d="M69.4333 117.953C70.0551 118.307 70.0551 118.878 69.4333 119.249C68.8114 119.602 67.8197 119.602 67.1979 119.249C66.576 118.895 66.576 118.323 67.1979 117.953C67.8197 117.6 68.8114 117.6 69.4333 117.953Z" fill="#C858F0"/>
<path d="M74.7951 121.032C75.417 121.385 75.417 121.957 74.7951 122.327C74.1732 122.68 73.1815 122.68 72.5597 122.327C71.9378 121.973 71.9378 121.402 72.5597 121.032C73.1815 120.678 74.1732 120.678 74.7951 121.032Z" fill="#C858F0"/>
<path d="M80.1901 124.16C80.812 124.513 80.812 125.085 80.1901 125.455C79.5682 125.808 78.5766 125.808 77.9547 125.455C77.3328 125.102 77.3328 124.53 77.9547 124.16C78.5766 123.807 79.5682 123.807 80.1901 124.16Z" fill="#C858F0"/>
<path d="M85.5348 127.255C86.1567 127.608 86.1567 128.18 85.5348 128.55C84.9129 128.904 83.9213 128.904 83.2994 128.55C82.6775 128.197 82.6775 127.625 83.2994 127.255C83.9213 126.902 84.9129 126.902 85.5348 127.255Z" fill="#C858F0"/>
<path d="M92.9976 99.4179L96.2247 97.5508L95.8045 97.3154L92.5775 99.1824L92.9976 99.4179ZM78.5768 107.744L85.8208 103.556L85.4006 103.32L78.1566 107.508L78.5768 107.744ZM86.3923 103.236L92.4262 99.7543L92.006 99.5188L85.9721 103.001L86.3923 103.236ZM78.0053 108.08L77.5851 107.845L67.3326 113.765L67.7527 114.001L78.0053 108.08ZM96.7961 97.2313L101.385 94.5737L100.964 94.3382L96.376 96.9958L96.7961 97.2313ZM66.156 113.008L69.5343 111.057L69.1142 110.822L65.7358 112.773L66.156 113.008ZM95.7541 95.4315L96.1743 95.667L100.191 93.3458L99.7711 93.1104L95.7541 95.4315ZM88.3252 100.208L95.6028 96.0034L95.1826 95.7679L87.905 99.9729L88.3252 100.208ZM84.5266 102.395L87.7537 100.528L87.3335 100.293L84.1065 102.16L84.5266 102.395ZM79.9382 105.053L83.9552 102.731L83.535 102.496L79.518 104.817L79.9382 105.053ZM70.1058 110.738L79.3667 105.389L78.9466 105.153L69.6856 110.502L70.1058 110.738Z" fill="#DE78FF"/>
<path d="M89.468 104.968L89.8882 105.204L95.9221 101.722L95.5019 101.487L89.468 104.968ZM89.3167 105.54L88.8965 105.305L81.6525 109.493L82.0727 109.728L89.3167 105.54ZM90.6109 106.23L91.0311 106.465L95.0481 104.144L94.6279 103.909L90.6109 106.23ZM95.1994 103.572L95.6196 103.808L98.8466 101.941L98.4264 101.705L95.1994 103.572ZM106.276 97.1806L98.9979 101.386L99.4181 101.621L106.696 97.4161L106.276 97.1806ZM80.6272 112.47L80.2071 112.235L72.442 116.725L72.8622 116.961L80.6272 112.47ZM102.712 97.3152L96.0734 101.15L96.4935 101.386L103.133 97.5506L102.712 97.3152ZM81.518 110.048L81.0979 109.812L70.7612 115.784L71.1814 116.019L81.518 110.048ZM103.284 96.9788L103.704 97.2142L107.587 94.9772L107.166 94.7417L103.284 96.9788ZM90.4596 106.802L90.0395 106.566L80.7785 111.915L81.1987 112.15L90.4596 106.802Z" fill="#DE78FF"/>
<path d="M92.0394 109.88L92.4596 110.115L96.4766 107.794L96.0564 107.559L92.0394 109.88ZM93.031 111.713L92.6109 111.478L85.4677 115.599L85.8879 115.834L93.031 111.713ZM99.8549 105.372L96.6279 107.239L97.048 107.475L100.275 105.607L99.8549 105.372ZM100.426 105.036L100.847 105.271L108.124 101.066L107.704 100.831L100.426 105.036ZM108.007 103.051L112.242 100.612L111.822 100.376L107.586 102.815L108.007 103.051ZM82.0557 116.137L81.6356 115.901L76.3916 118.929L76.8118 119.164L82.0557 116.137ZM91.4679 110.216L82.207 115.565L82.6272 115.8L91.8881 110.452L91.4679 110.216ZM93.1823 111.141L93.6025 111.377L100.847 107.189L100.426 106.953L93.1823 111.141ZM107.032 103.135L100.998 106.617L101.418 106.852L107.452 103.37L107.032 103.135ZM110.444 99.2495L108.275 100.511L108.696 100.746L110.864 99.485L110.444 99.2495ZM85.3164 116.17L84.8962 115.935L78.0387 119.905L78.4589 120.14L85.3164 116.17Z" fill="#DE78FF"/>
<path d="M94.6278 117.012L101.872 112.824L101.452 112.588L94.2076 116.776L94.6278 117.012ZM102.426 112.504L108.46 109.022L108.04 108.787L102.006 112.269L102.426 112.504ZM94.0563 117.348L93.6361 117.113L83.3835 123.033L83.8037 123.269L94.0563 117.348ZM82.1902 122.277L85.5685 120.325L85.1483 120.09L81.77 122.041L82.1902 122.277ZM111.788 104.7L112.208 104.935L116.225 102.614L115.805 102.378L111.788 104.7ZM104.359 109.476L111.637 105.271L111.217 105.036L103.939 109.241L104.359 109.476ZM100.561 111.663L103.788 109.796L103.368 109.561L100.141 111.428L100.561 111.663ZM95.9724 114.321L99.9894 111.999L99.5692 111.764L95.5522 114.085L95.9724 114.321ZM86.14 119.989L95.4009 114.64L94.9807 114.405L85.7198 119.754L86.14 119.989Z" fill="#DE78FF"/>
<path d="M110.023 111.898L110.444 112.151L116.478 108.652L116.057 108.417L110.023 111.898Z" fill="#DE78FF"/>
<path d="M104.443 117.045L104.847 117.281L108.881 114.96L108.46 114.724L104.443 117.045Z" fill="#DE78FF"/>
<path d="M109.452 112.235L102.208 116.406L102.628 116.659L109.872 112.47L109.452 112.235Z" fill="#DE78FF"/>
<path d="M115.268 110.788L109.015 114.404L109.435 114.64L115.688 111.024L115.268 110.788Z" fill="#DE78FF"/>
<path d="M102.057 116.978L101.637 116.743L87.0479 125.17L87.468 125.422L102.057 116.978Z" fill="#DE78FF"/>
<path d="M116.629 108.08L117.049 108.333L120.276 106.466L119.856 106.213L116.629 108.08Z" fill="#DE78FF"/>
<path d="M94.4598 123.302L94.0396 123.05L88.8125 126.077L89.2159 126.313L94.4598 123.302Z" fill="#DE78FF"/>
<path d="M103.872 117.382L94.6108 122.731L95.031 122.966L104.292 117.617L103.872 117.382Z" fill="#DE78FF"/>
<path d="M120.427 105.894L120.847 106.129L123.587 104.548L123.167 104.312L120.427 105.894Z" fill="#DE78FF"/>
<path d="M148.093 87.8793C147.992 87.8288 147.925 87.8624 147.925 87.9465V88.8716L136.361 82.1941V81.269C136.361 81.1681 136.277 81.0503 136.193 80.9999C136.092 80.9494 136.025 80.983 136.025 81.0672V81.9922L124.461 75.3147V74.3896C124.461 74.2887 124.377 74.1709 124.293 74.1205C124.193 74.07 124.125 74.1037 124.125 74.1878V75.1129L112.562 68.4353V67.5102C112.562 67.4093 112.478 67.2915 112.394 67.2411C112.293 67.1906 112.226 67.2243 112.226 67.3084V68.2335L100.662 61.5559V60.6308C100.662 60.5299 100.578 60.4122 100.494 60.3617C100.393 60.3112 100.326 60.3449 100.326 60.429V61.3541L88.7623 54.6765V53.7514C88.7623 53.6505 88.6783 53.5328 88.5942 53.4823C88.4934 53.4318 88.4261 53.4655 88.4261 53.5496V54.4747L78.4761 48.7222L76.8626 47.7971V39.3703L77.9046 39.9758C78.0055 40.0263 78.0727 39.9926 78.0727 39.9085C78.0727 39.8244 77.9887 39.6899 77.9046 39.6394L76.8626 39.0339V30.6071L77.9046 31.2126C78.0055 31.2631 78.0727 31.2294 78.0727 31.1453C78.0727 31.0612 77.9887 30.9267 77.9046 30.8762L76.8626 30.2707V21.8438L77.9046 22.4494C78.0055 22.4998 78.0727 22.4662 78.0727 22.3821C78.0727 22.298 77.9887 22.1634 77.9046 22.113L76.8626 21.5074V13.0806L77.9046 13.6861C78.0055 13.7366 78.0727 13.7029 78.0727 13.6188C78.0727 13.5347 77.9887 13.4002 77.9046 13.3497L76.8626 12.7442V4.26691L77.9046 4.87243C78.0055 4.92289 78.0727 4.88925 78.0727 4.80515C78.0727 4.72105 77.9887 4.58649 77.9046 4.53603L75.5348 3.17361C75.4339 3.12315 75.3667 3.15679 75.3667 3.24089C75.3667 3.32499 75.4507 3.45955 75.5348 3.51001L76.5264 4.08189V12.5087L75.5348 11.9368C75.4339 11.8864 75.3667 11.92 75.3667 12.0041C75.3667 12.0882 75.4507 12.2228 75.5348 12.2732L76.5264 12.8451V21.272L75.5348 20.7001C75.4339 20.6496 75.3667 20.6833 75.3667 20.7674C75.3667 20.8515 75.4507 20.986 75.5348 21.0365L76.5264 21.6084V30.0352L75.5348 29.4633C75.4339 29.4128 75.3667 29.4465 75.3667 29.5306C75.3667 29.6147 75.4507 29.7493 75.5348 29.7997L76.5264 30.3716V38.7984L75.5348 38.2265C75.4339 38.1761 75.3667 38.2097 75.3667 38.2938C75.3667 38.3779 75.4507 38.5125 75.5348 38.5629L76.5264 39.1348V47.7299C76.5264 47.8308 76.6105 47.9485 76.6945 47.999L78.4761 49.025L88.4261 54.7775V55.753C88.4261 55.8539 88.5102 55.9717 88.5942 56.0221C88.6951 56.0726 88.7623 56.039 88.7623 55.9549V54.9793L100.326 61.6568V62.6324C100.326 62.7333 100.41 62.8511 100.494 62.9015C100.595 62.952 100.662 62.9183 100.662 62.8342V61.8587L112.226 68.5362V69.5118C112.226 69.6127 112.31 69.7304 112.394 69.7809C112.495 69.8314 112.562 69.7977 112.562 69.7136V68.7381L124.125 75.4156V76.3912C124.125 76.4921 124.209 76.6098 124.293 76.6603C124.394 76.7108 124.461 76.6771 124.461 76.593V75.6175L136.025 82.295V83.2706C136.025 83.3715 136.109 83.4892 136.193 83.5397C136.294 83.5901 136.361 83.5565 136.361 83.4724V82.4968L147.925 89.1744V90.15C147.925 90.2509 148.009 90.3686 148.093 90.4191C148.194 90.4695 148.261 90.4359 148.261 90.3518V88.0979C148.261 87.997 148.177 87.8793 148.093 87.8288V87.8793Z" fill="#8821D8"/>
<path d="M73.8035 46.9559C73.8035 47.0568 73.7866 47.1409 73.7362 47.1914C73.7026 47.2418 73.6522 47.2755 73.585 47.2923C73.5177 47.2923 73.4337 47.2923 73.316 47.2082C73.1984 47.1409 73.0975 47.0568 73.0303 46.9559C72.9631 46.8718 72.9127 46.7709 72.8958 46.6868C72.8622 46.5858 72.8454 46.4849 72.8286 46.384V44.9375C72.8286 44.8366 72.8454 44.7693 72.8958 44.702C72.9295 44.6515 72.9631 44.6179 73.0303 44.6011C73.0975 44.6011 73.1984 44.6011 73.316 44.6852C73.4337 44.7525 73.5345 44.8366 73.585 44.9207C73.6522 45.0048 73.7026 45.1057 73.7362 45.1898C73.7698 45.2907 73.7866 45.3916 73.8035 45.4925V46.9391V46.9559ZM73.4505 45.3075C73.4505 45.3075 73.4505 45.1898 73.4001 45.1225C73.4001 45.0889 73.3496 45.072 73.3328 45.0552C73.2656 45.0216 73.232 45.0552 73.232 45.0889C73.232 45.1057 73.232 45.1393 73.232 45.173V46.6195C73.232 46.6195 73.232 46.754 73.2824 46.8045C73.2824 46.8381 73.316 46.855 73.3496 46.8718C73.4169 46.9054 73.4505 46.8718 73.4505 46.8381C73.4505 46.8213 73.4505 46.7877 73.4505 46.754V45.3075Z" fill="#8821D8"/>
<path d="M73.4672 37.3347C73.4672 37.2337 73.4336 37.1328 73.3496 37.0824C73.316 37.0655 73.2824 37.0824 73.2487 37.0824C73.2151 37.0992 73.2151 37.1496 73.2151 37.1665L72.9126 36.9983V35.7031L73.7866 36.2077V36.5609L73.2319 36.2414V36.746C73.2319 36.746 73.316 36.746 73.3664 36.746C73.6353 36.8805 73.7194 37.0487 73.7866 37.2001C73.837 37.3515 73.8538 37.486 73.8538 37.5197V38.0747C73.8538 38.1925 73.8538 38.3439 73.7866 38.4448C73.7194 38.5457 73.6017 38.5793 73.3832 38.4448C73.1647 38.3102 73.0471 38.142 72.9798 37.957C72.9126 37.772 72.9126 37.587 72.9126 37.4188L73.2656 37.6206V37.7215C73.2656 37.8393 73.2656 37.9402 73.2824 37.9906C73.2824 38.0579 73.3328 38.0916 73.3664 38.1084C73.4 38.1252 73.4336 38.1084 73.4504 38.0916C73.4504 38.0579 73.4841 37.9738 73.4841 37.8561V37.301L73.4672 37.3347Z" fill="#8821D8"/>
<path d="M72.0049 26.9568V26.7213C72.1562 26.7718 72.2402 26.7549 72.3074 26.7213C72.341 26.7045 72.3746 26.6708 72.3915 26.6372L72.6099 26.7549V29.2107L72.257 29.0088V27.0745L72.0217 26.94L72.0049 26.9568Z" fill="#8821D8"/>
<path d="M73.8035 29.4124C73.8035 29.5133 73.7866 29.5974 73.7362 29.6479C73.7026 29.6984 73.6522 29.732 73.585 29.7488C73.5177 29.7488 73.4337 29.7488 73.316 29.6647C73.1984 29.5974 73.0975 29.5133 73.0303 29.4124C72.9631 29.3283 72.9127 29.2274 72.8958 29.1433C72.8622 29.0424 72.8454 28.9415 72.8286 28.8405V27.394C72.8286 27.2931 72.8454 27.2258 72.8958 27.1585C72.9295 27.1081 72.9631 27.0744 73.0303 27.0576C73.0975 27.0576 73.1984 27.0576 73.316 27.1417C73.4337 27.209 73.5345 27.2931 73.585 27.3772C73.6522 27.4613 73.7026 27.5622 73.7362 27.6463C73.7698 27.7472 73.7866 27.8482 73.8035 27.9491V29.3956V29.4124ZM73.4505 27.7641C73.4505 27.7641 73.4505 27.6463 73.4001 27.579C73.4001 27.5454 73.3496 27.5286 73.3328 27.5118C73.2656 27.4781 73.232 27.5118 73.232 27.5454C73.232 27.5622 73.232 27.5959 73.232 27.6295V29.076C73.232 29.076 73.232 29.2106 73.2824 29.261C73.2824 29.2947 73.316 29.3115 73.3496 29.3283C73.4169 29.362 73.4505 29.3283 73.4505 29.2947C73.4505 29.2779 73.4505 29.2442 73.4505 29.2106V27.7641Z" fill="#8821D8"/>
<path d="M72.0386 18.1936V17.9581C72.1898 18.0086 72.2739 17.9918 72.3411 17.9581C72.3747 17.9413 72.4083 17.9077 72.4252 17.874L72.6436 17.9918V20.4475L72.2907 20.2456V18.3113L72.0554 18.1768L72.0386 18.1936Z" fill="#8821D8"/>
<path d="M73.4672 19.7917C73.4672 19.6908 73.4336 19.5899 73.3496 19.5394C73.316 19.5226 73.2824 19.5394 73.2487 19.5394C73.2151 19.5562 73.2151 19.6067 73.2151 19.6235L72.9126 19.4553V18.1602L73.7866 18.6648V19.018L73.2319 18.6984V19.203C73.2319 19.203 73.316 19.203 73.3664 19.203C73.6353 19.3376 73.7194 19.5058 73.7866 19.6571C73.837 19.8085 73.8538 19.9431 73.8538 19.9767V20.5318C73.8538 20.6495 73.8538 20.8009 73.7866 20.9018C73.7194 21.0027 73.6017 21.0364 73.3832 20.9018C73.1647 20.7673 73.0471 20.5991 72.9798 20.414C72.9126 20.229 72.9126 20.044 72.9126 19.8758L73.2656 20.0776V20.1786C73.2656 20.2963 73.2656 20.3972 73.2824 20.4477C73.2824 20.515 73.3328 20.5486 73.3664 20.5654C73.4 20.5822 73.4336 20.5654 73.4504 20.5486C73.4504 20.515 73.4841 20.4309 73.4841 20.3131V19.7581L73.4672 19.7917Z" fill="#8821D8"/>
<path d="M71.6353 9.44747V9.27927C71.6353 9.11107 71.6521 8.95969 71.7361 8.89241C71.8033 8.80831 71.921 8.80831 72.1227 8.92605C72.3076 9.02697 72.4252 9.17835 72.5092 9.32973C72.5765 9.48111 72.6101 9.64931 72.6101 9.81751C72.6101 10.0698 72.5092 10.3053 72.3916 10.5239C72.2739 10.7426 72.1227 10.9108 72.0386 11.0117L72.6101 11.3481V11.7013L71.6353 11.1295V10.7762C71.7529 10.6753 71.8538 10.5576 71.9378 10.4398C72.0218 10.3389 72.0891 10.2044 72.1395 10.0698C72.1899 9.93525 72.2403 9.78387 72.2403 9.64931C72.2403 9.58203 72.2403 9.49793 72.2235 9.43065C72.2235 9.36337 72.1731 9.29609 72.1227 9.27927C72.0723 9.24563 72.0386 9.27927 72.0218 9.31291C72.0218 9.36337 72.005 9.43065 72.005 9.51475V9.68295L71.6521 9.48111L71.6353 9.44747Z" fill="#8821D8"/>
<path d="M73.8035 11.8695C73.8035 11.9704 73.7866 12.0545 73.7362 12.1049C73.7026 12.1554 73.6522 12.189 73.585 12.2059C73.5177 12.2059 73.4337 12.2059 73.316 12.1218C73.1984 12.0545 73.0975 11.9704 73.0303 11.8695C72.9631 11.7854 72.9127 11.6844 72.8958 11.6003C72.8622 11.4994 72.8454 11.3985 72.8286 11.2976V9.85105C72.8286 9.75013 72.8454 9.68285 72.8958 9.61557C72.9295 9.56511 72.9631 9.53147 73.0303 9.51465C73.0975 9.51465 73.1984 9.51465 73.316 9.59875C73.4337 9.66603 73.5345 9.75013 73.585 9.83423C73.6522 9.91833 73.7026 10.0192 73.7362 10.1033C73.7698 10.2043 73.7866 10.3052 73.8035 10.4061V11.8526V11.8695ZM73.4505 10.2211C73.4505 10.2211 73.4505 10.1033 73.4001 10.0361C73.4001 10.0024 73.3496 9.98561 73.3328 9.96879C73.2656 9.93515 73.232 9.96879 73.232 10.0024C73.232 10.0192 73.232 10.0529 73.232 10.0865V11.5331C73.232 11.5331 73.232 11.6676 73.2824 11.7181C73.2824 11.7517 73.316 11.7685 73.3496 11.7854C73.4169 11.819 73.4505 11.7854 73.4505 11.7517C73.4505 11.7349 73.4505 11.7013 73.4505 11.6676V10.2211Z" fill="#8821D8"/>
<path d="M71.6689 0.700885V0.532685C71.6689 0.364484 71.6857 0.213104 71.7698 0.145824C71.837 0.0617238 71.9547 0.0617238 72.1564 0.179464C72.3412 0.280384 72.4589 0.431764 72.5429 0.583145C72.6102 0.734525 72.6438 0.902725 72.6438 1.07093C72.6438 1.32323 72.5429 1.55871 72.4253 1.77737C72.3076 1.99603 72.1564 2.16423 72.0723 2.26515L72.6438 2.60155V2.95477L71.6689 2.38289V2.02967C71.7866 1.92875 71.8874 1.81101 71.9715 1.69327C72.0555 1.59235 72.1227 1.45779 72.1732 1.32323C72.2236 1.18867 72.274 1.03729 72.274 0.902725C72.274 0.835445 72.274 0.751345 72.2572 0.684065C72.2572 0.616785 72.2068 0.549505 72.1564 0.532685C72.1059 0.499045 72.0723 0.532685 72.0555 0.566325C72.0555 0.616785 72.0387 0.684065 72.0387 0.768165V0.936365L71.6858 0.734525L71.6689 0.700885Z" fill="#8821D8"/>
<path d="M73.4672 2.24851C73.4672 2.14759 73.4336 2.04667 73.3496 1.99621C73.316 1.97939 73.2824 1.99621 73.2487 1.99621C73.2151 2.01303 73.2151 2.06349 73.2151 2.08031L72.9126 1.91211V0.633789L73.7866 1.13839V1.49161L73.2319 1.17203V1.67663C73.2319 1.67663 73.316 1.67663 73.3664 1.67663C73.6353 1.81119 73.7194 1.97939 73.7866 2.13077C73.837 2.28215 73.8538 2.41671 73.8538 2.45035V3.00541C73.8538 3.12315 73.8538 3.27453 73.7866 3.37545C73.7194 3.47637 73.6017 3.51001 73.3832 3.37545C73.1647 3.24089 73.0471 3.07269 72.9798 2.88767C72.9126 2.70265 72.9126 2.51763 72.9126 2.34943L73.2656 2.55127V2.65219C73.2656 2.76993 73.2656 2.87085 73.2824 2.92131C73.2824 2.98859 73.3328 3.02223 73.3664 3.03905C73.4 3.05587 73.4336 3.03905 73.4504 3.02223C73.4504 2.98859 73.4841 2.90449 73.4841 2.78675V2.23169L73.4672 2.24851Z" fill="#8821D8"/>
<g opacity="0.5">
<path d="M82.5938 49.7143C82.5938 49.7143 82.5434 49.6806 82.5266 49.647C82.4426 49.5629 82.409 49.4283 82.4426 49.3779L94.3591 31.7C94.3591 31.7 94.5104 31.6664 94.5944 31.7505C94.6784 31.8346 94.7121 31.9691 94.6784 32.0196L82.7619 49.6974C82.7619 49.6974 82.6779 49.7479 82.6106 49.6974L82.5938 49.7143Z" fill="#DE78FF"/>
<path d="M106.41 59.9575C106.41 59.9575 106.292 59.8566 106.259 59.7893L94.342 31.8513C94.2916 31.7503 94.3252 31.6494 94.4093 31.6494C94.4933 31.6494 94.5942 31.7335 94.6446 31.8513L106.561 59.7893C106.612 59.8902 106.578 59.9912 106.494 59.9912C106.46 59.9912 106.443 59.9912 106.41 59.9575Z" fill="#DE78FF"/>
<path d="M106.41 59.9577C106.41 59.9577 106.293 59.8568 106.259 59.7895C106.209 59.6886 106.242 59.5877 106.326 59.5877L118.243 59.4531C118.243 59.4531 118.428 59.5372 118.478 59.655C118.529 59.7559 118.495 59.8568 118.411 59.8568L106.494 59.9914C106.494 59.9914 106.444 59.9914 106.41 59.9577Z" fill="#DE78FF"/>
<path d="M118.327 59.8227C118.327 59.8227 118.276 59.7891 118.243 59.7554C118.159 59.6545 118.125 59.5368 118.176 59.4863L130.092 45.307C130.092 45.307 130.243 45.2902 130.327 45.3743C130.411 45.4752 130.445 45.593 130.395 45.6434L118.478 59.8227C118.478 59.8227 118.394 59.8564 118.327 59.8227Z" fill="#DE78FF"/>
<path d="M130.243 45.6606C130.243 45.6606 130.142 45.5933 130.109 45.5261C130.042 45.4251 130.058 45.3074 130.109 45.2906L142.025 41.6406C142.025 41.6406 142.21 41.6911 142.261 41.792C142.328 41.8929 142.311 42.0107 142.261 42.0275L130.344 45.6774C130.344 45.6774 130.277 45.6774 130.226 45.6606H130.243Z" fill="#DE78FF"/>
<path d="M82.5938 44.4497C82.5938 44.4497 82.493 44.3824 82.4594 44.3151C82.3922 44.2142 82.409 44.0965 82.4594 44.0796L94.3759 40.4297C94.3759 40.4297 94.5608 40.4801 94.6112 40.5811C94.6784 40.682 94.6616 40.7997 94.6112 40.8165L82.6947 44.4665C82.6947 44.4665 82.6275 44.4665 82.577 44.4497H82.5938Z" fill="#DE78FF"/>
<path d="M94.5102 40.7998C94.5102 40.7998 94.443 40.7494 94.4094 40.7157C94.3253 40.6148 94.3085 40.4971 94.3589 40.4466L106.275 29.7827C106.275 29.7827 106.427 29.7827 106.511 29.8668C106.595 29.9677 106.612 30.0855 106.561 30.1359L94.6447 40.7998C94.6447 40.7998 94.5606 40.8167 94.5102 40.7998Z" fill="#DE78FF"/>
<path d="M118.327 49.2938C118.327 49.2938 118.243 49.2265 118.209 49.1761L106.293 30.0181C106.225 29.9171 106.225 29.7994 106.293 29.7826C106.36 29.7489 106.461 29.8162 106.528 29.934L118.444 49.092C118.512 49.1929 118.512 49.3106 118.444 49.3275C118.411 49.3275 118.36 49.3275 118.327 49.3106V49.2938Z" fill="#DE78FF"/>
<path d="M130.243 59.6886L118.293 49.2602C118.209 49.1761 118.159 49.0584 118.176 48.9743C118.209 48.907 118.293 48.907 118.394 48.9743L130.311 59.3691C130.395 59.4532 130.445 59.5709 130.428 59.655C130.411 59.7223 130.344 59.7223 130.26 59.6886H130.243Z" fill="#DE78FF"/>
<path d="M142.143 80.6126C142.143 80.6126 142.042 80.5285 142.009 80.4781L130.092 59.554C130.025 59.4531 130.042 59.3521 130.109 59.3185C130.176 59.3017 130.294 59.369 130.344 59.4699L142.261 80.394C142.328 80.4949 142.311 80.5958 142.244 80.6295C142.21 80.6295 142.177 80.6295 142.126 80.6126H142.143Z" fill="#DE78FF"/>
<path d="M82.594 41.254C82.594 41.254 82.4595 41.1194 82.4259 41.0353C82.3923 40.9344 82.4427 40.8671 82.5436 40.8839L94.4601 43.9452C94.5441 43.9788 94.645 44.0797 94.6786 44.1806C94.7122 44.2816 94.6618 44.3488 94.5609 44.332L82.6444 41.2708C82.6444 41.2708 82.6108 41.2708 82.594 41.254Z" fill="#C858F0"/>
<path d="M94.5108 44.3152C94.5108 44.3152 94.4267 44.2647 94.3931 44.2143C94.3259 44.1134 94.3091 43.9956 94.3763 43.962L106.293 36.8135C106.293 36.8135 106.461 36.8303 106.528 36.9312C106.595 37.0321 106.612 37.1499 106.545 37.1835L94.6284 44.332C94.6284 44.332 94.5444 44.332 94.4939 44.332L94.5108 44.3152Z" fill="#C858F0"/>
<path d="M106.41 37.1497C106.41 37.1497 106.326 37.0992 106.293 37.0488C106.225 36.9478 106.208 36.8301 106.276 36.7965L118.192 29.6479C118.192 29.6479 118.36 29.6648 118.428 29.7657C118.495 29.8666 118.512 29.9843 118.444 30.018L106.528 37.1665C106.528 37.1665 106.444 37.1665 106.393 37.1665L106.41 37.1497Z" fill="#C858F0"/>
<path d="M130.243 71.9673C130.243 71.9673 130.109 71.8495 130.075 71.7654L118.158 29.7995C118.125 29.6985 118.175 29.6313 118.259 29.6481C118.343 29.6649 118.444 29.7658 118.478 29.8836L130.394 71.8495C130.428 71.9504 130.378 72.0177 130.294 72.0009C130.277 72.0009 130.26 72.0009 130.243 71.9841V71.9673Z" fill="#C858F0"/>
<path d="M142.143 84.1114C142.143 84.1114 142.093 84.0778 142.076 84.061L130.159 71.9169C130.075 71.8328 130.042 71.6982 130.075 71.6478C130.109 71.5805 130.21 71.5973 130.294 71.6983L142.21 83.8423C142.294 83.9264 142.328 84.061 142.294 84.1114C142.261 84.1619 142.21 84.1619 142.143 84.1114Z" fill="#C858F0"/>
<path d="M82.5939 37.4359C82.5939 37.4359 82.5435 37.4022 82.5099 37.3686C82.4258 37.2845 82.3922 37.1499 82.4426 37.0995L94.3592 21.1709C94.3592 21.1709 94.5104 21.1373 94.5945 21.2382C94.6785 21.3223 94.7121 21.4568 94.6617 21.5073L82.7452 37.4359C82.7452 37.4359 82.6611 37.4695 82.5939 37.4359Z" fill="#FFBBFA"/>
<path d="M106.41 38.9159C106.41 38.9159 106.326 38.8486 106.292 38.815L94.3757 21.4062C94.3085 21.3053 94.2917 21.1876 94.3757 21.1539C94.443 21.1203 94.5438 21.1708 94.6111 21.2717L106.528 38.6804C106.595 38.7813 106.612 38.8991 106.528 38.9327C106.494 38.9495 106.444 38.9327 106.393 38.9327L106.41 38.9159Z" fill="#FFBBFA"/>
<path d="M118.327 54.8277C118.327 54.8277 118.26 54.7773 118.226 54.7268L105.721 37.9236C105.654 37.8227 105.637 37.7049 105.688 37.6713C105.738 37.6377 105.856 37.6713 105.923 37.7722L118.428 54.5754C118.495 54.6764 118.512 54.7941 118.461 54.8277C118.428 54.8446 118.377 54.8446 118.327 54.8277Z" fill="#FFBBFA"/>
<path d="M118.327 54.8275C118.327 54.8275 118.226 54.7602 118.192 54.6929C118.125 54.592 118.142 54.4742 118.192 54.4574L130.109 50.5552C130.109 50.5552 130.294 50.6056 130.344 50.7066C130.411 50.8075 130.395 50.9252 130.344 50.942L118.428 54.8443C118.428 54.8443 118.36 54.8443 118.31 54.8275H118.327Z" fill="#FFBBFA"/>
<path d="M130.243 50.9252C130.243 50.9252 130.126 50.8243 130.092 50.7402C130.058 50.6393 130.092 50.5552 130.176 50.5552L142.093 51.6148C142.177 51.6148 142.277 51.7158 142.328 51.8335C142.361 51.9344 142.328 52.0185 142.244 52.0185L130.327 50.9589C130.327 50.9589 130.277 50.9589 130.26 50.9252H130.243Z" fill="#FFBBFA"/>
<path d="M94.5103 54.8446C94.5103 54.8446 94.4094 54.7605 94.3758 54.71L82.4593 33.7859C82.3921 33.685 82.4089 33.5841 82.4761 33.5504C82.5433 33.5336 82.661 33.6009 82.7114 33.7018L94.6279 54.6259C94.6952 54.7268 94.6784 54.8278 94.6111 54.8614C94.5775 54.8614 94.5439 54.8614 94.4935 54.8446H94.5103Z" fill="#FFBBFA"/>
<path d="M94.5103 54.8447C94.5103 54.8447 94.4095 54.7774 94.3759 54.7101C94.3087 54.6092 94.3255 54.4915 94.3759 54.4747L106.292 50.8247C106.292 50.8247 106.477 50.8752 106.528 50.9761C106.595 51.077 106.578 51.1947 106.528 51.2116L94.6112 54.8615C94.6112 54.8615 94.544 54.8615 94.4935 54.8447H94.5103Z" fill="#FFBBFA"/>
<path d="M118.327 65.0879C118.327 65.0879 118.259 65.0543 118.243 65.0206L106.326 51.1273C106.242 51.0264 106.225 50.9086 106.259 50.8582C106.309 50.8077 106.41 50.8414 106.494 50.9255L118.411 64.8188C118.495 64.9197 118.512 65.0375 118.478 65.0879C118.444 65.1216 118.394 65.1216 118.327 65.0879Z" fill="#FFBBFA"/>
<path d="M118.327 65.0881C118.327 65.0881 118.243 65.0209 118.209 64.9704C118.142 64.8695 118.142 64.7517 118.209 64.7181L134.798 57.0986C134.798 57.0986 134.966 57.1323 135.033 57.2332C135.101 57.3341 135.101 57.4519 135.033 57.4855L118.444 65.105C118.444 65.105 118.36 65.105 118.327 65.0881Z" fill="#FFBBFA"/>
<path d="M134.949 57.3171C134.798 57.1825 134.764 57.0648 134.781 56.9975L141.975 41.6913C141.975 41.6913 142.109 41.6408 142.193 41.7249C142.277 41.809 142.328 41.9268 142.294 41.994L135.101 57.3171C135.101 57.3171 135.017 57.3844 134.933 57.3339L134.949 57.3171Z" fill="#FFBBFA"/>
</g>
<path d="M82.5936 48.52C83.1651 48.8396 83.6189 49.5629 83.6189 50.1347C83.6189 50.7066 83.1651 50.8916 82.5936 50.5721C82.0222 50.2525 81.5684 49.5292 81.5684 48.9573C81.5684 48.3855 82.0222 48.2004 82.5936 48.52Z" fill="#DE78FF"/>
<path d="M94.5101 30.8423C95.0816 31.1619 95.5354 31.8851 95.5354 32.457C95.5354 33.0289 95.0816 33.2139 94.5101 32.8943C93.9387 32.5747 93.4849 31.8515 93.4849 31.2796C93.4849 30.7077 93.9387 30.5227 94.5101 30.8423Z" fill="#DE78FF"/>
<path d="M106.41 58.7637C106.981 59.0833 107.435 59.8065 107.435 60.3784C107.435 60.9503 106.981 61.1353 106.41 60.8157C105.839 60.4961 105.385 59.7729 105.385 59.201C105.385 58.6291 105.839 58.4441 106.41 58.7637Z" fill="#DE78FF"/>
<path d="M118.327 58.6289C118.898 58.9485 119.352 59.6717 119.352 60.2436C119.352 60.8155 118.898 61.0005 118.327 60.6809C117.755 60.3614 117.301 59.6381 117.301 59.0662C117.301 58.4943 117.755 58.3093 118.327 58.6289Z" fill="#DE78FF"/>
<path d="M130.243 44.4663C130.814 44.7859 131.268 45.5092 131.268 46.081C131.268 46.6529 130.814 46.8379 130.243 46.5184C129.672 46.1988 129.218 45.4755 129.218 44.9036C129.218 44.3318 129.672 44.1467 130.243 44.4663Z" fill="#DE78FF"/>
<path d="M142.142 40.8164C142.714 41.136 143.168 41.8593 143.168 42.4311C143.168 43.003 142.714 43.188 142.142 42.8685C141.571 42.5489 141.117 41.8256 141.117 41.2537C141.117 40.6818 141.571 40.4968 142.142 40.8164Z" fill="#DE78FF"/>
<path d="M82.5936 43.2559C83.1651 43.5754 83.6189 44.2987 83.6189 44.8706C83.6189 45.4425 83.1651 45.6275 82.5936 45.3079C82.0222 44.9883 81.5684 44.2651 81.5684 43.6932C81.5684 43.1213 82.0222 42.9363 82.5936 43.2559Z" fill="#DE78FF"/>
<path d="M94.5101 39.606C95.0816 39.9255 95.5354 40.6488 95.5354 41.2207C95.5354 41.7926 95.0816 41.9776 94.5101 41.658C93.9387 41.3384 93.4849 40.6152 93.4849 40.0433C93.4849 39.4714 93.9387 39.2864 94.5101 39.606Z" fill="#DE78FF"/>
<path d="M106.41 28.9419C106.981 29.2615 107.435 29.9847 107.435 30.5566C107.435 31.1285 106.981 31.3135 106.41 30.9939C105.839 30.6744 105.385 29.9511 105.385 29.3792C105.385 28.8073 105.839 28.6223 106.41 28.9419Z" fill="#DE78FF"/>
<path d="M118.327 48.1001C118.898 48.4197 119.352 49.1429 119.352 49.7148C119.352 50.2867 118.898 50.4717 118.327 50.1521C117.755 49.8326 117.301 49.1093 117.301 48.5374C117.301 47.9655 117.755 47.7805 118.327 48.1001Z" fill="#DE78FF"/>
<path d="M130.243 58.4946C130.814 58.8142 131.268 59.5375 131.268 60.1094C131.268 60.6812 130.814 60.8663 130.243 60.5467C129.672 60.2271 129.218 59.5038 129.218 58.932C129.218 58.3601 129.672 58.175 130.243 58.4946Z" fill="#DE78FF"/>
<path d="M142.142 79.4189C142.714 79.7385 143.168 80.4618 143.168 81.0337C143.168 81.6056 142.714 81.7906 142.142 81.471C141.571 81.1514 141.117 80.4282 141.117 79.8563C141.117 79.2844 141.571 79.0994 142.142 79.4189Z" fill="#DE78FF"/>
<path d="M82.5936 39.8242C83.1651 40.1438 83.6189 40.8671 83.6189 41.4389C83.6189 42.0108 83.1651 42.1958 82.5936 41.8763C82.0222 41.5567 81.5684 40.8334 81.5684 40.2615C81.5684 39.6897 82.0222 39.5046 82.5936 39.8242Z" fill="#C858F0"/>
<path d="M94.5101 43.1211C95.0816 43.4407 95.5354 44.1639 95.5354 44.7358C95.5354 45.3077 95.0816 45.4927 94.5101 45.1731C93.9387 44.8536 93.4849 44.1303 93.4849 43.5584C93.4849 42.9865 93.9387 42.8015 94.5101 43.1211Z" fill="#C858F0"/>
<path d="M118.327 28.8071C118.898 29.1267 119.352 29.85 119.352 30.4219C119.352 30.9937 118.898 31.1788 118.327 30.8592C117.755 30.5396 117.301 29.8163 117.301 29.2445C117.301 28.6726 117.755 28.4876 118.327 28.8071Z" fill="#C858F0"/>
<path d="M130.243 70.773C130.814 71.0925 131.268 71.8158 131.268 72.3877C131.268 72.9596 130.814 73.1446 130.243 72.825C129.672 72.5054 129.218 71.7822 129.218 71.2103C129.218 70.6384 129.672 70.4534 130.243 70.773Z" fill="#C858F0"/>
<path d="M142.142 82.917C142.714 83.2366 143.168 83.9598 143.168 84.5317C143.168 85.1036 142.714 85.2886 142.142 84.969C141.571 84.6495 141.117 83.9262 141.117 83.3543C141.117 82.7824 141.571 82.5974 142.142 82.917Z" fill="#C858F0"/>
<path d="M82.5936 36.2417C83.1651 36.5613 83.6189 37.2845 83.6189 37.8564C83.6189 38.4283 83.1651 38.6133 82.5936 38.2937C82.0222 37.9742 81.5684 37.2509 81.5684 36.679C81.5684 36.1071 82.0222 35.9221 82.5936 36.2417Z" fill="#FFBBFA"/>
<path d="M94.5101 20.313C95.0816 20.6326 95.5354 21.3558 95.5354 21.9277C95.5354 22.4996 95.0816 22.6846 94.5101 22.365C93.9387 22.0455 93.4849 21.3222 93.4849 20.7503C93.4849 20.1784 93.9387 19.9934 94.5101 20.313Z" fill="#FFBBFA"/>
<path d="M105.67 36.7295C106.242 37.0491 106.696 37.7723 106.696 38.3442C106.696 38.9161 106.242 39.1011 105.67 38.7815C105.099 38.462 104.645 37.7387 104.645 37.1668C104.645 36.5949 105.099 36.4099 105.67 36.7295Z" fill="#FFBBFA"/>
<path d="M118.327 53.3813C118.898 53.7009 119.352 54.4242 119.352 54.9961C119.352 55.568 118.898 55.753 118.327 55.4334C117.755 55.1138 117.301 54.3906 117.301 53.8187C117.301 53.2468 117.755 53.0618 118.327 53.3813Z" fill="#FFBBFA"/>
<path d="M130.243 49.7314C130.814 50.051 131.268 50.7743 131.268 51.3462C131.268 51.918 130.814 52.1031 130.243 51.7835C129.672 51.4639 129.218 50.7406 129.218 50.1688C129.218 49.5969 129.672 49.4119 130.243 49.7314Z" fill="#FFBBFA"/>
<path d="M142.142 50.7739C142.714 51.0935 143.168 51.8168 143.168 52.3887C143.168 52.9605 142.714 53.1456 142.142 52.826C141.571 52.5064 141.117 51.7831 141.117 51.2112C141.117 50.6394 141.571 50.4543 142.142 50.7739Z" fill="#FFBBFA"/>
<path d="M82.5936 32.7261C83.1651 33.0457 83.6189 33.7689 83.6189 34.3408C83.6189 34.9127 83.1651 35.0977 82.5936 34.7781C82.0222 34.4585 81.5684 33.7353 81.5684 33.1634C81.5684 32.5915 82.0222 32.4065 82.5936 32.7261Z" fill="#FFBBFA"/>
<path d="M94.5101 53.6504C95.0816 53.97 95.5354 54.6932 95.5354 55.2651C95.5354 55.837 95.0816 56.022 94.5101 55.7024C93.9387 55.3829 93.4849 54.6596 93.4849 54.0877C93.4849 53.5158 93.9387 53.3308 94.5101 53.6504Z" fill="#FFBBFA"/>
<path d="M106.41 50C106.981 50.3196 107.435 51.0428 107.435 51.6147C107.435 52.1866 106.981 52.3716 106.41 52.052C105.839 51.7325 105.385 51.0092 105.385 50.4373C105.385 49.8654 105.839 49.6804 106.41 50Z" fill="#FFBBFA"/>
<path d="M118.327 63.8936C118.898 64.2131 119.352 64.9364 119.352 65.5083C119.352 66.0802 118.898 66.2652 118.327 65.9456C117.755 65.626 117.301 64.9028 117.301 64.3309C117.301 63.759 117.755 63.574 118.327 63.8936Z" fill="#FFBBFA"/>
<path d="M134.848 55.9546C135.419 56.2742 135.873 56.9974 135.873 57.5693C135.873 58.1412 135.419 58.3262 134.848 58.0066C134.277 57.6871 133.823 56.9638 133.823 56.3919C133.823 55.82 134.277 55.635 134.848 55.9546Z" fill="#FFBBFA"/>
<path d="M142.142 40.8164C142.714 41.136 143.168 41.8593 143.168 42.4311C143.168 43.003 142.714 43.188 142.142 42.8685C141.571 42.5489 141.117 41.8256 141.117 41.2537C141.117 40.6818 141.571 40.4968 142.142 40.8164Z" fill="#FFBBFA"/>
<path d="M158.631 72.6736C158.631 73.3128 158.11 73.5314 157.471 73.1614C156.833 72.7913 156.312 71.9672 156.312 71.328C156.312 70.6888 156.833 70.4702 157.471 70.8402C158.11 71.2103 158.631 72.0344 158.631 72.6736Z" fill="#DE78FF"/>
<path d="M158.614 83.1355C158.614 83.7747 158.093 83.9933 157.455 83.6233C156.816 83.2532 156.295 82.4291 156.295 81.7899C156.295 81.1507 156.816 80.9321 157.455 81.3021C158.093 81.6722 158.614 82.4963 158.614 83.1355Z" fill="#FFBBFA"/>
<path d="M158.614 93.5979C158.614 94.2371 158.093 94.4557 157.455 94.0857C156.816 93.7157 156.295 92.8915 156.295 92.2523C156.295 91.6131 156.816 91.3945 157.455 91.7645C158.093 92.1346 158.614 92.9588 158.614 93.5979Z" fill="#C858F0"/>
<path d="M158.631 51.7161C158.631 52.3552 158.11 52.5739 157.471 52.2039C156.833 51.8338 156.312 51.0096 156.312 50.3705C156.312 49.7313 156.833 49.5127 157.471 49.8827C158.11 50.2527 158.631 51.0769 158.631 51.7161Z" fill="#DE78FF"/>
<path d="M158.631 62.178C158.631 62.8171 158.11 63.0358 157.471 62.6658C156.833 62.2957 156.312 61.4715 156.312 60.8324C156.312 60.1932 156.833 59.9746 157.471 60.3446C158.11 60.7146 158.631 61.5388 158.631 62.178Z" fill="#FFBBFA"/>
<path style="mix-blend-mode:screen" d="M94.7621 42.4648C106.421 42.4648 115.872 33.0064 115.872 21.3388C115.872 9.6713 106.421 0.212891 94.7621 0.212891C83.1032 0.212891 73.6519 9.6713 73.6519 21.3388C73.6519 33.0064 83.1032 42.4648 94.7621 42.4648Z" fill="url(#paint3_radial_0_10356)"/>
<path style="mix-blend-mode:screen" d="M118.159 75.8022C129.817 75.8022 139.269 66.3438 139.269 54.6762C139.269 43.0087 129.817 33.5503 118.159 33.5503C106.5 33.5503 97.0483 43.0087 97.0483 54.6762C97.0483 66.3438 106.5 75.8022 118.159 75.8022Z" fill="url(#paint4_radial_0_10356)"/>
<path style="mix-blend-mode:screen" d="M142.311 61.4546C153.246 61.4546 162.11 52.5836 162.11 41.6406C162.11 30.6977 153.246 21.8267 142.311 21.8267C131.376 21.8267 122.512 30.6977 122.512 41.6406C122.512 52.5836 131.376 61.4546 142.311 61.4546Z" fill="url(#paint5_radial_0_10356)"/>
<path style="mix-blend-mode:screen" d="M177.173 75.2448C178.918 64.442 171.581 54.2693 160.786 52.5235C149.992 50.7777 139.827 58.1199 138.082 68.9227C136.338 79.7255 143.674 89.8982 154.469 91.644C165.264 93.3898 175.429 86.0476 177.173 75.2448Z" fill="url(#paint6_radial_0_10356)"/>
<path style="mix-blend-mode:screen" d="M74.5766 124.076C107.827 124.076 134.781 97.1013 134.781 63.8265C134.781 30.5517 107.827 3.57715 74.5766 3.57715C41.3266 3.57715 14.3721 30.5517 14.3721 63.8265C14.3721 97.1013 41.3266 124.076 74.5766 124.076Z" fill="url(#paint7_radial_0_10356)"/>
</g>
<defs>
<linearGradient id="paint0_linear_0_10356" x1="104.864" y1="141.636" x2="92.2581" y2="141.636" gradientUnits="userSpaceOnUse">
<stop stop-color="#CB89F0"/>
<stop offset="1" stop-color="#8B3DCE"/>
</linearGradient>
<linearGradient id="paint1_linear_0_10356" x1="13.6496" y1="118.962" x2="17.9234" y2="126.344" gradientUnits="userSpaceOnUse">
<stop offset="0.62" stop-color="#FFBFFF"/>
<stop offset="0.86" stop-color="#E09CFF"/>
<stop offset="1" stop-color="#CB89F0"/>
</linearGradient>
<linearGradient id="paint2_linear_0_10356" x1="23.0786" y1="125.405" x2="25.5689" y2="129.743" gradientUnits="userSpaceOnUse">
<stop offset="0.62" stop-color="#FFBFFF"/>
<stop offset="0.86" stop-color="#E09CFF"/>
<stop offset="1" stop-color="#CB89F0"/>
</linearGradient>
<radialGradient id="paint3_radial_0_10356" cx="0" cy="0" r="1" gradientUnits="userSpaceOnUse" gradientTransform="translate(94.7621 21.3388) scale(21.1102 21.126)">
<stop stop-color="#FF72D5"/>
<stop offset="0.04" stop-color="#DB62B7"/>
<stop offset="0.1" stop-color="#AD4D91"/>
<stop offset="0.16" stop-color="#843B6E"/>
<stop offset="0.23" stop-color="#602B50"/>
<stop offset="0.31" stop-color="#421D37"/>
<stop offset="0.39" stop-color="#291223"/>
<stop offset="0.48" stop-color="#170A13"/>
<stop offset="0.59" stop-color="#090408"/>
<stop offset="0.73" stop-color="#020101"/>
<stop offset="1"/>
</radialGradient>
<radialGradient id="paint4_radial_0_10356" cx="0" cy="0" r="1" gradientUnits="userSpaceOnUse" gradientTransform="translate(118.159 54.6762) scale(21.1102 21.126)">
<stop stop-color="#FF72D5"/>
<stop offset="0.04" stop-color="#DB62B7"/>
<stop offset="0.1" stop-color="#AD4D91"/>
<stop offset="0.16" stop-color="#843B6E"/>
<stop offset="0.23" stop-color="#602B50"/>
<stop offset="0.31" stop-color="#421D37"/>
<stop offset="0.39" stop-color="#291223"/>
<stop offset="0.48" stop-color="#170A13"/>
<stop offset="0.59" stop-color="#090408"/>
<stop offset="0.73" stop-color="#020101"/>
<stop offset="1"/>
</radialGradient>
<radialGradient id="paint5_radial_0_10356" cx="0" cy="0" r="1" gradientUnits="userSpaceOnUse" gradientTransform="translate(142.311 41.6407) scale(19.7993 19.814)">
<stop stop-color="#FF72D5"/>
<stop offset="0.04" stop-color="#DB62B7"/>
<stop offset="0.1" stop-color="#AD4D91"/>
<stop offset="0.16" stop-color="#843B6E"/>
<stop offset="0.23" stop-color="#602B50"/>
<stop offset="0.31" stop-color="#421D37"/>
<stop offset="0.39" stop-color="#291223"/>
<stop offset="0.48" stop-color="#170A13"/>
<stop offset="0.59" stop-color="#090408"/>
<stop offset="0.73" stop-color="#020101"/>
<stop offset="1"/>
</radialGradient>
<radialGradient id="paint6_radial_0_10356" cx="0" cy="0" r="1" gradientUnits="userSpaceOnUse" gradientTransform="translate(157.631 72.1015) scale(19.7993 19.814)">
<stop stop-color="#FF72D5"/>
<stop offset="0.04" stop-color="#DB62B7"/>
<stop offset="0.1" stop-color="#AD4D91"/>
<stop offset="0.16" stop-color="#843B6E"/>
<stop offset="0.23" stop-color="#602B50"/>
<stop offset="0.31" stop-color="#421D37"/>
<stop offset="0.39" stop-color="#291223"/>
<stop offset="0.48" stop-color="#170A13"/>
<stop offset="0.59" stop-color="#090408"/>
<stop offset="0.73" stop-color="#020101"/>
<stop offset="1"/>
</radialGradient>
<radialGradient id="paint7_radial_0_10356" cx="0" cy="0" r="1" gradientUnits="userSpaceOnUse" gradientTransform="translate(74.5766 63.8265) scale(60.2045 60.2493)">
<stop stop-color="#FFEC3D"/>
<stop offset="0.22" stop-color="#E53DFF"/>
<stop offset="0.24" stop-color="#CC36E3"/>
<stop offset="0.29" stop-color="#A12BB4"/>
<stop offset="0.35" stop-color="#7B2089"/>
<stop offset="0.41" stop-color="#591764"/>
<stop offset="0.47" stop-color="#3D1044"/>
<stop offset="0.54" stop-color="#270A2B"/>
<stop offset="0.61" stop-color="#150518"/>
<stop offset="0.7" stop-color="#09020A"/>
<stop offset="0.8" stop-color="#020002"/>
<stop offset="1"/>
</radialGradient>
<clipPath id="clip0_0_10356">
<rect width="177" height="170" fill="white" transform="translate(0.438477 0.0786133)"/>
</clipPath>
</defs>
</svg>
