<svg width="207" height="177" viewBox="0 0 207 177" fill="none" xmlns="http://www.w3.org/2000/svg">
<g clip-path="url(#clip0_0_10559)">
<g style="mix-blend-mode:multiply" opacity="0.7">
<path d="M147.399 170.746L146.382 170.276C146.343 170.276 146.245 170.276 146.206 170.257L144.544 169.493H147.986L134.963 163.5C133.848 162.991 132.381 162.56 130.719 162.286L127.864 161.797L79.7808 139.608C84.552 138.296 89.0299 136.514 92.9798 134.242C111.713 123.412 111.713 105.865 92.9798 95.0353C83.7307 89.6889 71.6267 87.006 59.5032 86.9472H48.2009C35.8622 86.908 23.504 89.591 14.0789 95.0353C-4.65392 105.865 -4.65392 123.412 14.0789 134.242C23.7191 139.804 36.4097 142.487 49.0417 142.33H58.193C61.2044 142.369 64.1962 142.232 67.1684 141.939L100.332 166.399C100.43 167.104 100.821 169.023 102.014 169.904L111.458 176.896L111.869 174.918L112.495 175.388C112.495 175.388 112.417 175.447 112.436 175.466L113.14 175.995C113.14 175.995 113.297 176.093 113.629 176.112C114.137 176.152 114.763 176.093 115.056 175.956C115.193 175.897 115.213 175.838 115.154 175.78L114.45 175.251C114.431 175.251 114.333 175.231 114.274 175.212L113.121 174.369L116.601 174.663L107.606 168.005C106.844 167.437 105.651 166.928 104.165 166.536L101.603 165.87L68.8892 141.743C72.1156 141.351 75.2834 140.764 78.3533 140L127.024 162.463C127.61 163.168 129.311 165.087 131.032 165.89L144.72 172.215L143.723 170.179L144.622 170.59C144.622 170.59 144.583 170.668 144.622 170.688L145.639 171.158C145.639 171.158 145.854 171.236 146.187 171.236C146.675 171.236 147.223 171.119 147.419 170.981C147.516 170.903 147.477 170.844 147.379 170.786L147.399 170.746ZM113.218 175.78C113.218 175.78 113.101 175.838 113.101 175.877C113.101 175.838 113.16 175.819 113.218 175.78ZM145.561 171.04C145.561 171.04 145.561 170.981 145.62 170.942C145.58 170.981 145.561 171.021 145.561 171.04Z" fill="#52017B"/>
</g>
<path d="M110.05 42.4721C103.363 38.5749 94.1137 39.1233 83.9064 45.018C63.6483 56.7291 47.2033 85.2432 47.2815 108.568C47.3206 120.161 51.4074 128.308 58.0167 132.147L65.2322 136.357L117.266 46.6826L110.05 42.4721Z" fill="#C858F0"/>
<path opacity="0.9" d="M47.9858 99.7158C47.5165 102.712 47.2623 105.689 47.2818 108.568C47.3209 120.161 51.4077 128.308 58.017 132.147L65.2325 136.357L76.8281 116.382L48.0053 99.7158H47.9858Z" fill="#AA22D6"/>
<path d="M115.819 45.8012C109.132 41.904 99.8827 42.4524 89.6754 48.3471C71.8225 58.6678 56.9418 82.0313 53.6958 103.397L54.9864 106.805C59.5425 118.908 76.0853 120.279 82.5772 109.096L118.42 47.3483L115.839 45.8208L115.819 45.8012Z" fill="#FFE2D7"/>
<path d="M53.7738 103.045C53.3045 106.041 53.0503 109.018 53.0699 111.897C53.109 123.491 57.1958 131.637 63.8051 135.476L66.3863 137.003L77.9819 117.028L53.7738 103.025V103.045Z" fill="#EF9CED"/>
<path d="M92.2758 49.8944C74.5402 60.1368 59.7377 83.2653 56.3744 104.494C55.8855 107.53 55.6509 110.526 55.6509 113.444C55.7095 136.768 72.2523 146.208 92.53 134.497C112.808 122.786 129.233 94.2714 129.155 70.9471C129.116 56.2004 122.487 46.996 112.475 45.1943C106.668 44.1564 99.7259 45.586 92.2758 49.8944Z" fill="#FFBBFA"/>
<path d="M92.3149 71.456C82.1859 77.3116 73.9927 91.549 74.0122 103.201C74.0514 114.854 82.3032 119.574 92.4322 113.718C102.561 107.862 110.754 93.6249 110.735 81.9725C110.696 70.3202 102.444 65.6005 92.3149 71.456ZM92.4322 110.271C83.9457 115.167 77.0431 111.211 77.004 101.478C76.9845 91.7253 83.848 79.7987 92.3345 74.9028C100.821 70.0068 107.724 73.9432 107.763 83.6959C107.782 93.4487 100.919 105.375 92.4322 110.271Z" fill="#C858F0"/>
<path d="M92.354 83.4805C87.9935 86.0068 84.4542 92.1366 84.4737 97.1696C84.4737 102.203 88.0521 104.22 92.4127 101.693C96.7733 99.1672 100.313 93.0374 100.293 88.0044C100.293 82.9713 96.7146 80.9542 92.354 83.4805Z" fill="#C858F0"/>
<path d="M92.2955 59.4317C76.4176 68.6165 63.5314 90.9617 63.59 109.253C63.6487 127.525 76.6131 134.927 92.491 125.743C108.369 116.558 121.255 94.2126 121.197 75.9213C121.138 57.6495 108.173 50.2468 92.2955 59.4317ZM92.4715 122.296C78.2361 130.521 66.6014 123.902 66.5623 107.51C66.5232 91.1379 78.0601 71.084 92.2955 62.8588C106.531 54.6336 118.146 61.2725 118.185 77.6446C118.224 94.0167 106.687 114.051 92.4519 122.276L92.4715 122.296Z" fill="#C858F0"/>
<path d="M98.4942 96.2299L93.3319 93.2531C92.9408 93.0377 92.4519 93.1552 92.2368 93.5469C92.0217 93.9385 92.1391 94.4281 92.5301 94.6436L97.6924 97.6203C98.4159 98.0316 99.159 96.6019 98.4942 96.2299Z" fill="#DE78FF"/>
<path d="M173.738 143.407L162.045 136.651C160.226 135.613 157.254 131.5 157.254 131.5L171.626 139.804L173.718 143.407H173.738Z" fill="#FFE2D7"/>
<path d="M173.347 139.588L98.5332 96.4451C98.0052 96.1318 97.4968 97.2481 97.927 97.5027L173.132 140.881C173.66 141.194 173.777 139.843 173.347 139.588Z" fill="#AA32B7"/>
<path d="M173.738 137.67L162.612 131.246C161.673 130.698 160.578 130.423 159.483 130.463L157.254 130.541L171.626 138.845L173.718 137.67H173.738Z" fill="#FFE2D7"/>
<path d="M91.1611 91.3731V94.7024C93.4294 95.799 95.3457 96.2691 95.6977 95.6815C96.1083 94.9765 94.0943 93.0573 91.1611 91.3535V91.3731Z" fill="#DE78FF"/>
<path d="M173.406 140.94C173.406 141.253 173.621 141.39 173.895 141.234C174.168 141.077 174.383 140.685 174.383 140.372C174.383 140.059 174.168 139.922 173.895 140.078C173.621 140.235 173.406 140.627 173.406 140.94Z" fill="#AA32B7"/>
<path d="M174.247 140.039L173.386 139.53C173.386 139.53 173.171 139.491 173.034 139.569C172.761 139.726 172.545 140.117 172.545 140.431C172.545 140.587 172.604 140.705 172.682 140.744L173.562 141.253C173.562 141.253 173.425 141.097 173.425 140.94C173.425 140.626 173.64 140.235 173.914 140.078C174.051 140 174.168 140 174.266 140.039H174.247Z" fill="#C858F0"/>
<path d="M99.9215 92.9989L94.2117 91.2755C93.7815 91.1384 93.3317 91.393 93.2144 91.8239C93.0775 92.2547 93.3318 92.7051 93.7619 92.8226L99.4717 94.546C100.273 94.781 100.665 93.2143 99.941 92.9989H99.9215Z" fill="#DE78FF"/>
<path d="M183.984 121.572L171.059 117.694C169.065 117.087 165.212 113.777 165.212 113.777L181.11 118.556L183.984 121.572Z" fill="#FFE2D7"/>
<path d="M182.733 117.968L100.019 93.214C99.4323 93.0377 99.1781 94.2323 99.667 94.389L182.831 119.26C183.417 119.437 183.222 118.105 182.733 117.948V117.968Z" fill="#AA32B7"/>
<path d="M182.674 115.99L170.375 112.289C169.319 111.975 168.204 111.956 167.149 112.25L164.998 112.837L180.895 117.616L182.655 115.99H182.674Z" fill="#FFE2D7"/>
<path d="M92.4517 90.2178V93.2337C94.9155 93.782 96.8905 93.782 97.086 93.1553C97.3011 92.4503 95.1892 91.1578 92.4517 90.2178Z" fill="#DE78FF"/>
<path d="M183.104 119.241C183.182 119.554 183.417 119.613 183.652 119.398C183.886 119.182 184.004 118.751 183.925 118.458C183.847 118.144 183.613 118.086 183.378 118.301C183.143 118.516 183.026 118.947 183.104 119.241Z" fill="#AA32B7"/>
<path d="M183.711 118.183L182.752 117.89C182.655 117.851 182.537 117.89 182.42 118.007C182.185 118.223 182.068 118.653 182.146 118.947C182.185 119.104 182.264 119.202 182.361 119.221L183.319 119.515C183.319 119.515 183.143 119.398 183.104 119.241C183.026 118.928 183.163 118.516 183.378 118.301C183.495 118.183 183.613 118.164 183.711 118.183Z" fill="#C858F0"/>
<path style="mix-blend-mode:screen" d="M104.282 1.87485C134.102 -3.72613 150.117 14.9569 140.047 43.608C129.996 72.2592 97.6729 100.049 67.8529 105.65C38.0328 111.251 22.018 92.5676 32.0884 63.9165C42.1392 35.2457 74.4622 7.47583 104.282 1.87485Z" fill="url(#paint0_radial_0_10559)"/>
<path style="mix-blend-mode:screen" d="M174.618 147.285C192.513 147.285 207.02 132.756 207.02 114.834C207.02 96.9123 192.513 82.3838 174.618 82.3838C156.724 82.3838 142.217 96.9123 142.217 114.834C142.217 132.756 156.724 147.285 174.618 147.285Z" fill="url(#paint1_radial_0_10559)"/>
<path style="mix-blend-mode:screen" d="M166.562 157.723C178.668 157.723 188.482 147.894 188.482 135.769C188.482 123.645 178.668 113.816 166.562 113.816C154.456 113.816 144.642 123.645 144.642 135.769C144.642 147.894 154.456 157.723 166.562 157.723Z" fill="url(#paint2_radial_0_10559)"/>
</g>
<defs>
<radialGradient id="paint0_radial_0_10559" cx="0" cy="0" r="1" gradientTransform="matrix(18.1385 -51.6718 44.8638 15.7966 -28.3892 379.819)" gradientUnits="userSpaceOnUse">
<stop stop-color="#FFEC3D"/>
<stop offset="0.22" stop-color="#E53DFF"/>
<stop offset="0.24" stop-color="#CC36E3"/>
<stop offset="0.29" stop-color="#A12BB4"/>
<stop offset="0.35" stop-color="#7B2089"/>
<stop offset="0.41" stop-color="#591764"/>
<stop offset="0.47" stop-color="#3D1044"/>
<stop offset="0.54" stop-color="#270A2B"/>
<stop offset="0.61" stop-color="#150518"/>
<stop offset="0.7" stop-color="#09020A"/>
<stop offset="0.8" stop-color="#020002"/>
<stop offset="1"/>
</radialGradient>
<radialGradient id="paint1_radial_0_10559" cx="0" cy="0" r="1" gradientUnits="userSpaceOnUse" gradientTransform="translate(174.618 114.834) scale(32.4012 32.4504)">
<stop stop-color="#FF3DD5"/>
<stop offset="0.04" stop-color="#DB34B7"/>
<stop offset="0.1" stop-color="#AD2991"/>
<stop offset="0.16" stop-color="#841F6E"/>
<stop offset="0.23" stop-color="#601750"/>
<stop offset="0.31" stop-color="#420F37"/>
<stop offset="0.39" stop-color="#290A23"/>
<stop offset="0.48" stop-color="#170513"/>
<stop offset="0.59" stop-color="#090208"/>
<stop offset="0.73" stop-color="#020001"/>
<stop offset="1"/>
</radialGradient>
<radialGradient id="paint2_radial_0_10559" cx="0" cy="0" r="1" gradientUnits="userSpaceOnUse" gradientTransform="translate(166.562 135.769) scale(21.9202 21.9535)">
<stop stop-color="#FF3DD5"/>
<stop offset="0.04" stop-color="#DB34B7"/>
<stop offset="0.1" stop-color="#AD2991"/>
<stop offset="0.16" stop-color="#841F6E"/>
<stop offset="0.23" stop-color="#601750"/>
<stop offset="0.31" stop-color="#420F37"/>
<stop offset="0.39" stop-color="#290A23"/>
<stop offset="0.48" stop-color="#170513"/>
<stop offset="0.59" stop-color="#090208"/>
<stop offset="0.73" stop-color="#020001"/>
<stop offset="1"/>
</radialGradient>
<clipPath id="clip0_0_10559">
<rect width="207" height="176" fill="white" transform="translate(0 0.875977)"/>
</clipPath>
</defs>
</svg>
