<svg width="207" height="176" viewBox="0 0 207 176" fill="none" xmlns="http://www.w3.org/2000/svg">
<g clip-path="url(#clip0_87_6383)">
<g style="mix-blend-mode:multiply" opacity="0.7">
<path d="M147.399 169.87L146.382 169.4C146.343 169.4 146.245 169.4 146.206 169.381L144.544 168.617H147.986L134.963 162.624C133.848 162.115 132.381 161.684 130.719 161.41L127.864 160.921L79.7808 138.732C84.552 137.42 89.0299 135.638 92.9798 133.366C111.713 122.536 111.713 104.989 92.9798 94.1594C83.7307 88.813 71.6267 86.13 59.5032 86.0712H48.2009C35.8622 86.0321 23.504 88.715 14.0789 94.1594C-4.65392 104.989 -4.65392 122.536 14.0789 133.366C23.7191 138.928 36.4097 141.611 49.0417 141.454H58.193C61.2044 141.493 64.1962 141.356 67.1684 141.063L100.332 165.523C100.43 166.228 100.821 168.147 102.014 169.028L111.458 176.02L111.869 174.042L112.495 174.512C112.495 174.512 112.417 174.571 112.436 174.59L113.14 175.119C113.14 175.119 113.297 175.217 113.629 175.236C114.137 175.276 114.763 175.217 115.056 175.08C115.193 175.021 115.213 174.962 115.154 174.904L114.45 174.375C114.431 174.375 114.333 174.355 114.274 174.336L113.121 173.493L116.601 173.787L107.606 167.129C106.844 166.561 105.651 166.052 104.165 165.66L101.603 164.994L68.8892 140.867C72.1156 140.475 75.2834 139.888 78.3534 139.124L127.024 161.587C127.61 162.292 129.311 164.211 131.032 165.014L144.72 171.339L143.723 169.303L144.622 169.714C144.622 169.714 144.583 169.792 144.622 169.812L145.639 170.282C145.639 170.282 145.854 170.36 146.187 170.36C146.675 170.36 147.223 170.243 147.419 170.105C147.516 170.027 147.477 169.968 147.379 169.91L147.399 169.87ZM113.218 174.904C113.218 174.904 113.101 174.962 113.101 175.001C113.101 174.962 113.16 174.943 113.218 174.904ZM145.561 170.164C145.561 170.164 145.561 170.105 145.62 170.066C145.58 170.105 145.561 170.145 145.561 170.164Z" fill="#52017B"/>
</g>
<path d="M110.05 41.5961C103.363 37.6989 94.1137 38.2473 83.9064 44.142C63.6483 55.8532 47.2033 84.3672 47.2815 107.692C47.3206 119.285 51.4074 127.432 58.0167 131.271L65.2322 135.481L117.266 45.8066L110.05 41.5961Z" fill="#C858F0"/>
<path opacity="0.9" d="M47.9862 98.8398C47.517 101.836 47.2627 104.813 47.2823 107.692C47.3214 119.285 51.4082 127.432 58.0175 131.271L65.233 135.481L76.8286 115.506L48.0058 98.8398H47.9862Z" fill="#AA22D6"/>
<path d="M115.82 44.9252C109.132 41.028 99.8831 41.5764 89.6759 47.4711C71.823 57.7918 56.9423 81.1553 53.6963 102.521L54.9869 105.929C59.543 118.032 76.0858 119.403 82.5777 108.22L118.42 46.4723L115.839 44.9448L115.82 44.9252Z" fill="#FFE2D7"/>
<path d="M53.7743 102.169C53.305 105.165 53.0508 108.142 53.0704 111.021C53.1095 122.615 57.1963 130.761 63.8056 134.6L66.3867 136.127L77.9823 116.152L53.7743 102.149V102.169Z" fill="#EF9CED"/>
<path d="M92.2762 49.0185C74.5407 59.2608 59.7382 82.3893 56.3749 103.618C55.886 106.654 55.6514 109.65 55.6514 112.568C55.71 135.892 72.2528 145.332 92.5305 133.621C112.808 121.91 129.234 93.3955 129.155 70.0711C129.116 55.3245 122.487 46.1201 112.476 44.3183C106.668 43.2804 99.7264 44.71 92.2762 49.0185Z" fill="#FFBBFA"/>
<path d="M92.3154 70.58C82.1864 76.4356 73.9932 90.6731 74.0127 102.325C74.0518 113.978 82.3037 118.698 92.4327 112.842C102.562 106.986 110.755 92.749 110.735 81.0966C110.696 69.4442 102.444 64.7245 92.3154 70.58ZM92.4327 109.395C83.9462 114.291 77.0436 110.335 77.0045 100.602C76.985 90.8493 83.8485 78.9228 92.335 74.0268C100.821 69.1308 107.724 73.0672 107.763 82.8199C107.783 92.5727 100.919 104.499 92.4327 109.395Z" fill="#C858F0"/>
<path d="M92.354 82.6045C87.9935 85.1308 84.4542 91.2606 84.4737 96.2936C84.4737 101.327 88.0521 103.344 92.4127 100.818C96.7733 98.2912 100.313 92.1614 100.293 87.1284C100.293 82.0954 96.7146 80.0782 92.354 82.6045Z" fill="#C858F0"/>
<path d="M92.2955 58.5557C76.4176 67.7405 63.5314 90.0857 63.59 108.377C63.6487 126.649 76.6131 134.051 92.491 124.867C108.369 115.682 121.255 93.3366 121.197 75.0453C121.138 56.7736 108.173 49.3709 92.2955 58.5557ZM92.4715 121.42C78.2361 129.645 66.6014 123.026 66.5623 106.634C66.5232 90.2619 78.0601 70.2081 92.2955 61.9829C106.531 53.7576 118.146 60.3966 118.185 76.7687C118.224 93.1408 106.687 113.175 92.4519 121.4L92.4715 121.42Z" fill="#C858F0"/>
<path d="M98.4937 95.3539L93.3314 92.3771C92.9403 92.1617 92.4514 92.2792 92.2363 92.6709C92.0212 93.0626 92.1386 93.5522 92.5297 93.7676L97.6919 96.7443C98.4154 97.1556 99.1585 95.726 98.4937 95.3539Z" fill="#DE78FF"/>
<path d="M173.738 142.531L162.045 135.775C160.226 134.737 157.254 130.625 157.254 130.625L171.626 138.928L173.718 142.531H173.738Z" fill="#FFE2D7"/>
<path d="M173.347 138.712L98.5332 95.5692C98.0052 95.2558 97.4968 96.3721 97.927 96.6267L173.132 140.005C173.66 140.318 173.777 138.967 173.347 138.712Z" fill="#AA32B7"/>
<path d="M173.738 136.794L162.612 130.37C161.673 129.822 160.578 129.548 159.483 129.587L157.254 129.665L171.626 137.969L173.718 136.794H173.738Z" fill="#FFE2D7"/>
<path d="M91.1611 90.4971V93.8264C93.4294 94.9231 95.3457 95.3931 95.6977 94.8056C96.1083 94.1005 94.0943 92.1813 91.1611 90.4775V90.4971Z" fill="#DE78FF"/>
<path d="M173.406 140.064C173.406 140.377 173.621 140.514 173.895 140.358C174.169 140.201 174.384 139.809 174.384 139.496C174.384 139.183 174.169 139.046 173.895 139.202C173.621 139.359 173.406 139.751 173.406 140.064Z" fill="#AA32B7"/>
<path d="M174.247 139.163L173.387 138.654C173.387 138.654 173.172 138.615 173.035 138.693C172.761 138.85 172.546 139.241 172.546 139.555C172.546 139.711 172.605 139.829 172.683 139.868L173.563 140.377C173.563 140.377 173.426 140.221 173.426 140.064C173.426 139.751 173.641 139.359 173.915 139.202C174.052 139.124 174.169 139.124 174.267 139.163H174.247Z" fill="#C858F0"/>
<path d="M99.922 92.1229L94.2122 90.3995C93.782 90.2625 93.3322 90.517 93.2149 90.9479C93.078 91.3787 93.3322 91.8292 93.7624 91.9467L99.4722 93.67C100.274 93.905 100.665 92.3383 99.9415 92.1229H99.922Z" fill="#DE78FF"/>
<path d="M183.985 120.696L171.06 116.818C169.065 116.211 165.213 112.901 165.213 112.901L181.11 117.68L183.985 120.696Z" fill="#FFE2D7"/>
<path d="M182.733 117.092L100.019 92.338C99.4328 92.1618 99.1786 93.3564 99.6675 93.513L182.831 118.385C183.418 118.561 183.222 117.229 182.733 117.072V117.092Z" fill="#AA32B7"/>
<path d="M182.675 115.114L170.375 111.413C169.32 111.099 168.205 111.08 167.149 111.374L164.998 111.961L180.896 116.74L182.655 115.114H182.675Z" fill="#FFE2D7"/>
<path d="M92.4521 89.3418V92.3577C94.916 92.9061 96.8909 92.9061 97.0865 92.2794C97.3016 91.5744 95.1897 90.2818 92.4521 89.3418Z" fill="#DE78FF"/>
<path d="M183.105 118.365C183.183 118.678 183.418 118.737 183.653 118.522C183.887 118.306 184.005 117.875 183.926 117.582C183.848 117.268 183.614 117.21 183.379 117.425C183.144 117.64 183.027 118.071 183.105 118.365Z" fill="#AA32B7"/>
<path d="M183.711 117.307L182.753 117.014C182.656 116.975 182.538 117.014 182.421 117.131C182.186 117.347 182.069 117.777 182.147 118.071C182.186 118.228 182.265 118.326 182.362 118.345L183.32 118.639C183.32 118.639 183.144 118.522 183.105 118.365C183.027 118.052 183.164 117.64 183.379 117.425C183.496 117.307 183.614 117.288 183.711 117.307Z" fill="#C858F0"/>
</g>
<defs>
<clipPath id="clip0_87_6383">
<rect width="207" height="176" fill="white"/>
</clipPath>
</defs>
</svg>
