<svg width="33" height="33" viewBox="0 0 33 33" fill="none" xmlns="http://www.w3.org/2000/svg">
<path d="M25.0086 0H7.95715C3.5634 0 0 3.5634 0 7.95714V25.0086C0 29.4024 3.5634 32.9658 7.95715 32.9658H25.0086C29.4024 32.9658 32.9658 29.4024 32.9658 25.0086V7.95714C32.9658 3.5634 29.4024 0 25.0086 0ZM30.1236 24.4408C30.1236 27.5788 27.5772 30.1252 24.4392 30.1252H8.52495C5.38701 30.1252 2.84061 27.5788 2.84061 24.4408V8.52653C2.84061 5.38859 5.38701 2.84218 8.52495 2.84218H24.4392C27.5772 2.84218 30.1236 5.38859 30.1236 8.52653V24.4408Z" fill="white"/>
<path d="M16.4981 7.95703C11.7928 7.95703 7.97314 11.7766 7.97314 16.482C7.97314 21.1873 11.7928 25.0069 16.4981 25.0069C21.2034 25.0069 25.023 21.1873 25.023 16.482C25.023 11.7766 21.2034 7.95703 16.4981 7.95703ZM16.4981 22.1663C13.3665 22.1663 10.8137 19.6136 10.8137 16.482C10.8137 13.3504 13.3665 10.7976 16.4981 10.7976C19.6297 10.7976 22.1824 13.3504 22.1824 16.482C22.1824 19.6136 19.6297 22.1663 16.4981 22.1663Z" fill="white"/>
<path d="M25.5922 9.09455C24.6527 9.09455 23.8872 8.32904 23.8872 7.38956C23.8872 6.45008 24.6527 5.68457 25.5922 5.68457C26.5317 5.68457 27.2972 6.45008 27.2972 7.38956C27.2972 8.32904 26.5317 9.09455 25.5922 9.09455Z" fill="white"/>
</svg>
