<svg width="31" height="32" viewBox="0 0 31 32" fill="none" xmlns="http://www.w3.org/2000/svg">
<path d="M4.04739 8.09474C6.28269 8.09474 8.09475 6.28267 8.09475 4.04737C8.09475 1.81206 6.28269 0 4.04739 0C1.81208 0 0 1.81206 0 4.04737C0 6.28267 1.81208 8.09474 4.04739 8.09474Z" fill="white"/>
<path d="M7.11882 10.791H0.977388C0.810549 10.791 0.675293 10.9263 0.675293 11.0931V30.7242C0.675293 30.891 0.810549 31.0263 0.977388 31.0263H7.11882C7.28566 31.0263 7.42092 30.891 7.42092 30.7242V11.0931C7.42092 10.9263 7.28566 10.791 7.11882 10.791Z" fill="white"/>
<path d="M30.3544 18.2129V29.6797C30.3544 30.4215 29.7471 31.0288 29.0053 31.0288H24.9579C24.2161 31.0288 23.6088 30.4215 23.6088 29.6797V20.2358C23.6088 18.3742 22.0983 16.8638 20.2368 16.8638C18.3752 16.8638 16.8647 18.3742 16.8647 20.2358V29.6797C16.8647 30.4215 16.2574 31.0288 15.5156 31.0288H11.4682C10.7265 31.0288 10.1191 30.4215 10.1191 29.6797V12.1411C10.1191 11.3993 10.7265 10.7919 11.4682 10.7919H15.5156C16.2574 10.7919 16.8647 11.3993 16.8647 12.1411V13.0046C18.2139 11.2569 20.4471 10.1182 22.935 10.1182C26.6582 10.1182 30.3544 12.8164 30.3544 18.2129Z" fill="white"/>
</svg>
