<svg width="20" height="19" viewBox="0 0 20 19" fill="none" xmlns="http://www.w3.org/2000/svg">
<path d="M3.11241 5.05073C4.46998 5.05073 5.57051 3.95019 5.57051 2.59262C5.57051 1.23505 4.46998 0.134521 3.11241 0.134521C1.75484 0.134521 0.654297 1.23505 0.654297 2.59262C0.654297 3.95019 1.75484 5.05073 3.11241 5.05073Z" fill="white"/>
<path d="M4.97782 6.68848H1.24793C1.1466 6.68848 1.06445 6.77062 1.06445 6.87194V18.7946C1.06445 18.8959 1.1466 18.978 1.24793 18.978H4.97782C5.07915 18.978 5.16129 18.8959 5.16129 18.7946V6.87194C5.16129 6.77062 5.07915 6.68848 4.97782 6.68848Z" fill="white"/>
<path d="M19.0898 11.1955V18.1597C19.0898 18.6102 18.721 18.979 18.2705 18.979H15.8124C15.3619 18.979 14.993 18.6102 14.993 18.1597V12.4241C14.993 11.2935 14.0757 10.3761 12.9451 10.3761C11.8145 10.3761 10.8971 11.2935 10.8971 12.4241V18.1597C10.8971 18.6102 10.5283 18.979 10.0778 18.979H7.61965C7.16914 18.979 6.80029 18.6102 6.80029 18.1597V7.50787C6.80029 7.05736 7.16914 6.6885 7.61965 6.6885H10.0778C10.5283 6.6885 10.8971 7.05736 10.8971 7.50787V8.03234C11.7165 6.97091 13.0728 6.2793 14.5838 6.2793C16.845 6.2793 19.0898 7.91803 19.0898 11.1955Z" fill="white"/>
</svg>
