<svg width="38" height="38" viewBox="0 0 38 38" fill="none" xmlns="http://www.w3.org/2000/svg">
<path d="M18.2433 0.0102142C8.53211 0.324957 0.510134 8.19036 0.024576 17.8952C-0.150984 21.3937 0.620849 24.7009 2.12181 27.5716L0.0135132 37.0138C-0.0750577 37.4409 0.302935 37.8189 0.729973 37.7303L10.1723 35.622H10.1786C13.0302 37.1119 16.3026 37.8837 19.7759 37.7224C29.4649 37.2732 37.3556 29.3129 37.7305 19.6208C38.1543 8.64429 29.2071 -0.345651 18.2449 0.0102142H18.2433ZM18.8728 33.838C16.1271 33.838 13.5553 33.0962 11.3442 31.8008C11.1355 31.6838 10.9346 31.5604 10.7385 31.4291L4.70617 33.0361L6.31311 27.0038C4.79001 24.6614 3.90588 21.8698 3.90588 18.8695C3.90588 10.6182 10.6215 3.90258 18.8728 3.90258C27.1241 3.90258 33.8397 10.6182 33.8397 18.8695C33.8397 27.1208 27.1241 33.8364 18.8728 33.8364V33.838Z" fill="white"/>
<path d="M27.7487 25.46C27.4878 25.8522 27.2141 26.2175 26.776 26.6541C25.8176 27.6125 24.4858 28.0965 23.1351 27.9589C20.7152 27.7106 17.2768 26.3741 14.3208 23.4244C11.3647 20.4684 10.0282 17.0299 9.78623 14.61C9.64863 13.2593 10.1326 11.9292 11.0911 10.9691C11.5276 10.5326 11.893 10.2574 12.2852 9.9901C13.0096 9.50138 13.9949 9.8272 14.2686 10.6496L15.2602 13.6247C15.5338 14.4408 15.4105 14.9564 15.0578 15.3012L14.2686 16.0983C13.8763 16.4906 13.8115 17.0963 14.112 17.5661C14.5485 18.2509 15.3709 19.347 16.8846 20.8606C18.3982 22.3742 19.4942 23.1967 20.1791 23.6332C20.6488 23.9337 21.2562 23.8688 21.6468 23.4766L22.444 22.6874C22.7903 22.3347 23.3059 22.2113 24.1205 22.4849L27.0955 23.4766C27.918 23.7502 28.2438 24.7356 27.7487 25.46Z" fill="white"/>
</svg>
